<?xml version="1.0" encoding="utf-8" standalone="no"?>
<!DOCTYPE svg PUBLIC "-//W3C//DTD SVG 1.1//EN"
  "http://www.w3.org/Graphics/SVG/1.1/DTD/svg11.dtd">
<!-- Created with matplotlib (https://matplotlib.org/) -->
<svg height="288pt" version="1.1" viewBox="0 0 576 288" width="576pt" xmlns="http://www.w3.org/2000/svg" xmlns:xlink="http://www.w3.org/1999/xlink">
 <defs>
  <style type="text/css">
*{stroke-linecap:butt;stroke-linejoin:round;}
  </style>
 </defs>
 <g id="figure_1">
  <g id="patch_1">
   <path d="M 0 288 
L 576 288 
L 576 0 
L 0 0 
z
" style="fill:#ffffff;"/>
  </g>
  <g id="patch_2">
   <path d="M 10.8 277.2 
L 565.2 277.2 
L 565.2 10.8 
L 10.8 10.8 
z
" style="fill:#ffffff;"/>
  </g>
  <g id="pane3d_1">
   <g id="patch_3">
    <path d="M 106.28687 167.48733 
L 381.499589 136.401492 
L 387.158477 23.225718 
L 93.495044 53.294388 
" style="fill:#f2f2f2;opacity:0.5;stroke:#f2f2f2;stroke-linejoin:miter;"/>
   </g>
  </g>
  <g id="pane3d_2">
   <g id="patch_4">
    <path d="M 381.499589 136.401492 
L 493.634399 225.843533 
L 507.70821 110.018283 
L 387.158477 23.225718 
" style="fill:#e6e6e6;opacity:0.5;stroke:#e6e6e6;stroke-linejoin:miter;"/>
   </g>
  </g>
  <g id="pane3d_3">
   <g id="patch_5">
    <path d="M 106.28687 167.48733 
L 200.529543 261.787144 
L 493.634399 225.843533 
L 381.499589 136.401492 
" style="fill:#ececec;opacity:0.5;stroke:#ececec;stroke-linejoin:miter;"/>
   </g>
  </g>
  <g id="axis3d_1">
   <g id="line2d_1">
    <path d="M 106.28687 167.48733 
L 200.529543 261.787144 
" style="fill:none;stroke:#000000;stroke-linecap:square;stroke-width:0.8;"/>
   </g>
   <g id="text_1">
    <!-- x -->
    <defs>
     <path d="M 54.890625 54.6875 
L 35.109375 28.078125 
L 55.90625 0 
L 45.3125 0 
L 29.390625 21.484375 
L 13.484375 0 
L 2.875 0 
L 24.125 28.609375 
L 4.6875 54.6875 
L 15.28125 54.6875 
L 29.78125 35.203125 
L 44.28125 54.6875 
z
" id="DejaVuSans-120"/>
    </defs>
    <g transform="translate(114.695188 233.321838)scale(0.14 -0.14)">
     <use xlink:href="#DejaVuSans-120"/>
    </g>
   </g>
   <g id="Line3DCollection_1">
    <path d="M 111.884074 173.087927 
L 388.171462 141.723175 
L 394.298055 28.366022 
" style="fill:none;stroke:#b0b0b0;stroke-width:0.8;"/>
    <path d="M 124.870247 186.081974 
L 403.645135 154.065435 
L 410.87244 40.299133 
" style="fill:none;stroke:#b0b0b0;stroke-width:0.8;"/>
    <path d="M 138.131247 199.351014 
L 419.437831 166.662155 
L 427.811627 52.494892 
" style="fill:none;stroke:#b0b0b0;stroke-width:0.8;"/>
    <path d="M 151.67589 212.90387 
L 435.559516 179.521289 
L 445.127794 64.962067 
" style="fill:none;stroke:#b0b0b0;stroke-width:0.8;"/>
    <path d="M 165.513376 226.749746 
L 452.020582 192.651122 
L 462.833667 77.709819 
" style="fill:none;stroke:#b0b0b0;stroke-width:0.8;"/>
    <path d="M 179.653305 240.898248 
L 468.831856 206.060292 
L 480.942551 90.747729 
" style="fill:none;stroke:#b0b0b0;stroke-width:0.8;"/>
    <path d="M 194.105703 255.359409 
L 486.004637 219.75781 
L 499.468364 104.085816 
" style="fill:none;stroke:#b0b0b0;stroke-width:0.8;"/>
   </g>
   <g id="xtick_1">
    <g id="line2d_2">
     <path d="M 114.151214 172.830556 
L 107.34697 173.602989 
" style="fill:none;stroke:#000000;stroke-linecap:square;stroke-width:0.8;"/>
    </g>
    <g id="text_2">
     <!-- −15 -->
     <defs>
      <path d="M 10.59375 35.5 
L 73.1875 35.5 
L 73.1875 27.203125 
L 10.59375 27.203125 
z
" id="DejaVuSans-8722"/>
      <path d="M 12.40625 8.296875 
L 28.515625 8.296875 
L 28.515625 63.921875 
L 10.984375 60.40625 
L 10.984375 69.390625 
L 28.421875 72.90625 
L 38.28125 72.90625 
L 38.28125 8.296875 
L 54.390625 8.296875 
L 54.390625 0 
L 12.40625 0 
z
" id="DejaVuSans-49"/>
      <path d="M 10.796875 72.90625 
L 49.515625 72.90625 
L 49.515625 64.59375 
L 19.828125 64.59375 
L 19.828125 46.734375 
Q 21.96875 47.46875 24.109375 47.828125 
Q 26.265625 48.1875 28.421875 48.1875 
Q 40.625 48.1875 47.75 41.5 
Q 54.890625 34.8125 54.890625 23.390625 
Q 54.890625 11.625 47.5625 5.09375 
Q 40.234375 -1.421875 26.90625 -1.421875 
Q 22.3125 -1.421875 17.546875 -0.640625 
Q 12.796875 0.140625 7.71875 1.703125 
L 7.71875 11.625 
Q 12.109375 9.234375 16.796875 8.0625 
Q 21.484375 6.890625 26.703125 6.890625 
Q 35.15625 6.890625 40.078125 11.328125 
Q 45.015625 15.765625 45.015625 23.390625 
Q 45.015625 31 40.078125 35.4375 
Q 35.15625 39.890625 26.703125 39.890625 
Q 22.75 39.890625 18.8125 39.015625 
Q 14.890625 38.140625 10.796875 36.28125 
z
" id="DejaVuSans-53"/>
     </defs>
     <g transform="translate(84.629232 189.683678)scale(0.12 -0.12)">
      <use xlink:href="#DejaVuSans-8722"/>
      <use x="83.789062" xlink:href="#DejaVuSans-49"/>
      <use x="147.412109" xlink:href="#DejaVuSans-53"/>
     </g>
    </g>
   </g>
   <g id="xtick_2">
    <g id="line2d_3">
     <path d="M 127.1584 185.819186 
L 120.291063 186.607881 
" style="fill:none;stroke:#000000;stroke-linecap:square;stroke-width:0.8;"/>
    </g>
    <g id="text_3">
     <!-- −10 -->
     <defs>
      <path d="M 31.78125 66.40625 
Q 24.171875 66.40625 20.328125 58.90625 
Q 16.5 51.421875 16.5 36.375 
Q 16.5 21.390625 20.328125 13.890625 
Q 24.171875 6.390625 31.78125 6.390625 
Q 39.453125 6.390625 43.28125 13.890625 
Q 47.125 21.390625 47.125 36.375 
Q 47.125 51.421875 43.28125 58.90625 
Q 39.453125 66.40625 31.78125 66.40625 
z
M 31.78125 74.21875 
Q 44.046875 74.21875 50.515625 64.515625 
Q 56.984375 54.828125 56.984375 36.375 
Q 56.984375 17.96875 50.515625 8.265625 
Q 44.046875 -1.421875 31.78125 -1.421875 
Q 19.53125 -1.421875 13.0625 8.265625 
Q 6.59375 17.96875 6.59375 36.375 
Q 6.59375 54.828125 13.0625 64.515625 
Q 19.53125 74.21875 31.78125 74.21875 
z
" id="DejaVuSans-48"/>
     </defs>
     <g transform="translate(97.436379 202.729295)scale(0.12 -0.12)">
      <use xlink:href="#DejaVuSans-8722"/>
      <use x="83.789062" xlink:href="#DejaVuSans-49"/>
      <use x="147.412109" xlink:href="#DejaVuSans-48"/>
     </g>
    </g>
   </g>
   <g id="xtick_3">
    <g id="line2d_4">
     <path d="M 140.440798 199.082636 
L 133.509208 199.888112 
" style="fill:none;stroke:#000000;stroke-linecap:square;stroke-width:0.8;"/>
    </g>
    <g id="text_4">
     <!-- −5 -->
     <g transform="translate(114.331503 216.050425)scale(0.12 -0.12)">
      <use xlink:href="#DejaVuSans-8722"/>
      <use x="83.789062" xlink:href="#DejaVuSans-53"/>
     </g>
    </g>
   </g>
   <g id="xtick_4">
    <g id="line2d_5">
     <path d="M 154.007236 212.629721 
L 147.010201 213.45252 
" style="fill:none;stroke:#000000;stroke-linecap:square;stroke-width:0.8;"/>
    </g>
    <g id="text_5">
     <!-- 0 -->
     <g transform="translate(132.716077 229.65589)scale(0.12 -0.12)">
      <use xlink:href="#DejaVuSans-48"/>
     </g>
    </g>
   </g>
   <g id="xtick_5">
    <g id="line2d_6">
     <path d="M 167.866925 226.469638 
L 160.803219 227.310324 
" style="fill:none;stroke:#000000;stroke-linecap:square;stroke-width:0.8;"/>
    </g>
    <g id="text_6">
     <!-- 5 -->
     <g transform="translate(146.361009 243.554892)scale(0.12 -0.12)">
      <use xlink:href="#DejaVuSans-53"/>
     </g>
    </g>
   </g>
   <g id="xtick_6">
    <g id="line2d_7">
     <path d="M 182.029477 240.611986 
L 174.897841 241.471149 
" style="fill:none;stroke:#000000;stroke-linecap:square;stroke-width:0.8;"/>
    </g>
    <g id="text_7">
     <!-- 10 -->
     <g transform="translate(156.48604 257.757034)scale(0.12 -0.12)">
      <use xlink:href="#DejaVuSans-49"/>
      <use x="63.623047" xlink:href="#DejaVuSans-48"/>
     </g>
    </g>
   </g>
   <g id="xtick_7">
    <g id="line2d_8">
     <path d="M 196.504928 255.066786 
L 189.304068 255.945043 
" style="fill:none;stroke:#000000;stroke-linecap:square;stroke-width:0.8;"/>
    </g>
    <g id="text_8">
     <!-- 15 -->
     <g transform="translate(170.736012 272.272342)scale(0.12 -0.12)">
      <use xlink:href="#DejaVuSans-49"/>
      <use x="63.623047" xlink:href="#DejaVuSans-53"/>
     </g>
    </g>
   </g>
  </g>
  <g id="axis3d_2">
   <g id="line2d_9">
    <path d="M 493.634399 225.843533 
L 200.529543 261.787144 
" style="fill:none;stroke:#000000;stroke-linecap:square;stroke-width:0.8;"/>
   </g>
   <g id="text_9">
    <!-- y -->
    <defs>
     <path d="M 32.171875 -5.078125 
Q 28.375 -14.84375 24.75 -17.8125 
Q 21.140625 -20.796875 15.09375 -20.796875 
L 7.90625 -20.796875 
L 7.90625 -13.28125 
L 13.1875 -13.28125 
Q 16.890625 -13.28125 18.9375 -11.515625 
Q 21 -9.765625 23.484375 -3.21875 
L 25.09375 0.875 
L 2.984375 54.6875 
L 12.5 54.6875 
L 29.59375 11.921875 
L 46.6875 54.6875 
L 56.203125 54.6875 
z
" id="DejaVuSans-121"/>
    </defs>
    <g transform="translate(357.546694 271.685467)scale(0.14 -0.14)">
     <use xlink:href="#DejaVuSans-121"/>
    </g>
   </g>
   <g id="Line3DCollection_2">
    <path d="M 138.844181 48.651017 
L 148.725697 162.693778 
L 245.800808 256.235504 
" style="fill:none;stroke:#b0b0b0;stroke-width:0.8;"/>
    <path d="M 190.82995 43.328111 
L 197.402647 157.195617 
L 297.693541 249.871869 
" style="fill:none;stroke:#b0b0b0;stroke-width:0.8;"/>
    <path d="M 242.322412 38.055715 
L 245.646567 151.746368 
L 349.08988 243.569108 
" style="fill:none;stroke:#b0b0b0;stroke-width:0.8;"/>
    <path d="M 293.328555 32.833114 
L 293.463208 146.34538 
L 399.996914 237.32635 
" style="fill:none;stroke:#b0b0b0;stroke-width:0.8;"/>
    <path d="M 343.855236 27.659606 
L 340.858223 140.992017 
L 450.421598 231.142743 
" style="fill:none;stroke:#b0b0b0;stroke-width:0.8;"/>
   </g>
   <g id="xtick_8">
    <g id="line2d_10">
     <path d="M 244.965683 255.430776 
L 247.474109 257.847899 
" style="fill:none;stroke:#000000;stroke-linecap:square;stroke-width:0.8;"/>
    </g>
    <g id="text_10">
     <!-- −20 -->
     <defs>
      <path d="M 19.1875 8.296875 
L 53.609375 8.296875 
L 53.609375 0 
L 7.328125 0 
L 7.328125 8.296875 
Q 12.9375 14.109375 22.625 23.890625 
Q 32.328125 33.6875 34.8125 36.53125 
Q 39.546875 41.84375 41.421875 45.53125 
Q 43.3125 49.21875 43.3125 52.78125 
Q 43.3125 58.59375 39.234375 62.25 
Q 35.15625 65.921875 28.609375 65.921875 
Q 23.96875 65.921875 18.8125 64.3125 
Q 13.671875 62.703125 7.8125 59.421875 
L 7.8125 69.390625 
Q 13.765625 71.78125 18.9375 73 
Q 24.125 74.21875 28.421875 74.21875 
Q 39.75 74.21875 46.484375 68.546875 
Q 53.21875 62.890625 53.21875 53.421875 
Q 53.21875 48.921875 51.53125 44.890625 
Q 49.859375 40.875 45.40625 35.40625 
Q 44.1875 33.984375 37.640625 27.21875 
Q 31.109375 20.453125 19.1875 8.296875 
z
" id="DejaVuSans-50"/>
     </defs>
     <g transform="translate(238.941752 276.617726)scale(0.12 -0.12)">
      <use xlink:href="#DejaVuSans-8722"/>
      <use x="83.789062" xlink:href="#DejaVuSans-50"/>
      <use x="147.412109" xlink:href="#DejaVuSans-48"/>
     </g>
    </g>
   </g>
   <g id="xtick_9">
    <g id="line2d_11">
     <path d="M 296.831041 249.074855 
L 299.421675 251.468795 
" style="fill:none;stroke:#000000;stroke-linecap:square;stroke-width:0.8;"/>
    </g>
    <g id="text_11">
     <!-- −10 -->
     <g transform="translate(290.829199 270.197161)scale(0.12 -0.12)">
      <use xlink:href="#DejaVuSans-8722"/>
      <use x="83.789062" xlink:href="#DejaVuSans-49"/>
      <use x="147.412109" xlink:href="#DejaVuSans-48"/>
     </g>
    </g>
   </g>
   <g id="xtick_10">
    <g id="line2d_12">
     <path d="M 348.200566 242.779697 
L 350.871725 245.150785 
" style="fill:none;stroke:#000000;stroke-linecap:square;stroke-width:0.8;"/>
    </g>
    <g id="text_12">
     <!-- 0 -->
     <g transform="translate(351.065401 263.838039)scale(0.12 -0.12)">
      <use xlink:href="#DejaVuSans-48"/>
     </g>
    </g>
   </g>
   <g id="xtick_11">
    <g id="line2d_13">
     <path d="M 399.081335 236.544435 
L 401.83137 238.892996 
" style="fill:none;stroke:#000000;stroke-linecap:square;stroke-width:0.8;"/>
    </g>
    <g id="text_13">
     <!-- 10 -->
     <g transform="translate(398.149325 257.539484)scale(0.12 -0.12)">
      <use xlink:href="#DejaVuSans-49"/>
      <use x="63.623047" xlink:href="#DejaVuSans-48"/>
     </g>
    </g>
   </g>
   <g id="xtick_12">
    <g id="line2d_14">
     <path d="M 449.480289 230.368217 
L 452.30759 232.694571 
" style="fill:none;stroke:#000000;stroke-linecap:square;stroke-width:0.8;"/>
    </g>
    <g id="text_14">
     <!-- 20 -->
     <g transform="translate(448.568246 251.300635)scale(0.12 -0.12)">
      <use xlink:href="#DejaVuSans-50"/>
      <use x="63.623047" xlink:href="#DejaVuSans-48"/>
     </g>
    </g>
   </g>
  </g>
  <g id="axis3d_3">
   <g id="line2d_15">
    <path d="M 493.634399 225.843533 
L 507.70821 110.018283 
" style="fill:none;stroke:#000000;stroke-linecap:square;stroke-width:0.8;"/>
   </g>
   <g id="text_15">
    <!-- z -->
    <defs>
     <path d="M 5.515625 54.6875 
L 48.1875 54.6875 
L 48.1875 46.484375 
L 14.40625 7.171875 
L 48.1875 7.171875 
L 48.1875 0 
L 4.296875 0 
L 4.296875 8.203125 
L 38.09375 47.515625 
L 5.515625 47.515625 
z
" id="DejaVuSans-122"/>
    </defs>
    <g transform="translate(546.148102 180.89413)scale(0.14 -0.14)">
     <use xlink:href="#DejaVuSans-122"/>
    </g>
   </g>
   <g id="Line3DCollection_3">
    <path d="M 495.185169 213.080937 
L 382.125856 123.876377 
L 104.873343 154.868736 
" style="fill:none;stroke:#b0b0b0;stroke-width:0.8;"/>
    <path d="M 498.060916 189.41399 
L 383.285413 100.685632 
L 102.254738 131.492384 
" style="fill:none;stroke:#b0b0b0;stroke-width:0.8;"/>
    <path d="M 501.0207 165.055437 
L 384.476433 76.865671 
L 99.563185 107.464826 
" style="fill:none;stroke:#b0b0b0;stroke-width:0.8;"/>
    <path d="M 504.068258 139.974512 
L 385.700211 52.390531 
L 96.795593 82.758464 
" style="fill:none;stroke:#b0b0b0;stroke-width:0.8;"/>
    <path d="M 507.207555 114.138598 
L 386.958119 27.232805 
L 93.948693 57.344122 
" style="fill:none;stroke:#b0b0b0;stroke-width:0.8;"/>
   </g>
   <g id="xtick_13">
    <g id="line2d_16">
     <path d="M 494.213577 212.314344 
L 497.131849 214.616881 
" style="fill:none;stroke:#000000;stroke-linecap:square;stroke-width:0.8;"/>
    </g>
    <g id="text_16">
     <!-- −235 -->
     <defs>
      <path d="M 40.578125 39.3125 
Q 47.65625 37.796875 51.625 33 
Q 55.609375 28.21875 55.609375 21.1875 
Q 55.609375 10.40625 48.1875 4.484375 
Q 40.765625 -1.421875 27.09375 -1.421875 
Q 22.515625 -1.421875 17.65625 -0.515625 
Q 12.796875 0.390625 7.625 2.203125 
L 7.625 11.71875 
Q 11.71875 9.328125 16.59375 8.109375 
Q 21.484375 6.890625 26.8125 6.890625 
Q 36.078125 6.890625 40.9375 10.546875 
Q 45.796875 14.203125 45.796875 21.1875 
Q 45.796875 27.640625 41.28125 31.265625 
Q 36.765625 34.90625 28.71875 34.90625 
L 20.21875 34.90625 
L 20.21875 43.015625 
L 29.109375 43.015625 
Q 36.375 43.015625 40.234375 45.921875 
Q 44.09375 48.828125 44.09375 54.296875 
Q 44.09375 59.90625 40.109375 62.90625 
Q 36.140625 65.921875 28.71875 65.921875 
Q 24.65625 65.921875 20.015625 65.03125 
Q 15.375 64.15625 9.8125 62.3125 
L 9.8125 71.09375 
Q 15.4375 72.65625 20.34375 73.4375 
Q 25.25 74.21875 29.59375 74.21875 
Q 40.828125 74.21875 47.359375 69.109375 
Q 53.90625 64.015625 53.90625 55.328125 
Q 53.90625 49.265625 50.4375 45.09375 
Q 46.96875 40.921875 40.578125 39.3125 
z
" id="DejaVuSans-51"/>
     </defs>
     <g transform="translate(500.760285 225.48847)scale(0.12 -0.12)">
      <use xlink:href="#DejaVuSans-8722"/>
      <use x="83.789062" xlink:href="#DejaVuSans-50"/>
      <use x="147.412109" xlink:href="#DejaVuSans-51"/>
      <use x="211.035156" xlink:href="#DejaVuSans-53"/>
     </g>
    </g>
   </g>
   <g id="xtick_14">
    <g id="line2d_17">
     <path d="M 497.073595 188.650732 
L 500.039162 190.943293 
" style="fill:none;stroke:#000000;stroke-linecap:square;stroke-width:0.8;"/>
    </g>
    <g id="text_17">
     <!-- −230 -->
     <g transform="translate(503.961967 201.807366)scale(0.12 -0.12)">
      <use xlink:href="#DejaVuSans-8722"/>
      <use x="83.789062" xlink:href="#DejaVuSans-50"/>
      <use x="147.412109" xlink:href="#DejaVuSans-51"/>
      <use x="211.035156" xlink:href="#DejaVuSans-48"/>
     </g>
    </g>
   </g>
   <g id="xtick_15">
    <g id="line2d_18">
     <path d="M 500.017138 164.296036 
L 503.031539 166.577051 
" style="fill:none;stroke:#000000;stroke-linecap:square;stroke-width:0.8;"/>
    </g>
    <g id="text_18">
     <!-- −225 -->
     <g transform="translate(507.257457 177.432413)scale(0.12 -0.12)">
      <use xlink:href="#DejaVuSans-8722"/>
      <use x="83.789062" xlink:href="#DejaVuSans-50"/>
      <use x="147.412109" xlink:href="#DejaVuSans-50"/>
      <use x="211.035156" xlink:href="#DejaVuSans-53"/>
     </g>
    </g>
   </g>
   <g id="xtick_16">
    <g id="line2d_19">
     <path d="M 503.04792 139.219534 
L 506.112768 141.487305 
" style="fill:none;stroke:#000000;stroke-linecap:square;stroke-width:0.8;"/>
    </g>
    <g id="text_19">
     <!-- −220 -->
     <g transform="translate(510.65094 152.332662)scale(0.12 -0.12)">
      <use xlink:href="#DejaVuSans-8722"/>
      <use x="83.789062" xlink:href="#DejaVuSans-50"/>
      <use x="147.412109" xlink:href="#DejaVuSans-50"/>
      <use x="211.035156" xlink:href="#DejaVuSans-48"/>
     </g>
    </g>
   </g>
   <g id="xtick_17">
    <g id="line2d_20">
     <path d="M 506.169878 113.388656 
L 509.286866 115.641343 
" style="fill:none;stroke:#000000;stroke-linecap:square;stroke-width:0.8;"/>
    </g>
    <g id="text_20">
     <!-- −215 -->
     <g transform="translate(514.146852 126.475298)scale(0.12 -0.12)">
      <use xlink:href="#DejaVuSans-8722"/>
      <use x="83.789062" xlink:href="#DejaVuSans-50"/>
      <use x="147.412109" xlink:href="#DejaVuSans-49"/>
      <use x="211.035156" xlink:href="#DejaVuSans-53"/>
     </g>
    </g>
   </g>
  </g>
  <g id="axes_1">
   <g id="Line3DCollection_4">
    <path clip-path="url(#p4573a4bef4)" d="M 124.461162 115.766553 
L 127.236733 118.388932 
L 130.024629 121.022956 
L 132.824934 123.668704 
L 135.637729 126.326253 
L 138.463099 128.995683 
L 141.301128 131.677073 
L 144.151902 134.370505 
L 147.015506 137.076059 
L 149.892028 139.793817 
L 152.781555 142.523863 
L 155.684175 145.266279 
L 158.599977 148.02115 
L 161.529052 150.788561 
L 164.471491 153.568598 
L 167.427385 156.361348 
L 170.396826 159.166897 
L 173.379908 161.985335 
L 176.376725 164.816749 
L 179.387373 167.66123 
L 182.411946 170.518869 
L 185.450543 173.389757 
L 188.50326 176.273987 
L 191.570197 179.171651 
L 194.651453 182.082843 
L 197.747129 185.00766 
L 200.857325 187.946196 
L 203.982145 190.898548 
L 207.121691 193.864814 
L 210.276069 196.845093 
" style="fill:none;stroke:#808080;stroke-width:1.5;"/>
    <path clip-path="url(#p4573a4bef4)" d="M 133.23942 114.81496 
L 136.032187 117.43312 
L 138.837346 120.062897 
L 141.654979 122.704369 
L 144.48517 125.357613 
L 147.328004 128.02271 
L 150.183565 130.699738 
L 153.051938 133.388777 
L 155.933211 136.089909 
L 158.82747 138.803216 
L 161.734803 141.52878 
L 164.6553 144.266684 
L 167.58905 147.017012 
L 170.536142 149.779849 
L 173.496669 152.555281 
L 176.470723 155.343393 
L 179.458396 158.144274 
L 182.459783 160.95801 
L 185.474977 163.784691 
L 188.504074 166.624406 
L 191.547172 169.477245 
L 194.604366 172.3433 
L 197.675755 175.222663 
L 200.761439 178.115426 
L 203.861517 181.021684 
L 206.97609 183.941531 
L 210.105261 186.875062 
L 213.249132 189.822374 
L 216.407806 192.783565 
L 219.581389 195.758732 
" style="fill:none;stroke:#808080;stroke-width:1.5;"/>
    <path clip-path="url(#p4573a4bef4)" d="M 142.003575 113.864897 
L 144.813479 116.478847 
L 147.635841 119.104387 
L 150.470743 121.741593 
L 153.318271 124.390544 
L 156.178508 127.051317 
L 159.051539 129.723993 
L 161.937451 132.408651 
L 164.836331 135.105373 
L 167.748265 137.814239 
L 170.673343 140.535332 
L 173.611654 143.268735 
L 176.563287 146.014531 
L 179.528334 148.772805 
L 182.506886 151.543643 
L 185.499035 154.32713 
L 188.504876 157.123353 
L 191.524501 159.9324 
L 194.558007 162.754359 
L 197.605488 165.58932 
L 200.667043 168.437372 
L 203.742768 171.298606 
L 206.832762 174.173114 
L 209.937125 177.060989 
L 213.055957 179.962325 
L 216.189359 182.877214 
L 219.337435 185.805754 
L 222.500287 188.748039 
L 225.678019 191.704167 
L 228.870737 194.674235 
" style="fill:none;stroke:#808080;stroke-width:1.5;"/>
    <path clip-path="url(#p4573a4bef4)" d="M 150.753661 112.916358 
L 153.580643 115.52611 
L 156.420149 118.147422 
L 159.272262 120.780373 
L 162.137066 123.42504 
L 165.014645 126.081501 
L 167.905087 128.749836 
L 170.808477 131.430124 
L 173.724902 134.122445 
L 176.65445 136.826881 
L 179.597211 139.543515 
L 182.553273 142.272427 
L 185.522727 145.013703 
L 188.505665 147.767426 
L 191.502178 150.533681 
L 194.512359 153.312554 
L 197.536302 156.104132 
L 200.574101 158.908501 
L 203.625853 161.72575 
L 206.691653 164.555968 
L 209.771598 167.399244 
L 212.865787 170.25567 
L 215.974319 173.125337 
L 219.097294 176.008336 
L 222.234812 178.904761 
L 225.386975 181.814706 
L 228.553887 184.738267 
L 231.735651 187.675538 
L 234.932371 190.626616 
L 238.144154 193.591599 
" style="fill:none;stroke:#808080;stroke-width:1.5;"/>
    <path clip-path="url(#p4573a4bef4)" d="M 159.489712 111.969341 
L 162.333714 114.574904 
L 165.190305 117.192 
L 168.059569 119.820706 
L 170.941589 122.461099 
L 173.836452 125.113258 
L 176.744244 127.777262 
L 179.66505 130.45319 
L 182.59896 133.141122 
L 185.546061 135.84114 
L 188.506442 138.553324 
L 191.480193 141.277758 
L 194.467406 144.014524 
L 197.468171 146.763707 
L 200.482582 149.525391 
L 203.51073 152.299661 
L 206.552712 155.086604 
L 209.608621 157.886308 
L 212.678554 160.698859 
L 215.762606 163.524346 
L 218.860877 166.362859 
L 221.973464 169.214489 
L 225.100466 172.079325 
L 228.241985 174.957461 
L 231.398122 177.848989 
L 234.568978 180.754002 
L 237.754658 183.672596 
L 240.955264 186.604865 
L 244.170903 189.550907 
L 247.401681 192.510818 
" style="fill:none;stroke:#808080;stroke-width:1.5;"/>
    <path clip-path="url(#p4573a4bef4)" d="M 168.211762 111.023842 
L 171.072725 113.625226 
L 173.946343 116.238115 
L 176.832698 118.862586 
L 179.731876 121.498717 
L 182.643963 124.146585 
L 185.569044 126.806268 
L 188.507207 129.477847 
L 191.45854 132.1614 
L 194.423132 134.85701 
L 197.401073 137.564756 
L 200.392451 140.284722 
L 203.39736 143.01699 
L 206.41589 145.761643 
L 209.448135 148.518767 
L 212.494188 151.288447 
L 215.554144 154.070768 
L 218.628098 156.865817 
L 221.716147 159.673681 
L 224.818387 162.49445 
L 227.934917 165.328212 
L 231.065835 168.175056 
L 234.211243 171.035075 
L 237.371239 173.90836 
L 240.545927 176.795003 
L 243.735408 179.695097 
L 246.939787 182.608737 
L 250.159168 185.536017 
L 253.393656 188.477035 
L 256.643359 191.431887 
" style="fill:none;stroke:#808080;stroke-width:1.5;"/>
    <path clip-path="url(#p4573a4bef4)" d="M 176.919843 110.079857 
L 179.797711 112.677072 
L 182.688296 115.285764 
L 185.591685 117.906011 
L 188.507961 120.537889 
L 191.437212 123.181476 
L 194.379523 125.83685 
L 197.334983 128.50409 
L 200.303679 131.183276 
L 203.285701 133.874488 
L 206.281139 136.577807 
L 209.290083 139.293316 
L 212.312625 142.021096 
L 215.348858 144.761232 
L 218.398874 147.513808 
L 221.462768 150.278907 
L 224.540635 153.056617 
L 227.63257 155.847023 
L 230.73867 158.650213 
L 233.859033 161.466275 
L 236.993757 164.295297 
L 240.142941 167.13737 
L 243.306686 169.992583 
L 246.485094 172.861029 
L 249.678265 175.742799 
L 252.886304 178.637986 
L 256.109314 181.546685 
L 259.347401 184.468989 
L 262.60067 187.404996 
L 265.869228 190.354801 
" style="fill:none;stroke:#808080;stroke-width:1.5;"/>
    <path clip-path="url(#p4573a4bef4)" d="M 185.613991 109.137383 
L 188.508704 111.730438 
L 191.4162 114.334945 
L 194.336563 116.950977 
L 197.269879 119.578613 
L 200.216234 122.217929 
L 203.175715 124.869003 
L 206.148411 127.531915 
L 209.13441 130.206744 
L 212.133802 132.893569 
L 215.146676 135.592473 
L 218.173124 138.303535 
L 221.213238 141.02684 
L 224.267111 143.762469 
L 227.334836 146.510507 
L 230.416508 149.271038 
L 233.512222 152.044148 
L 236.622074 154.829923 
L 239.746161 157.62845 
L 242.884582 160.439817 
L 246.037434 163.264111 
L 249.204819 166.101424 
L 252.386837 168.951844 
L 255.583588 171.815462 
L 258.795177 174.692372 
L 262.021706 177.582665 
L 265.263279 180.486435 
L 268.520004 183.403777 
L 271.791985 186.334785 
L 275.07933 189.279557 
" style="fill:none;stroke:#808080;stroke-width:1.5;"/>
    <path clip-path="url(#p4573a4bef4)" d="M 194.294237 108.196415 
L 197.205739 110.785322 
L 200.130087 113.385652 
L 203.067366 115.99748 
L 206.017663 118.620884 
L 208.981064 121.255939 
L 211.957656 123.902725 
L 214.947529 126.56132 
L 217.95077 129.231802 
L 220.96747 131.914251 
L 223.99772 134.608749 
L 227.041611 137.315377 
L 230.099235 140.034216 
L 233.170686 142.765349 
L 236.256057 145.508861 
L 239.355444 148.264836 
L 242.468942 151.033357 
L 245.596647 153.814513 
L 248.738657 156.608388 
L 251.895071 159.415071 
L 255.065988 162.23465 
L 258.251508 165.067214 
L 261.451732 167.912853 
L 264.666761 170.771657 
L 267.8967 173.643718 
L 271.141652 176.529129 
L 274.401722 179.427983 
L 277.677016 182.340374 
L 280.967641 185.266397 
L 284.273704 188.206148 
" style="fill:none;stroke:#808080;stroke-width:1.5;"/>
    <path clip-path="url(#p4573a4bef4)" d="M 202.960617 107.256951 
L 205.888849 109.841719 
L 208.829991 112.437882 
L 211.784129 115.045517 
L 214.751348 117.664698 
L 217.731735 120.295504 
L 220.72538 122.938011 
L 223.732369 125.592299 
L 226.752793 128.258445 
L 229.786742 130.936529 
L 232.834307 133.626632 
L 235.895579 136.328836 
L 238.970652 139.04322 
L 242.059619 141.76987 
L 245.162574 144.508867 
L 248.279613 147.260295 
L 251.410832 150.02424 
L 254.556327 152.800787 
L 257.716197 155.590023 
L 260.89054 158.392034 
L 264.079456 161.206909 
L 267.283045 164.034736 
L 270.50141 166.875606 
L 273.734652 169.729608 
L 276.982875 172.596833 
L 280.246183 175.477374 
L 283.524682 178.371325 
L 286.818478 181.278778 
L 290.127678 184.199828 
L 293.452391 187.134571 
" style="fill:none;stroke:#808080;stroke-width:1.5;"/>
    <path clip-path="url(#p4573a4bef4)" d="M 211.613162 106.318986 
L 214.558068 108.899625 
L 217.515947 111.491632 
L 220.486884 114.095083 
L 223.470968 116.710053 
L 226.468284 119.336619 
L 229.478921 121.974858 
L 232.502968 124.624849 
L 235.540514 127.286669 
L 238.591652 129.960399 
L 241.656471 132.646119 
L 244.735064 135.343908 
L 247.827525 138.05385 
L 250.933946 140.776026 
L 254.054423 143.510519 
L 257.189052 146.257413 
L 260.337929 149.016792 
L 263.50115 151.788743 
L 266.678816 154.57335 
L 269.871024 157.370701 
L 273.077875 160.180884 
L 276.299469 163.003987 
L 279.53591 165.840099 
L 282.787298 168.68931 
L 286.053739 171.551712 
L 289.335337 174.427396 
L 292.632198 177.316455 
L 295.944429 180.218982 
L 299.272136 183.135073 
L 302.61543 186.064821 
" style="fill:none;stroke:#808080;stroke-width:1.5;"/>
    <path clip-path="url(#p4573a4bef4)" d="M 220.251905 105.382517 
L 223.213428 107.959037 
L 226.187987 110.546898 
L 229.175667 113.146175 
L 232.176556 115.756943 
L 235.190742 118.37928 
L 238.218313 121.013261 
L 241.259359 123.658966 
L 244.313969 126.316471 
L 247.382235 128.985857 
L 250.464248 131.667204 
L 253.560102 134.360591 
L 256.669888 137.0661 
L 259.793703 139.783813 
L 262.931641 142.513814 
L 266.083797 145.256184 
L 269.250269 148.01101 
L 272.431155 150.778375 
L 275.626552 153.558365 
L 278.836562 156.351068 
L 282.061283 159.15657 
L 285.300818 161.97496 
L 288.555269 164.806327 
L 291.824739 167.65076 
L 295.109332 170.50835 
L 298.409154 173.379189 
L 301.72431 176.26337 
L 305.054908 179.160984 
L 308.401056 182.072127 
L 311.762862 184.996893 
" style="fill:none;stroke:#808080;stroke-width:1.5;"/>
    <path clip-path="url(#p4573a4bef4)" d="M 228.876881 104.447541 
L 231.854964 107.019952 
L 234.846145 109.603676 
L 237.85051 112.198789 
L 240.868148 114.805366 
L 243.899145 117.423483 
L 246.943592 120.053218 
L 250.001577 122.694646 
L 253.073191 125.347847 
L 256.158526 128.0129 
L 259.257674 130.689884 
L 262.370727 133.378879 
L 265.497779 136.079967 
L 268.638926 138.793229 
L 271.794262 141.518747 
L 274.963884 144.256606 
L 278.14789 147.006888 
L 281.346376 149.769679 
L 284.559443 152.545065 
L 287.78719 155.33313 
L 291.029719 158.133964 
L 294.28713 160.947653 
L 297.559527 163.774286 
L 300.847012 166.613953 
L 304.149692 169.466744 
L 307.467671 172.33275 
L 310.801056 175.212064 
L 314.149955 178.104778 
L 317.514475 181.010986 
L 320.894727 183.930782 
" style="fill:none;stroke:#808080;stroke-width:1.5;"/>
    <path clip-path="url(#p4573a4bef4)" d="M 237.488121 103.514054 
L 240.482707 106.082365 
L 243.490454 108.661963 
L 246.511447 111.252922 
L 249.545775 113.855318 
L 252.593527 116.469226 
L 255.65479 119.094723 
L 258.729656 121.731886 
L 261.818216 124.380794 
L 264.92056 127.041524 
L 268.036782 129.714156 
L 271.166975 132.39877 
L 274.311233 135.095447 
L 277.46965 137.804268 
L 280.642324 140.525316 
L 283.82935 143.258673 
L 287.030827 146.004424 
L 290.246852 148.762652 
L 293.477525 151.533444 
L 296.722947 154.316884 
L 299.983218 157.11306 
L 303.258441 159.92206 
L 306.548719 162.743972 
L 309.854156 165.578884 
L 313.174857 168.426888 
L 316.510928 171.288074 
L 319.862476 174.162533 
L 323.229608 177.050359 
L 326.612435 179.951645 
L 330.011065 182.866484 
" style="fill:none;stroke:#808080;stroke-width:1.5;"/>
    <path clip-path="url(#p4573a4bef4)" d="M 246.085658 102.582052 
L 249.096692 105.146274 
L 252.120947 107.721755 
L 255.158512 110.308571 
L 258.209473 112.906795 
L 261.27392 115.516504 
L 264.351943 118.137774 
L 267.443632 120.770682 
L 270.549077 123.415306 
L 273.668372 126.071724 
L 276.801609 128.740014 
L 279.948881 131.420258 
L 283.110284 134.112535 
L 286.285912 136.816927 
L 289.475862 139.533515 
L 292.680231 142.262383 
L 295.899117 145.003613 
L 299.132618 147.75729 
L 302.380835 150.523499 
L 305.643868 153.302325 
L 308.921819 156.093856 
L 312.214791 158.898178 
L 315.522886 161.71538 
L 318.846209 164.54555 
L 322.184866 167.388778 
L 325.538963 170.245156 
L 328.908608 173.114773 
L 332.293908 175.997723 
L 335.694973 178.894099 
L 339.111914 181.803995 
" style="fill:none;stroke:#808080;stroke-width:1.5;"/>
    <path clip-path="url(#p4573a4bef4)" d="M 254.669526 101.651533 
L 257.696951 104.211674 
L 260.737659 106.783049 
L 263.791737 109.36573 
L 266.859275 111.959793 
L 269.94036 114.565314 
L 273.035084 117.182367 
L 276.143537 119.81103 
L 279.26581 122.451381 
L 282.401996 125.103496 
L 285.552189 127.767457 
L 288.716481 130.443341 
L 291.894969 133.131228 
L 295.087747 135.831201 
L 298.294912 138.543341 
L 301.516562 141.267729 
L 304.752796 144.00445 
L 308.003711 146.753587 
L 311.26941 149.515225 
L 314.549992 152.289449 
L 317.845559 155.076346 
L 321.156215 157.876002 
L 324.482063 160.688506 
L 327.823209 163.513945 
L 331.179757 166.352411 
L 334.551815 169.203992 
L 337.939491 172.068779 
L 341.342892 174.946866 
L 344.76213 177.838345 
L 348.197315 180.743308 
" style="fill:none;stroke:#808080;stroke-width:1.5;"/>
    <path clip-path="url(#p4573a4bef4)" d="M 263.239757 100.722491 
L 266.283517 103.278563 
L 269.34062 105.84584 
L 272.411156 108.424398 
L 275.495213 111.014309 
L 278.59288 113.615651 
L 281.704247 116.228498 
L 284.829406 118.852926 
L 287.968449 121.489014 
L 291.121468 124.136838 
L 294.288556 126.796478 
L 297.469809 129.468013 
L 300.665321 132.151523 
L 303.875189 134.847088 
L 307.09951 137.554789 
L 310.33838 140.27471 
L 313.5919 143.006933 
L 316.860168 145.751541 
L 320.143286 148.508619 
L 323.441354 151.278252 
L 326.754475 154.060526 
L 330.082752 156.855528 
L 333.426289 159.663346 
L 336.785193 162.484067 
L 340.159568 165.31778 
L 343.549522 168.164577 
L 346.955163 171.024548 
L 350.3766 173.897783 
L 353.813944 176.784377 
L 357.267306 179.684421 
" style="fill:none;stroke:#808080;stroke-width:1.5;"/>
    <path clip-path="url(#p4573a4bef4)" d="M 271.796383 99.794924 
L 274.856422 102.346935 
L 277.929865 104.910126 
L 281.016802 107.484569 
L 284.117321 110.07034 
L 287.231512 112.667512 
L 290.359466 115.276163 
L 293.501273 117.896367 
L 296.657027 120.528202 
L 299.82682 123.171746 
L 303.010746 125.827076 
L 306.2089 128.494272 
L 309.421378 131.173414 
L 312.648275 133.864582 
L 315.88969 136.567857 
L 319.14572 139.28332 
L 322.416465 142.011056 
L 325.702024 144.751146 
L 329.002499 147.503676 
L 332.317991 150.268729 
L 335.648603 153.046392 
L 338.994438 155.836752 
L 342.355601 158.639895 
L 345.732199 161.455909 
L 349.124336 164.284883 
L 352.532121 167.126908 
L 355.955663 169.982073 
L 359.395071 172.85047 
L 362.850455 175.73219 
L 366.321927 178.627328 
" style="fill:none;stroke:#808080;stroke-width:1.5;"/>
    <path clip-path="url(#p4573a4bef4)" d="M 280.339436 98.868829 
L 283.415699 101.416789 
L 286.505427 103.975902 
L 289.608709 106.546241 
L 292.725633 109.12788 
L 295.856291 111.720894 
L 299.000774 114.325358 
L 302.159172 116.941348 
L 305.331579 119.568941 
L 308.518088 122.208214 
L 311.718793 124.859246 
L 314.933789 127.522114 
L 318.163172 130.196898 
L 321.40704 132.88368 
L 324.665489 135.582538 
L 327.938618 138.293556 
L 331.226527 141.016816 
L 334.529316 143.752399 
L 337.847086 146.500392 
L 341.17994 149.260877 
L 344.52798 152.033941 
L 347.891311 154.819669 
L 351.270037 157.618149 
L 354.664264 160.429468 
L 358.0741 163.253715 
L 361.499652 166.090979 
L 364.941029 168.941351 
L 368.398342 171.804921 
L 371.8717 174.681782 
L 375.361217 177.572025 
" style="fill:none;stroke:#808080;stroke-width:1.5;"/>
    <path clip-path="url(#p4573a4bef4)" d="M 288.868949 97.944201 
L 291.96138 100.48812 
L 295.067337 103.043166 
L 298.186908 105.60941 
L 301.320182 108.186928 
L 304.46725 110.775793 
L 307.628204 113.376081 
L 310.803136 115.987867 
L 313.992138 118.611228 
L 317.195305 121.246241 
L 320.41273 123.892983 
L 323.64451 126.551534 
L 326.89074 129.221972 
L 330.151518 131.904378 
L 333.426941 134.598831 
L 336.71711 137.305414 
L 340.022122 140.024208 
L 343.34208 142.755297 
L 346.677084 145.498763 
L 350.027237 148.254691 
L 353.392644 151.023167 
L 356.773407 153.804276 
L 360.169632 156.598104 
L 363.581427 159.40474 
L 367.008897 162.224271 
L 370.452152 165.056787 
L 373.9113 167.902378 
L 377.386452 170.761133 
L 380.877719 173.633146 
L 384.385214 176.518508 
" style="fill:none;stroke:#808080;stroke-width:1.5;"/>
    <path clip-path="url(#p4573a4bef4)" d="M 297.384954 97.021038 
L 300.493499 99.560926 
L 303.615629 102.111913 
L 306.751432 104.674073 
L 309.901 107.247479 
L 313.064423 109.832205 
L 316.241792 112.428327 
L 319.433199 115.035919 
L 322.63874 117.655058 
L 325.858506 120.285821 
L 329.092593 122.928285 
L 332.341098 125.582529 
L 335.604116 128.248631 
L 338.881744 130.926672 
L 342.174083 133.616731 
L 345.48123 136.318889 
L 348.803285 139.033229 
L 352.140351 141.759833 
L 355.492528 144.498785 
L 358.859919 147.250167 
L 362.24263 150.014066 
L 365.640763 152.790567 
L 369.054425 155.579756 
L 372.483723 158.38172 
L 375.928765 161.196548 
L 379.389658 164.024327 
L 382.866513 166.865148 
L 386.35944 169.719102 
L 389.868551 172.586279 
L 393.393959 175.466771 
" style="fill:none;stroke:#808080;stroke-width:1.5;"/>
    <path clip-path="url(#p4573a4bef4)" d="M 305.887483 96.099336 
L 309.012087 98.635201 
L 312.150334 101.18214 
L 315.302315 103.740225 
L 318.46812 106.309529 
L 321.647841 108.890127 
L 324.841568 111.482092 
L 328.049395 114.0855 
L 331.271416 116.700428 
L 334.507724 119.326951 
L 337.758416 121.965147 
L 341.023587 124.615095 
L 344.303333 127.276872 
L 347.597754 129.950558 
L 350.906948 132.636233 
L 354.231014 135.333978 
L 357.570052 138.043875 
L 360.924165 140.766006 
L 364.293454 143.500453 
L 367.678022 146.247302 
L 371.077975 149.006635 
L 374.493416 151.778539 
L 377.924453 154.5631 
L 381.371191 157.360404 
L 384.83374 160.17054 
L 388.312208 162.993595 
L 391.806705 165.829659 
L 395.317343 168.678822 
L 398.844233 171.541175 
L 402.387488 174.41681 
" style="fill:none;stroke:#808080;stroke-width:1.5;"/>
    <path clip-path="url(#p4573a4bef4)" d="M 314.376568 95.17909 
L 317.517176 97.710944 
L 320.671486 100.253844 
L 323.839589 102.807863 
L 327.021576 105.373076 
L 330.217538 107.949554 
L 333.427567 110.537373 
L 336.651757 113.136608 
L 339.890201 115.747334 
L 343.142994 118.369628 
L 346.410232 121.003566 
L 349.692011 123.649228 
L 352.988428 126.30669 
L 356.299582 128.976032 
L 359.625572 131.657334 
L 362.966497 134.350677 
L 366.322458 137.056142 
L 369.693557 139.77381 
L 373.079897 142.503765 
L 376.481582 145.24609 
L 379.898715 148.00087 
L 383.331403 150.768188 
L 386.779751 153.548132 
L 390.243868 156.340788 
L 393.723861 159.146243 
L 397.219841 161.964586 
L 400.731916 164.795904 
L 404.2602 167.640289 
L 407.804804 170.497831 
L 411.365841 173.368622 
" style="fill:none;stroke:#808080;stroke-width:1.5;"/>
    <path clip-path="url(#p4573a4bef4)" d="M 322.852242 94.260299 
L 326.008798 96.78815 
L 329.179116 99.327021 
L 332.363286 101.876985 
L 335.5614 104.438115 
L 338.773547 107.010484 
L 341.999822 109.594167 
L 345.240318 112.189238 
L 348.495129 114.795772 
L 351.764349 117.413847 
L 355.048076 120.043538 
L 358.346405 122.684924 
L 361.659435 125.338082 
L 364.987263 128.003091 
L 368.329989 130.680031 
L 371.687714 133.368982 
L 375.060538 136.070025 
L 378.448564 138.783242 
L 381.851895 141.508715 
L 385.270634 144.246528 
L 388.704887 146.996765 
L 392.154759 149.75951 
L 395.620358 152.534849 
L 399.10179 155.322868 
L 402.599165 158.123654 
L 406.112592 160.937296 
L 409.642183 163.763881 
L 413.188048 166.6035 
L 416.750301 169.456243 
L 420.329056 172.3222 
" style="fill:none;stroke:#808080;stroke-width:1.5;"/>
    <path clip-path="url(#p4573a4bef4)" d="M 331.314534 93.342958 
L 334.486986 95.866815 
L 337.673257 98.401667 
L 340.873439 100.947585 
L 344.087623 103.504643 
L 347.315901 106.072912 
L 350.558366 108.652469 
L 353.815112 111.243386 
L 357.086232 113.84574 
L 360.371823 116.459605 
L 363.671981 119.08506 
L 366.986803 121.72218 
L 370.316386 124.371044 
L 373.66083 127.03173 
L 377.020235 129.704318 
L 380.3947 132.388888 
L 383.784328 135.085521 
L 387.189221 137.794297 
L 390.609482 140.5153 
L 394.045215 143.248612 
L 397.496527 145.994317 
L 400.963522 148.7525 
L 404.446308 151.523245 
L 407.944994 154.306639 
L 411.459688 157.102768 
L 414.9905 159.91172 
L 418.537542 162.733584 
L 422.100925 165.568449 
L 425.680764 168.416404 
L 429.277172 171.277541 
" style="fill:none;stroke:#808080;stroke-width:1.5;"/>
    <path clip-path="url(#p4573a4bef4)" d="M 339.763478 92.427065 
L 342.951771 94.946938 
L 346.153941 97.477779 
L 349.37008 100.019661 
L 352.60028 102.572656 
L 355.844633 105.136836 
L 359.103232 107.712276 
L 362.376171 110.29905 
L 365.663545 112.897232 
L 368.965449 115.506899 
L 372.281981 118.128126 
L 375.613238 120.760991 
L 378.959318 123.405572 
L 382.320319 126.061946 
L 385.696343 128.730193 
L 389.08749 131.410393 
L 392.493863 134.102625 
L 395.915562 136.806972 
L 399.352694 139.523516 
L 402.805361 142.252338 
L 406.27367 144.993523 
L 409.757727 147.747154 
L 413.25764 150.513317 
L 416.773516 153.292097 
L 420.305467 156.08358 
L 423.853601 158.887855 
L 427.418032 161.70501 
L 430.99887 164.535132 
L 434.59623 167.378312 
L 438.210226 170.234641 
" style="fill:none;stroke:#808080;stroke-width:1.5;"/>
    <path clip-path="url(#p4573a4bef4)" d="M 348.199105 91.512615 
L 351.403185 94.028513 
L 354.6212 96.555354 
L 357.853241 99.093209 
L 361.099402 101.642151 
L 364.359774 104.202251 
L 367.634451 106.773585 
L 370.923528 109.356224 
L 374.227099 111.950246 
L 377.545261 114.555724 
L 380.87811 117.172734 
L 384.225744 119.801355 
L 387.588263 122.441662 
L 390.965764 125.093735 
L 394.358349 127.757651 
L 397.766119 130.433491 
L 401.189176 133.121335 
L 404.627624 135.821263 
L 408.081565 138.533358 
L 411.551106 141.257701 
L 415.036352 143.994377 
L 418.53741 146.743468 
L 422.054388 149.50506 
L 425.587394 152.279237 
L 429.136539 155.066087 
L 432.701933 157.865697 
L 436.283689 160.678153 
L 439.881918 163.503545 
L 443.496736 166.341962 
L 447.128256 169.193495 
" style="fill:none;stroke:#808080;stroke-width:1.5;"/>
    <path clip-path="url(#p4573a4bef4)" d="M 356.621447 90.599605 
L 359.841259 93.111538 
L 363.075065 95.634388 
L 366.322955 98.168226 
L 369.585022 100.713124 
L 372.861358 103.269155 
L 376.152058 105.836391 
L 379.457217 108.414907 
L 382.776929 111.004777 
L 386.111291 113.606076 
L 389.460401 116.218881 
L 392.824356 118.843267 
L 396.203255 121.479311 
L 399.597199 124.127093 
L 403.006287 126.786689 
L 406.430621 129.45818 
L 409.870305 132.141645 
L 413.32544 134.837166 
L 416.796133 137.544823 
L 420.282487 140.264698 
L 423.78461 142.996876 
L 427.302608 145.741438 
L 430.836589 148.49847 
L 434.386664 151.268057 
L 437.952941 154.050285 
L 441.535533 156.84524 
L 445.134551 159.65301 
L 448.750109 162.473684 
L 452.38232 165.30735 
L 456.031301 168.154098 
" style="fill:none;stroke:#808080;stroke-width:1.5;"/>
    <path clip-path="url(#p4573a4bef4)" d="M 365.030534 89.688032 
L 368.266026 92.196009 
L 371.515568 94.714878 
L 374.779252 97.244708 
L 378.057171 99.785572 
L 381.349417 102.337543 
L 384.656085 104.900692 
L 387.97727 107.475094 
L 391.313067 110.060822 
L 394.663574 112.657953 
L 398.028888 115.266561 
L 401.409106 117.886723 
L 404.804329 120.518515 
L 408.214657 123.162016 
L 411.64019 125.817303 
L 415.081031 128.484455 
L 418.537282 131.163553 
L 422.009047 133.854676 
L 425.49643 136.557906 
L 428.999539 139.273325 
L 432.518478 142.001015 
L 436.053355 144.74106 
L 439.60428 147.493544 
L 443.171361 150.258551 
L 446.75471 153.036168 
L 450.354437 155.826481 
L 453.970655 158.629576 
L 457.603478 161.445543 
L 461.25302 164.27447 
L 464.919398 167.116446 
" style="fill:none;stroke:#808080;stroke-width:1.5;"/>
    <path clip-path="url(#p4573a4bef4)" d="M 373.426398 88.777892 
L 376.677516 91.281923 
L 379.942741 93.79682 
L 383.222165 96.322652 
L 386.515881 98.859492 
L 389.823983 101.407411 
L 393.146563 103.966483 
L 396.483719 106.536781 
L 399.835547 109.118378 
L 403.202142 111.71135 
L 406.583603 114.315772 
L 409.980029 116.93172 
L 413.391519 119.55927 
L 416.818173 122.1985 
L 420.260094 124.849488 
L 423.717382 127.512312 
L 427.190142 130.187053 
L 430.678478 132.87379 
L 434.182494 135.572605 
L 437.702296 138.283578 
L 441.237992 141.006792 
L 444.789689 143.74233 
L 448.357496 146.490277 
L 451.941523 149.250716 
L 455.541881 152.023733 
L 459.158681 154.809415 
L 462.792038 157.607848 
L 466.442063 160.41912 
L 470.108873 163.243319 
L 473.792584 166.080535 
" style="fill:none;stroke:#808080;stroke-width:1.5;"/>
    <path clip-path="url(#p4573a4bef4)" d="M 124.461162 115.766553 
L 133.23942 114.81496 
L 142.003575 113.864897 
L 150.753661 112.916358 
L 159.489712 111.969341 
L 168.211762 111.023842 
L 176.919843 110.079857 
L 185.613991 109.137383 
L 194.294237 108.196415 
L 202.960617 107.256951 
L 211.613162 106.318986 
L 220.251905 105.382517 
L 228.876881 104.447541 
L 237.488121 103.514054 
L 246.085658 102.582052 
L 254.669526 101.651533 
L 263.239757 100.722491 
L 271.796383 99.794924 
L 280.339436 98.868829 
L 288.868949 97.944201 
L 297.384954 97.021038 
L 305.887483 96.099336 
L 314.376568 95.17909 
L 322.852242 94.260299 
L 331.314534 93.342958 
L 339.763478 92.427065 
L 348.199105 91.512615 
L 356.621447 90.599605 
L 365.030534 89.688032 
L 373.426398 88.777892 
" style="fill:none;stroke:#808080;stroke-width:1.5;"/>
    <path clip-path="url(#p4573a4bef4)" d="M 127.236733 118.388932 
L 136.032187 117.43312 
L 144.813479 116.478847 
L 153.580643 115.52611 
L 162.333714 114.574904 
L 171.072725 113.625226 
L 179.797711 112.677072 
L 188.508704 111.730438 
L 197.205739 110.785322 
L 205.888849 109.841719 
L 214.558068 108.899625 
L 223.213428 107.959037 
L 231.854964 107.019952 
L 240.482707 106.082365 
L 249.096692 105.146274 
L 257.696951 104.211674 
L 266.283517 103.278563 
L 274.856422 102.346935 
L 283.415699 101.416789 
L 291.96138 100.48812 
L 300.493499 99.560926 
L 309.012087 98.635201 
L 317.517176 97.710944 
L 326.008798 96.78815 
L 334.486986 95.866815 
L 342.951771 94.946938 
L 351.403185 94.028513 
L 359.841259 93.111538 
L 368.266026 92.196009 
L 376.677516 91.281923 
" style="fill:none;stroke:#808080;stroke-width:1.5;"/>
    <path clip-path="url(#p4573a4bef4)" d="M 130.024629 121.022956 
L 138.837346 120.062897 
L 147.635841 119.104387 
L 156.420149 118.147422 
L 165.190305 117.192 
L 173.946343 116.238115 
L 182.688296 115.285764 
L 191.4162 114.334945 
L 200.130087 113.385652 
L 208.829991 112.437882 
L 217.515947 111.491632 
L 226.187987 110.546898 
L 234.846145 109.603676 
L 243.490454 108.661963 
L 252.120947 107.721755 
L 260.737659 106.783049 
L 269.34062 105.84584 
L 277.929865 104.910126 
L 286.505427 103.975902 
L 295.067337 103.043166 
L 303.615629 102.111913 
L 312.150334 101.18214 
L 320.671486 100.253844 
L 329.179116 99.327021 
L 337.673257 98.401667 
L 346.153941 97.477779 
L 354.6212 96.555354 
L 363.075065 95.634388 
L 371.515568 94.714878 
L 379.942741 93.79682 
" style="fill:none;stroke:#808080;stroke-width:1.5;"/>
    <path clip-path="url(#p4573a4bef4)" d="M 132.824934 123.668704 
L 141.654979 122.704369 
L 150.470743 121.741593 
L 159.272262 120.780373 
L 168.059569 119.820706 
L 176.832698 118.862586 
L 185.591685 117.906011 
L 194.336563 116.950977 
L 203.067366 115.99748 
L 211.784129 115.045517 
L 220.486884 114.095083 
L 229.175667 113.146175 
L 237.85051 112.198789 
L 246.511447 111.252922 
L 255.158512 110.308571 
L 263.791737 109.36573 
L 272.411156 108.424398 
L 281.016802 107.484569 
L 289.608709 106.546241 
L 298.186908 105.60941 
L 306.751432 104.674073 
L 315.302315 103.740225 
L 323.839589 102.807863 
L 332.363286 101.876985 
L 340.873439 100.947585 
L 349.37008 100.019661 
L 357.853241 99.093209 
L 366.322955 98.168226 
L 374.779252 97.244708 
L 383.222165 96.322652 
" style="fill:none;stroke:#808080;stroke-width:1.5;"/>
    <path clip-path="url(#p4573a4bef4)" d="M 135.637729 126.326253 
L 144.48517 125.357613 
L 153.318271 124.390544 
L 162.137066 123.42504 
L 170.941589 122.461099 
L 179.731876 121.498717 
L 188.507961 120.537889 
L 197.269879 119.578613 
L 206.017663 118.620884 
L 214.751348 117.664698 
L 223.470968 116.710053 
L 232.176556 115.756943 
L 240.868148 114.805366 
L 249.545775 113.855318 
L 258.209473 112.906795 
L 266.859275 111.959793 
L 275.495213 111.014309 
L 284.117321 110.07034 
L 292.725633 109.12788 
L 301.320182 108.186928 
L 309.901 107.247479 
L 318.46812 106.309529 
L 327.021576 105.373076 
L 335.5614 104.438115 
L 344.087623 103.504643 
L 352.60028 102.572656 
L 361.099402 101.642151 
L 369.585022 100.713124 
L 378.057171 99.785572 
L 386.515881 98.859492 
" style="fill:none;stroke:#808080;stroke-width:1.5;"/>
    <path clip-path="url(#p4573a4bef4)" d="M 138.463099 128.995683 
L 147.328004 128.02271 
L 156.178508 127.051317 
L 165.014645 126.081501 
L 173.836452 125.113258 
L 182.643963 124.146585 
L 191.437212 123.181476 
L 200.216234 122.217929 
L 208.981064 121.255939 
L 217.731735 120.295504 
L 226.468284 119.336619 
L 235.190742 118.37928 
L 243.899145 117.423483 
L 252.593527 116.469226 
L 261.27392 115.516504 
L 269.94036 114.565314 
L 278.59288 113.615651 
L 287.231512 112.667512 
L 295.856291 111.720894 
L 304.46725 110.775793 
L 313.064423 109.832205 
L 321.647841 108.890127 
L 330.217538 107.949554 
L 338.773547 107.010484 
L 347.315901 106.072912 
L 355.844633 105.136836 
L 364.359774 104.202251 
L 372.861358 103.269155 
L 381.349417 102.337543 
L 389.823983 101.407411 
" style="fill:none;stroke:#808080;stroke-width:1.5;"/>
    <path clip-path="url(#p4573a4bef4)" d="M 141.301128 131.677073 
L 150.183565 130.699738 
L 159.051539 129.723993 
L 167.905087 128.749836 
L 176.744244 127.777262 
L 185.569044 126.806268 
L 194.379523 125.83685 
L 203.175715 124.869003 
L 211.957656 123.902725 
L 220.72538 122.938011 
L 229.478921 121.974858 
L 238.218313 121.013261 
L 246.943592 120.053218 
L 255.65479 119.094723 
L 264.351943 118.137774 
L 273.035084 117.182367 
L 281.704247 116.228498 
L 290.359466 115.276163 
L 299.000774 114.325358 
L 307.628204 113.376081 
L 316.241792 112.428327 
L 324.841568 111.482092 
L 333.427567 110.537373 
L 341.999822 109.594167 
L 350.558366 108.652469 
L 359.103232 107.712276 
L 367.634451 106.773585 
L 376.152058 105.836391 
L 384.656085 104.900692 
L 393.146563 103.966483 
" style="fill:none;stroke:#808080;stroke-width:1.5;"/>
    <path clip-path="url(#p4573a4bef4)" d="M 144.151902 134.370505 
L 153.051938 133.388777 
L 161.937451 132.408651 
L 170.808477 131.430124 
L 179.66505 130.45319 
L 188.507207 129.477847 
L 197.334983 128.50409 
L 206.148411 127.531915 
L 214.947529 126.56132 
L 223.732369 125.592299 
L 232.502968 124.624849 
L 241.259359 123.658966 
L 250.001577 122.694646 
L 258.729656 121.731886 
L 267.443632 120.770682 
L 276.143537 119.81103 
L 284.829406 118.852926 
L 293.501273 117.896367 
L 302.159172 116.941348 
L 310.803136 115.987867 
L 319.433199 115.035919 
L 328.049395 114.0855 
L 336.651757 113.136608 
L 345.240318 112.189238 
L 353.815112 111.243386 
L 362.376171 110.29905 
L 370.923528 109.356224 
L 379.457217 108.414907 
L 387.97727 107.475094 
L 396.483719 106.536781 
" style="fill:none;stroke:#808080;stroke-width:1.5;"/>
    <path clip-path="url(#p4573a4bef4)" d="M 147.015506 137.076059 
L 155.933211 136.089909 
L 164.836331 135.105373 
L 173.724902 134.122445 
L 182.59896 133.141122 
L 191.45854 132.1614 
L 200.303679 131.183276 
L 209.13441 130.206744 
L 217.95077 129.231802 
L 226.752793 128.258445 
L 235.540514 127.286669 
L 244.313969 126.316471 
L 253.073191 125.347847 
L 261.818216 124.380794 
L 270.549077 123.415306 
L 279.26581 122.451381 
L 287.968449 121.489014 
L 296.657027 120.528202 
L 305.331579 119.568941 
L 313.992138 118.611228 
L 322.63874 117.655058 
L 331.271416 116.700428 
L 339.890201 115.747334 
L 348.495129 114.795772 
L 357.086232 113.84574 
L 365.663545 112.897232 
L 374.227099 111.950246 
L 382.776929 111.004777 
L 391.313067 110.060822 
L 399.835547 109.118378 
" style="fill:none;stroke:#808080;stroke-width:1.5;"/>
    <path clip-path="url(#p4573a4bef4)" d="M 149.892028 139.793817 
L 158.82747 138.803216 
L 167.748265 137.814239 
L 176.65445 136.826881 
L 185.546061 135.84114 
L 194.423132 134.85701 
L 203.285701 133.874488 
L 212.133802 132.893569 
L 220.96747 131.914251 
L 229.786742 130.936529 
L 238.591652 129.960399 
L 247.382235 128.985857 
L 256.158526 128.0129 
L 264.92056 127.041524 
L 273.668372 126.071724 
L 282.401996 125.103496 
L 291.121468 124.136838 
L 299.82682 123.171746 
L 308.518088 122.208214 
L 317.195305 121.246241 
L 325.858506 120.285821 
L 334.507724 119.326951 
L 343.142994 118.369628 
L 351.764349 117.413847 
L 360.371823 116.459605 
L 368.965449 115.506899 
L 377.545261 114.555724 
L 386.111291 113.606076 
L 394.663574 112.657953 
L 403.202142 111.71135 
" style="fill:none;stroke:#808080;stroke-width:1.5;"/>
    <path clip-path="url(#p4573a4bef4)" d="M 152.781555 142.523863 
L 161.734803 141.52878 
L 170.673343 140.535332 
L 179.597211 139.543515 
L 188.506442 138.553324 
L 197.401073 137.564756 
L 206.281139 136.577807 
L 215.146676 135.592473 
L 223.99772 134.608749 
L 232.834307 133.626632 
L 241.656471 132.646119 
L 250.464248 131.667204 
L 259.257674 130.689884 
L 268.036782 129.714156 
L 276.801609 128.740014 
L 285.552189 127.767457 
L 294.288556 126.796478 
L 303.010746 125.827076 
L 311.718793 124.859246 
L 320.41273 123.892983 
L 329.092593 122.928285 
L 337.758416 121.965147 
L 346.410232 121.003566 
L 355.048076 120.043538 
L 363.671981 119.08506 
L 372.281981 118.128126 
L 380.87811 117.172734 
L 389.460401 116.218881 
L 398.028888 115.266561 
L 406.583603 114.315772 
" style="fill:none;stroke:#808080;stroke-width:1.5;"/>
    <path clip-path="url(#p4573a4bef4)" d="M 155.684175 145.266279 
L 164.6553 144.266684 
L 173.611654 143.268735 
L 182.553273 142.272427 
L 191.480193 141.277758 
L 200.392451 140.284722 
L 209.290083 139.293316 
L 218.173124 138.303535 
L 227.041611 137.315377 
L 235.895579 136.328836 
L 244.735064 135.343908 
L 253.560102 134.360591 
L 262.370727 133.378879 
L 271.166975 132.39877 
L 279.948881 131.420258 
L 288.716481 130.443341 
L 297.469809 129.468013 
L 306.2089 128.494272 
L 314.933789 127.522114 
L 323.64451 126.551534 
L 332.341098 125.582529 
L 341.023587 124.615095 
L 349.692011 123.649228 
L 358.346405 122.684924 
L 366.986803 121.72218 
L 375.613238 120.760991 
L 384.225744 119.801355 
L 392.824356 118.843267 
L 401.409106 117.886723 
L 409.980029 116.93172 
" style="fill:none;stroke:#808080;stroke-width:1.5;"/>
    <path clip-path="url(#p4573a4bef4)" d="M 158.599977 148.02115 
L 167.58905 147.017012 
L 176.563287 146.014531 
L 185.522727 145.013703 
L 194.467406 144.014524 
L 203.39736 143.01699 
L 212.312625 142.021096 
L 221.213238 141.02684 
L 230.099235 140.034216 
L 238.970652 139.04322 
L 247.827525 138.05385 
L 256.669888 137.0661 
L 265.497779 136.079967 
L 274.311233 135.095447 
L 283.110284 134.112535 
L 291.894969 133.131228 
L 300.665321 132.151523 
L 309.421378 131.173414 
L 318.163172 130.196898 
L 326.89074 129.221972 
L 335.604116 128.248631 
L 344.303333 127.276872 
L 352.988428 126.30669 
L 361.659435 125.338082 
L 370.316386 124.371044 
L 378.959318 123.405572 
L 387.588263 122.441662 
L 396.203255 121.479311 
L 404.804329 120.518515 
L 413.391519 119.55927 
" style="fill:none;stroke:#808080;stroke-width:1.5;"/>
    <path clip-path="url(#p4573a4bef4)" d="M 161.529052 150.788561 
L 170.536142 149.779849 
L 179.528334 148.772805 
L 188.505665 147.767426 
L 197.468171 146.763707 
L 206.41589 145.761643 
L 215.348858 144.761232 
L 224.267111 143.762469 
L 233.170686 142.765349 
L 242.059619 141.76987 
L 250.933946 140.776026 
L 259.793703 139.783813 
L 268.638926 138.793229 
L 277.46965 137.804268 
L 286.285912 136.816927 
L 295.087747 135.831201 
L 303.875189 134.847088 
L 312.648275 133.864582 
L 321.40704 132.88368 
L 330.151518 131.904378 
L 338.881744 130.926672 
L 347.597754 129.950558 
L 356.299582 128.976032 
L 364.987263 128.003091 
L 373.66083 127.03173 
L 382.320319 126.061946 
L 390.965764 125.093735 
L 399.597199 124.127093 
L 408.214657 123.162016 
L 416.818173 122.1985 
" style="fill:none;stroke:#808080;stroke-width:1.5;"/>
    <path clip-path="url(#p4573a4bef4)" d="M 164.471491 153.568598 
L 173.496669 152.555281 
L 182.506886 151.543643 
L 191.502178 150.533681 
L 200.482582 149.525391 
L 209.448135 148.518767 
L 218.398874 147.513808 
L 227.334836 146.510507 
L 236.256057 145.508861 
L 245.162574 144.508867 
L 254.054423 143.510519 
L 262.931641 142.513814 
L 271.794262 141.518747 
L 280.642324 140.525316 
L 289.475862 139.533515 
L 298.294912 138.543341 
L 307.09951 137.554789 
L 315.88969 136.567857 
L 324.665489 135.582538 
L 333.426941 134.598831 
L 342.174083 133.616731 
L 350.906948 132.636233 
L 359.625572 131.657334 
L 368.329989 130.680031 
L 377.020235 129.704318 
L 385.696343 128.730193 
L 394.358349 127.757651 
L 403.006287 126.786689 
L 411.64019 125.817303 
L 420.260094 124.849488 
" style="fill:none;stroke:#808080;stroke-width:1.5;"/>
    <path clip-path="url(#p4573a4bef4)" d="M 167.427385 156.361348 
L 176.470723 155.343393 
L 185.499035 154.32713 
L 194.512359 153.312554 
L 203.51073 152.299661 
L 212.494188 151.288447 
L 221.462768 150.278907 
L 230.416508 149.271038 
L 239.355444 148.264836 
L 248.279613 147.260295 
L 257.189052 146.257413 
L 266.083797 145.256184 
L 274.963884 144.256606 
L 283.82935 143.258673 
L 292.680231 142.262383 
L 301.516562 141.267729 
L 310.33838 140.27471 
L 319.14572 139.28332 
L 327.938618 138.293556 
L 336.71711 137.305414 
L 345.48123 136.318889 
L 354.231014 135.333978 
L 362.966497 134.350677 
L 371.687714 133.368982 
L 380.3947 132.388888 
L 389.08749 131.410393 
L 397.766119 130.433491 
L 406.430621 129.45818 
L 415.081031 128.484455 
L 423.717382 127.512312 
" style="fill:none;stroke:#808080;stroke-width:1.5;"/>
    <path clip-path="url(#p4573a4bef4)" d="M 170.396826 159.166897 
L 179.458396 158.144274 
L 188.504876 157.123353 
L 197.536302 156.104132 
L 206.552712 155.086604 
L 215.554144 154.070768 
L 224.540635 153.056617 
L 233.512222 152.044148 
L 242.468942 151.033357 
L 251.410832 150.02424 
L 260.337929 149.016792 
L 269.250269 148.01101 
L 278.14789 147.006888 
L 287.030827 146.004424 
L 295.899117 145.003613 
L 304.752796 144.00445 
L 313.5919 143.006933 
L 322.416465 142.011056 
L 331.226527 141.016816 
L 340.022122 140.024208 
L 348.803285 139.033229 
L 357.570052 138.043875 
L 366.322458 137.056142 
L 375.060538 136.070025 
L 383.784328 135.085521 
L 392.493863 134.102625 
L 401.189176 133.121335 
L 409.870305 132.141645 
L 418.537282 131.163553 
L 427.190142 130.187053 
" style="fill:none;stroke:#808080;stroke-width:1.5;"/>
    <path clip-path="url(#p4573a4bef4)" d="M 173.379908 161.985335 
L 182.459783 160.95801 
L 191.524501 159.9324 
L 200.574101 158.908501 
L 209.608621 157.886308 
L 218.628098 156.865817 
L 227.63257 155.847023 
L 236.622074 154.829923 
L 245.596647 153.814513 
L 254.556327 152.800787 
L 263.50115 151.788743 
L 272.431155 150.778375 
L 281.346376 149.769679 
L 290.246852 148.762652 
L 299.132618 147.75729 
L 308.003711 146.753587 
L 316.860168 145.751541 
L 325.702024 144.751146 
L 334.529316 143.752399 
L 343.34208 142.755297 
L 352.140351 141.759833 
L 360.924165 140.766006 
L 369.693557 139.77381 
L 378.448564 138.783242 
L 387.189221 137.794297 
L 395.915562 136.806972 
L 404.627624 135.821263 
L 413.32544 134.837166 
L 422.009047 133.854676 
L 430.678478 132.87379 
" style="fill:none;stroke:#808080;stroke-width:1.5;"/>
    <path clip-path="url(#p4573a4bef4)" d="M 176.376725 164.816749 
L 185.474977 163.784691 
L 194.558007 162.754359 
L 203.625853 161.72575 
L 212.678554 160.698859 
L 221.716147 159.673681 
L 230.73867 158.650213 
L 239.746161 157.62845 
L 248.738657 156.608388 
L 257.716197 155.590023 
L 266.678816 154.57335 
L 275.626552 153.558365 
L 284.559443 152.545065 
L 293.477525 151.533444 
L 302.380835 150.523499 
L 311.26941 149.515225 
L 320.143286 148.508619 
L 329.002499 147.503676 
L 337.847086 146.500392 
L 346.677084 145.498763 
L 355.492528 144.498785 
L 364.293454 143.500453 
L 373.079897 142.503765 
L 381.851895 141.508715 
L 390.609482 140.5153 
L 399.352694 139.523516 
L 408.081565 138.533358 
L 416.796133 137.544823 
L 425.49643 136.557906 
L 434.182494 135.572605 
" style="fill:none;stroke:#808080;stroke-width:1.5;"/>
    <path clip-path="url(#p4573a4bef4)" d="M 179.387373 167.66123 
L 188.504074 166.624406 
L 197.605488 165.58932 
L 206.691653 164.555968 
L 215.762606 163.524346 
L 224.818387 162.49445 
L 233.859033 161.466275 
L 242.884582 160.439817 
L 251.895071 159.415071 
L 260.89054 158.392034 
L 269.871024 157.370701 
L 278.836562 156.351068 
L 287.78719 155.33313 
L 296.722947 154.316884 
L 305.643868 153.302325 
L 314.549992 152.289449 
L 323.441354 151.278252 
L 332.317991 150.268729 
L 341.17994 149.260877 
L 350.027237 148.254691 
L 358.859919 147.250167 
L 367.678022 146.247302 
L 376.481582 145.24609 
L 385.270634 144.246528 
L 394.045215 143.248612 
L 402.805361 142.252338 
L 411.551106 141.257701 
L 420.282487 140.264698 
L 428.999539 139.273325 
L 437.702296 138.283578 
" style="fill:none;stroke:#808080;stroke-width:1.5;"/>
    <path clip-path="url(#p4573a4bef4)" d="M 182.411946 170.518869 
L 191.547172 169.477245 
L 200.667043 168.437372 
L 209.771598 167.399244 
L 218.860877 166.362859 
L 227.934917 165.328212 
L 236.993757 164.295297 
L 246.037434 163.264111 
L 255.065988 162.23465 
L 264.079456 161.206909 
L 273.077875 160.180884 
L 282.061283 159.15657 
L 291.029719 158.133964 
L 299.983218 157.11306 
L 308.921819 156.093856 
L 317.845559 155.076346 
L 326.754475 154.060526 
L 335.648603 153.046392 
L 344.52798 152.033941 
L 353.392644 151.023167 
L 362.24263 150.014066 
L 371.077975 149.006635 
L 379.898715 148.00087 
L 388.704887 146.996765 
L 397.496527 145.994317 
L 406.27367 144.993523 
L 415.036352 143.994377 
L 423.78461 142.996876 
L 432.518478 142.001015 
L 441.237992 141.006792 
" style="fill:none;stroke:#808080;stroke-width:1.5;"/>
    <path clip-path="url(#p4573a4bef4)" d="M 185.450543 173.389757 
L 194.604366 172.3433 
L 203.742768 171.298606 
L 212.865787 170.25567 
L 221.973464 169.214489 
L 231.065835 168.175056 
L 240.142941 167.13737 
L 249.204819 166.101424 
L 258.251508 165.067214 
L 267.283045 164.034736 
L 276.299469 163.003987 
L 285.300818 161.97496 
L 294.28713 160.947653 
L 303.258441 159.92206 
L 312.214791 158.898178 
L 321.156215 157.876002 
L 330.082752 156.855528 
L 338.994438 155.836752 
L 347.891311 154.819669 
L 356.773407 153.804276 
L 365.640763 152.790567 
L 374.493416 151.778539 
L 383.331403 150.768188 
L 392.154759 149.75951 
L 400.963522 148.7525 
L 409.757727 147.747154 
L 418.53741 146.743468 
L 427.302608 145.741438 
L 436.053355 144.74106 
L 444.789689 143.74233 
" style="fill:none;stroke:#808080;stroke-width:1.5;"/>
    <path clip-path="url(#p4573a4bef4)" d="M 188.50326 176.273987 
L 197.675755 175.222663 
L 206.832762 174.173114 
L 215.974319 173.125337 
L 225.100466 172.079325 
L 234.211243 171.035075 
L 243.306686 169.992583 
L 252.386837 168.951844 
L 261.451732 167.912853 
L 270.50141 166.875606 
L 279.53591 165.840099 
L 288.555269 164.806327 
L 297.559527 163.774286 
L 306.548719 162.743972 
L 315.522886 161.71538 
L 324.482063 160.688506 
L 333.426289 159.663346 
L 342.355601 158.639895 
L 351.270037 157.618149 
L 360.169632 156.598104 
L 369.054425 155.579756 
L 377.924453 154.5631 
L 386.779751 153.548132 
L 395.620358 152.534849 
L 404.446308 151.523245 
L 413.25764 150.513317 
L 422.054388 149.50506 
L 430.836589 148.49847 
L 439.60428 147.493544 
L 448.357496 146.490277 
" style="fill:none;stroke:#808080;stroke-width:1.5;"/>
    <path clip-path="url(#p4573a4bef4)" d="M 191.570197 179.171651 
L 200.761439 178.115426 
L 209.937125 177.060989 
L 219.097294 176.008336 
L 228.241985 174.957461 
L 237.371239 173.90836 
L 246.485094 172.861029 
L 255.583588 171.815462 
L 264.666761 170.771657 
L 273.734652 169.729608 
L 282.787298 168.68931 
L 291.824739 167.65076 
L 300.847012 166.613953 
L 309.854156 165.578884 
L 318.846209 164.54555 
L 327.823209 163.513945 
L 336.785193 162.484067 
L 345.732199 161.455909 
L 354.664264 160.429468 
L 363.581427 159.40474 
L 372.483723 158.38172 
L 381.371191 157.360404 
L 390.243868 156.340788 
L 399.10179 155.322868 
L 407.944994 154.306639 
L 416.773516 153.292097 
L 425.587394 152.279237 
L 434.386664 151.268057 
L 443.171361 150.258551 
L 451.941523 149.250716 
" style="fill:none;stroke:#808080;stroke-width:1.5;"/>
    <path clip-path="url(#p4573a4bef4)" d="M 194.651453 182.082843 
L 203.861517 181.021684 
L 213.055957 179.962325 
L 222.234812 178.904761 
L 231.398122 177.848989 
L 240.545927 176.795003 
L 249.678265 175.742799 
L 258.795177 174.692372 
L 267.8967 173.643718 
L 276.982875 172.596833 
L 286.053739 171.551712 
L 295.109332 170.50835 
L 304.149692 169.466744 
L 313.174857 168.426888 
L 322.184866 167.388778 
L 331.179757 166.352411 
L 340.159568 165.31778 
L 349.124336 164.284883 
L 358.0741 163.253715 
L 367.008897 162.224271 
L 375.928765 161.196548 
L 384.83374 160.17054 
L 393.723861 159.146243 
L 402.599165 158.123654 
L 411.459688 157.102768 
L 420.305467 156.08358 
L 429.136539 155.066087 
L 437.952941 154.050285 
L 446.75471 153.036168 
L 455.541881 152.023733 
" style="fill:none;stroke:#808080;stroke-width:1.5;"/>
    <path clip-path="url(#p4573a4bef4)" d="M 197.747129 185.00766 
L 206.97609 183.941531 
L 216.189359 182.877214 
L 225.386975 181.814706 
L 234.568978 180.754002 
L 243.735408 179.695097 
L 252.886304 178.637986 
L 262.021706 177.582665 
L 271.141652 176.529129 
L 280.246183 175.477374 
L 289.335337 174.427396 
L 298.409154 173.379189 
L 307.467671 172.33275 
L 316.510928 171.288074 
L 325.538963 170.245156 
L 334.551815 169.203992 
L 343.549522 168.164577 
L 352.532121 167.126908 
L 361.499652 166.090979 
L 370.452152 165.056787 
L 379.389658 164.024327 
L 388.312208 162.993595 
L 397.219841 161.964586 
L 406.112592 160.937296 
L 414.9905 159.91172 
L 423.853601 158.887855 
L 432.701933 157.865697 
L 441.535533 156.84524 
L 450.354437 155.826481 
L 459.158681 154.809415 
" style="fill:none;stroke:#808080;stroke-width:1.5;"/>
    <path clip-path="url(#p4573a4bef4)" d="M 200.857325 187.946196 
L 210.105261 186.875062 
L 219.337435 185.805754 
L 228.553887 184.738267 
L 237.754658 183.672596 
L 246.939787 182.608737 
L 256.109314 181.546685 
L 265.263279 180.486435 
L 274.401722 179.427983 
L 283.524682 178.371325 
L 292.632198 177.316455 
L 301.72431 176.26337 
L 310.801056 175.212064 
L 319.862476 174.162533 
L 328.908608 173.114773 
L 337.939491 172.068779 
L 346.955163 171.024548 
L 355.955663 169.982073 
L 364.941029 168.941351 
L 373.9113 167.902378 
L 382.866513 166.865148 
L 391.806705 165.829659 
L 400.731916 164.795904 
L 409.642183 163.763881 
L 418.537542 162.733584 
L 427.418032 161.70501 
L 436.283689 160.678153 
L 445.134551 159.65301 
L 453.970655 158.629576 
L 462.792038 157.607848 
" style="fill:none;stroke:#808080;stroke-width:1.5;"/>
    <path clip-path="url(#p4573a4bef4)" d="M 203.982145 190.898548 
L 213.249132 189.822374 
L 222.500287 188.748039 
L 231.735651 187.675538 
L 240.955264 186.604865 
L 250.159168 185.536017 
L 259.347401 184.468989 
L 268.520004 183.403777 
L 277.677016 182.340374 
L 286.818478 181.278778 
L 295.944429 180.218982 
L 305.054908 179.160984 
L 314.149955 178.104778 
L 323.229608 177.050359 
L 332.293908 175.997723 
L 341.342892 174.946866 
L 350.3766 173.897783 
L 359.395071 172.85047 
L 368.398342 171.804921 
L 377.386452 170.761133 
L 386.35944 169.719102 
L 395.317343 168.678822 
L 404.2602 167.640289 
L 413.188048 166.6035 
L 422.100925 165.568449 
L 430.99887 164.535132 
L 439.881918 163.503545 
L 448.750109 162.473684 
L 457.603478 161.445543 
L 466.442063 160.41912 
" style="fill:none;stroke:#808080;stroke-width:1.5;"/>
    <path clip-path="url(#p4573a4bef4)" d="M 207.121691 193.864814 
L 216.407806 192.783565 
L 225.678019 191.704167 
L 234.932371 190.626616 
L 244.170903 189.550907 
L 253.393656 188.477035 
L 262.60067 187.404996 
L 271.791985 186.334785 
L 280.967641 185.266397 
L 290.127678 184.199828 
L 299.272136 183.135073 
L 308.401056 182.072127 
L 317.514475 181.010986 
L 326.612435 179.951645 
L 335.694973 178.894099 
L 344.76213 177.838345 
L 353.813944 176.784377 
L 362.850455 175.73219 
L 371.8717 174.681782 
L 380.877719 173.633146 
L 389.868551 172.586279 
L 398.844233 171.541175 
L 407.804804 170.497831 
L 416.750301 169.456243 
L 425.680764 168.416404 
L 434.59623 167.378312 
L 443.496736 166.341962 
L 452.38232 165.30735 
L 461.25302 164.27447 
L 470.108873 163.243319 
" style="fill:none;stroke:#808080;stroke-width:1.5;"/>
    <path clip-path="url(#p4573a4bef4)" d="M 210.276069 196.845093 
L 219.581389 195.758732 
L 228.870737 194.674235 
L 238.144154 193.591599 
L 247.401681 192.510818 
L 256.643359 191.431887 
L 265.869228 190.354801 
L 275.07933 189.279557 
L 284.273704 188.206148 
L 293.452391 187.134571 
L 302.61543 186.064821 
L 311.762862 184.996893 
L 320.894727 183.930782 
L 330.011065 182.866484 
L 339.111914 181.803995 
L 348.197315 180.743308 
L 357.267306 179.684421 
L 366.321927 178.627328 
L 375.361217 177.572025 
L 384.385214 176.518508 
L 393.393959 175.466771 
L 402.387488 174.41681 
L 411.365841 173.368622 
L 420.329056 172.3222 
L 429.277172 171.277541 
L 438.210226 170.234641 
L 447.128256 169.193495 
L 456.031301 168.154098 
L 464.919398 167.116446 
L 473.792584 166.080535 
" style="fill:none;stroke:#808080;stroke-width:1.5;"/>
   </g>
   <g id="text_21">
    <!-- 2D reference plane -->
    <defs>
     <path d="M 19.671875 64.796875 
L 19.671875 8.109375 
L 31.59375 8.109375 
Q 46.6875 8.109375 53.6875 14.9375 
Q 60.6875 21.78125 60.6875 36.53125 
Q 60.6875 51.171875 53.6875 57.984375 
Q 46.6875 64.796875 31.59375 64.796875 
z
M 9.8125 72.90625 
L 30.078125 72.90625 
Q 51.265625 72.90625 61.171875 64.09375 
Q 71.09375 55.28125 71.09375 36.53125 
Q 71.09375 17.671875 61.125 8.828125 
Q 51.171875 0 30.078125 0 
L 9.8125 0 
z
" id="DejaVuSans-68"/>
     <path id="DejaVuSans-32"/>
     <path d="M 41.109375 46.296875 
Q 39.59375 47.171875 37.8125 47.578125 
Q 36.03125 48 33.890625 48 
Q 26.265625 48 22.1875 43.046875 
Q 18.109375 38.09375 18.109375 28.8125 
L 18.109375 0 
L 9.078125 0 
L 9.078125 54.6875 
L 18.109375 54.6875 
L 18.109375 46.1875 
Q 20.953125 51.171875 25.484375 53.578125 
Q 30.03125 56 36.53125 56 
Q 37.453125 56 38.578125 55.875 
Q 39.703125 55.765625 41.0625 55.515625 
z
" id="DejaVuSans-114"/>
     <path d="M 56.203125 29.59375 
L 56.203125 25.203125 
L 14.890625 25.203125 
Q 15.484375 15.921875 20.484375 11.0625 
Q 25.484375 6.203125 34.421875 6.203125 
Q 39.59375 6.203125 44.453125 7.46875 
Q 49.3125 8.734375 54.109375 11.28125 
L 54.109375 2.78125 
Q 49.265625 0.734375 44.1875 -0.34375 
Q 39.109375 -1.421875 33.890625 -1.421875 
Q 20.796875 -1.421875 13.15625 6.1875 
Q 5.515625 13.8125 5.515625 26.8125 
Q 5.515625 40.234375 12.765625 48.109375 
Q 20.015625 56 32.328125 56 
Q 43.359375 56 49.78125 48.890625 
Q 56.203125 41.796875 56.203125 29.59375 
z
M 47.21875 32.234375 
Q 47.125 39.59375 43.09375 43.984375 
Q 39.0625 48.390625 32.421875 48.390625 
Q 24.90625 48.390625 20.390625 44.140625 
Q 15.875 39.890625 15.1875 32.171875 
z
" id="DejaVuSans-101"/>
     <path d="M 37.109375 75.984375 
L 37.109375 68.5 
L 28.515625 68.5 
Q 23.6875 68.5 21.796875 66.546875 
Q 19.921875 64.59375 19.921875 59.515625 
L 19.921875 54.6875 
L 34.71875 54.6875 
L 34.71875 47.703125 
L 19.921875 47.703125 
L 19.921875 0 
L 10.890625 0 
L 10.890625 47.703125 
L 2.296875 47.703125 
L 2.296875 54.6875 
L 10.890625 54.6875 
L 10.890625 58.5 
Q 10.890625 67.625 15.140625 71.796875 
Q 19.390625 75.984375 28.609375 75.984375 
z
" id="DejaVuSans-102"/>
     <path d="M 54.890625 33.015625 
L 54.890625 0 
L 45.90625 0 
L 45.90625 32.71875 
Q 45.90625 40.484375 42.875 44.328125 
Q 39.84375 48.1875 33.796875 48.1875 
Q 26.515625 48.1875 22.3125 43.546875 
Q 18.109375 38.921875 18.109375 30.90625 
L 18.109375 0 
L 9.078125 0 
L 9.078125 54.6875 
L 18.109375 54.6875 
L 18.109375 46.1875 
Q 21.34375 51.125 25.703125 53.5625 
Q 30.078125 56 35.796875 56 
Q 45.21875 56 50.046875 50.171875 
Q 54.890625 44.34375 54.890625 33.015625 
z
" id="DejaVuSans-110"/>
     <path d="M 48.78125 52.59375 
L 48.78125 44.1875 
Q 44.96875 46.296875 41.140625 47.34375 
Q 37.3125 48.390625 33.40625 48.390625 
Q 24.65625 48.390625 19.8125 42.84375 
Q 14.984375 37.3125 14.984375 27.296875 
Q 14.984375 17.28125 19.8125 11.734375 
Q 24.65625 6.203125 33.40625 6.203125 
Q 37.3125 6.203125 41.140625 7.25 
Q 44.96875 8.296875 48.78125 10.40625 
L 48.78125 2.09375 
Q 45.015625 0.34375 40.984375 -0.53125 
Q 36.96875 -1.421875 32.421875 -1.421875 
Q 20.0625 -1.421875 12.78125 6.34375 
Q 5.515625 14.109375 5.515625 27.296875 
Q 5.515625 40.671875 12.859375 48.328125 
Q 20.21875 56 33.015625 56 
Q 37.15625 56 41.109375 55.140625 
Q 45.0625 54.296875 48.78125 52.59375 
z
" id="DejaVuSans-99"/>
     <path d="M 18.109375 8.203125 
L 18.109375 -20.796875 
L 9.078125 -20.796875 
L 9.078125 54.6875 
L 18.109375 54.6875 
L 18.109375 46.390625 
Q 20.953125 51.265625 25.265625 53.625 
Q 29.59375 56 35.59375 56 
Q 45.5625 56 51.78125 48.09375 
Q 58.015625 40.1875 58.015625 27.296875 
Q 58.015625 14.40625 51.78125 6.484375 
Q 45.5625 -1.421875 35.59375 -1.421875 
Q 29.59375 -1.421875 25.265625 0.953125 
Q 20.953125 3.328125 18.109375 8.203125 
z
M 48.6875 27.296875 
Q 48.6875 37.203125 44.609375 42.84375 
Q 40.53125 48.484375 33.40625 48.484375 
Q 26.265625 48.484375 22.1875 42.84375 
Q 18.109375 37.203125 18.109375 27.296875 
Q 18.109375 17.390625 22.1875 11.75 
Q 26.265625 6.109375 33.40625 6.109375 
Q 40.53125 6.109375 44.609375 11.75 
Q 48.6875 17.390625 48.6875 27.296875 
z
" id="DejaVuSans-112"/>
     <path d="M 9.421875 75.984375 
L 18.40625 75.984375 
L 18.40625 0 
L 9.421875 0 
z
" id="DejaVuSans-108"/>
     <path d="M 34.28125 27.484375 
Q 23.390625 27.484375 19.1875 25 
Q 14.984375 22.515625 14.984375 16.5 
Q 14.984375 11.71875 18.140625 8.90625 
Q 21.296875 6.109375 26.703125 6.109375 
Q 34.1875 6.109375 38.703125 11.40625 
Q 43.21875 16.703125 43.21875 25.484375 
L 43.21875 27.484375 
z
M 52.203125 31.203125 
L 52.203125 0 
L 43.21875 0 
L 43.21875 8.296875 
Q 40.140625 3.328125 35.546875 0.953125 
Q 30.953125 -1.421875 24.3125 -1.421875 
Q 15.921875 -1.421875 10.953125 3.296875 
Q 6 8.015625 6 15.921875 
Q 6 25.140625 12.171875 29.828125 
Q 18.359375 34.515625 30.609375 34.515625 
L 43.21875 34.515625 
L 43.21875 35.40625 
Q 43.21875 41.609375 39.140625 45 
Q 35.0625 48.390625 27.6875 48.390625 
Q 23 48.390625 18.546875 47.265625 
Q 14.109375 46.140625 10.015625 43.890625 
L 10.015625 52.203125 
Q 14.9375 54.109375 19.578125 55.046875 
Q 24.21875 56 28.609375 56 
Q 40.484375 56 46.34375 49.84375 
Q 52.203125 43.703125 52.203125 31.203125 
z
" id="DejaVuSans-97"/>
    </defs>
    <g transform="translate(230.457188 26.112)scale(0.12 -0.12)">
     <use xlink:href="#DejaVuSans-50"/>
     <use x="63.623047" xlink:href="#DejaVuSans-68"/>
     <use x="140.625" xlink:href="#DejaVuSans-32"/>
     <use x="172.412109" xlink:href="#DejaVuSans-114"/>
     <use x="211.275391" xlink:href="#DejaVuSans-101"/>
     <use x="272.798828" xlink:href="#DejaVuSans-102"/>
     <use x="308.003906" xlink:href="#DejaVuSans-101"/>
     <use x="369.527344" xlink:href="#DejaVuSans-114"/>
     <use x="408.390625" xlink:href="#DejaVuSans-101"/>
     <use x="469.914062" xlink:href="#DejaVuSans-110"/>
     <use x="533.292969" xlink:href="#DejaVuSans-99"/>
     <use x="588.273438" xlink:href="#DejaVuSans-101"/>
     <use x="649.796875" xlink:href="#DejaVuSans-32"/>
     <use x="681.583984" xlink:href="#DejaVuSans-112"/>
     <use x="745.060547" xlink:href="#DejaVuSans-108"/>
     <use x="772.84375" xlink:href="#DejaVuSans-97"/>
     <use x="834.123047" xlink:href="#DejaVuSans-110"/>
     <use x="897.501953" xlink:href="#DejaVuSans-101"/>
    </g>
   </g>
  </g>
 </g>
 <defs>
  <clipPath id="p4573a4bef4">
   <rect height="266.4" width="554.4" x="10.8" y="10.8"/>
  </clipPath>
 </defs>
</svg>
