<?xml version="1.0" encoding="utf-8" standalone="no"?>
<!DOCTYPE svg PUBLIC "-//W3C//DTD SVG 1.1//EN"
  "http://www.w3.org/Graphics/SVG/1.1/DTD/svg11.dtd">
<!-- Created with matplotlib (https://matplotlib.org/) -->
<svg height="381.6pt" version="1.1" viewBox="0 0 288 381.6" width="288pt" xmlns="http://www.w3.org/2000/svg" xmlns:xlink="http://www.w3.org/1999/xlink">
 <defs>
  <style type="text/css">
*{stroke-linecap:butt;stroke-linejoin:round;}
  </style>
 </defs>
 <g id="figure_1">
  <g id="patch_1">
   <path d="M 0 381.6 
L 288 381.6 
L 288 0 
L 0 0 
z
" style="fill:#ffffff;"/>
  </g>
  <g id="axes_1">
   <g id="patch_2">
    <path d="M 43.2 351.8 
L 262.65 351.8 
L 262.65 54.24 
L 43.2 54.24 
z
" style="fill:#ffffff;"/>
   </g>
   <g id="line2d_1">
    <path clip-path="url(#p3a7dc06542)" d="M 76.1175 325.0196 
L 229.7325 325.0196 
L 229.7325 81.0204 
L 76.1175 81.0204 
L 76.1175 325.0196 
" style="fill:none;stroke:#000000;stroke-linecap:round;"/>
   </g>
   <g id="line2d_2">
    <path clip-path="url(#p3a7dc06542)" d="M 82.968109 307.807391 
L 82.971285 306.113665 
L 82.97205 305.709658 
L 83.582545 301.077572 
L 84.227488 299.419429 
L 89.342828 287.784327 
L 91.253692 273.928935 
L 91.249817 273.499028 
L 91.25147 273.08225 
L 91.250485 272.666997 
L 91.249079 270.152718 
L 91.24314 269.736285 
L 91.232018 257.156453 
L 91.228719 256.738431 
L 91.229233 256.322415 
L 91.210161 239.577071 
L 91.209985 238.741508 
L 91.208637 237.91259 
L 91.206712 237.065843 
L 91.204694 235.81556 
L 91.203139 234.136901 
L 91.203477 232.885322 
L 92.456269 221.201241 
L 93.853665 198.651569 
L 93.852246 197.388751 
L 93.85108 196.144 
L 93.846556 195.306896 
L 93.847423 194.058973 
L 93.843484 191.961819 
L 93.839965 189.049108 
L 93.839014 188.629734 
L 93.839604 187.369864 
L 93.835908 185.289023 
L 93.833507 183.618951 
L 93.831028 181.527098 
L 93.832254 180.282926 
L 93.832739 179.854614 
L 93.825751 176.096293 
L 93.828604 175.678748 
L 94.325191 170.265901 
L 95.828328 159.855004 
L 100.618137 153.195598 
L 103.615307 154.080658 
L 104.822771 154.506311 
L 110.321224 177.560918 
L 110.32735 181.737799 
L 110.331513 184.666326 
L 110.331152 185.500055 
L 110.330587 185.91838 
L 110.342577 195.523835 
L 110.35849 209.723358 
L 110.384441 227.279852 
L 110.378991 227.694802 
L 110.386912 231.870558 
L 110.386517 232.708531 
L 110.391695 233.971367 
L 110.388975 234.804571 
L 110.417612 258.250206 
L 110.417696 258.665984 
L 110.419542 259.097072 
L 105.615938 273.669005 
L 110.45051 288.007938 
L 123.289277 298.611148 
L 137.660655 302.995321 
L 139.763508 303.451554 
L 139.766899 304.297537 
L 139.769421 305.131749 
L 117.206767 313.698563 
L 115.893115 314.116256 
L 103.798208 317.754231 
L 100.812451 318.117993 
L 100.188747 318.108505 
L 96.014861 317.242379 
L 88.910424 315.007497 
L 86.229672 312.88411 
L 83.589648 309.901128 
L 82.971508 308.647133 
L 82.968109 307.807391 
" style="fill:none;stroke:#000000;stroke-linecap:round;"/>
   </g>
   <g id="line2d_3">
    <path clip-path="url(#p3a7dc06542)" d="M 83.350882 101.116882 
L 84.002972 99.862225 
L 85.981138 96.556012 
L 92.303264 91.59216 
L 93.729267 90.765739 
L 95.402416 89.938559 
L 97.972574 90.00318 
L 110.226301 91.373502 
L 126.652976 96.14606 
L 128.008735 102.829398 
L 127.34 105.363746 
L 126.666471 107.454595 
L 110.264321 123.201137 
L 108.679928 126.534092 
L 98.031593 138.138852 
L 95.80742 137.275075 
L 95.457683 136.83312 
L 91.079841 124.658626 
L 83.360015 108.235238 
L 83.350882 101.116882 
" style="fill:none;stroke:#000000;stroke-linecap:round;"/>
   </g>
   <g id="line2d_4">
    <path clip-path="url(#p3a7dc06542)" d="M 161.736467 103.190288 
L 161.743108 102.762569 
L 168.609436 94.860706 
L 183.654475 90.847399 
L 196.01968 88.848036 
L 198.611384 88.459645 
L 200.558727 88.47559 
L 213.253357 90.283124 
L 214.317611 91.510596 
L 215.671964 94.503337 
L 216.325324 96.58664 
L 216.326083 97.42991 
L 216.325318 97.8321 
L 215.040196 107.50698 
L 212.830084 113.781106 
L 200.601853 126.618915 
L 198.657722 127.85249 
L 196.066204 127.818866 
L 195.427345 127.791827 
L 194.792648 126.975479 
L 194.164377 126.133136 
L 183.267568 112.192078 
L 168.623217 106.175187 
L 161.740356 103.607955 
L 161.736467 103.190288 
" style="fill:none;stroke:#000000;stroke-linecap:round;"/>
   </g>
   <g id="line2d_5">
    <path clip-path="url(#p3a7dc06542)" d="M 166.332069 305.405225 
L 166.332573 304.98915 
L 168.84399 300.846834 
L 181.722647 290.051127 
L 192.937443 277.185099 
L 194.961513 268.391217 
L 197.623395 264.253928 
L 199.305356 266.356639 
L 208.366474 281.966881 
L 213.036334 288.345681 
L 215.265588 302.222772 
L 215.267877 304.736642 
L 215.267941 306.410064 
L 213.059339 310.186389 
L 205.703017 313.468817 
L 203.430029 313.818089 
L 190.997518 312.443184 
L 184.315996 311.520378 
L 166.334173 305.848373 
L 166.332069 305.405225 
" style="fill:none;stroke:#000000;stroke-linecap:round;"/>
   </g>
   <g id="line2d_6">
    <path clip-path="url(#p3a7dc06542)" d="M 190.471443 225.600812 
L 192.857332 209.339469 
L 194.875402 197.234995 
L 195.50165 191.374772 
L 195.48442 175.080751 
L 194.216338 167.143151 
L 194.213039 166.725128 
L 194.209453 166.307402 
L 194.210519 165.890976 
L 196.097827 154.193797 
L 199.919602 153.404408 
L 205.517496 155.13725 
L 205.52137 156.814436 
L 205.519492 157.651296 
L 205.52393 163.496474 
L 205.529581 163.925269 
L 205.531251 167.684951 
L 205.530195 168.101314 
L 205.534063 169.764384 
L 205.538417 171.025498 
L 205.537289 173.957146 
L 205.539049 175.215663 
L 205.539993 175.635037 
L 205.539777 176.036758 
L 205.566953 195.276332 
L 210.236407 209.097042 
L 207.645744 227.882172 
L 207.010166 236.656621 
L 205.615997 241.705729 
L 197.613324 256.710195 
L 195.570309 255.804808 
L 192.905344 252.453279 
L 190.489442 241.502949 
L 190.488796 241.089575 
L 190.48304 236.068663 
L 190.471443 225.600812 
" style="fill:none;stroke:#000000;stroke-linecap:round;"/>
   </g>
   <g id="matplotlib.axis_1">
    <g id="xtick_1">
     <g id="line2d_7">
      <defs>
       <path d="M 0 0 
L 0 3.5 
" id="m79f2d37151" style="stroke:#000000;stroke-width:0.8;"/>
      </defs>
      <g>
       <use style="stroke:#000000;stroke-width:0.8;" x="43.2" xlink:href="#m79f2d37151" y="351.8"/>
      </g>
     </g>
     <g id="text_1">
      <!-- −15 -->
      <defs>
       <path d="M 10.59375 35.5 
L 73.1875 35.5 
L 73.1875 27.203125 
L 10.59375 27.203125 
z
" id="DejaVuSans-8722"/>
       <path d="M 12.40625 8.296875 
L 28.515625 8.296875 
L 28.515625 63.921875 
L 10.984375 60.40625 
L 10.984375 69.390625 
L 28.421875 72.90625 
L 38.28125 72.90625 
L 38.28125 8.296875 
L 54.390625 8.296875 
L 54.390625 0 
L 12.40625 0 
z
" id="DejaVuSans-49"/>
       <path d="M 10.796875 72.90625 
L 49.515625 72.90625 
L 49.515625 64.59375 
L 19.828125 64.59375 
L 19.828125 46.734375 
Q 21.96875 47.46875 24.109375 47.828125 
Q 26.265625 48.1875 28.421875 48.1875 
Q 40.625 48.1875 47.75 41.5 
Q 54.890625 34.8125 54.890625 23.390625 
Q 54.890625 11.625 47.5625 5.09375 
Q 40.234375 -1.421875 26.90625 -1.421875 
Q 22.3125 -1.421875 17.546875 -0.640625 
Q 12.796875 0.140625 7.71875 1.703125 
L 7.71875 11.625 
Q 12.109375 9.234375 16.796875 8.0625 
Q 21.484375 6.890625 26.703125 6.890625 
Q 35.15625 6.890625 40.078125 11.328125 
Q 45.015625 15.765625 45.015625 23.390625 
Q 45.015625 31 40.078125 35.4375 
Q 35.15625 39.890625 26.703125 39.890625 
Q 22.75 39.890625 18.8125 39.015625 
Q 14.890625 38.140625 10.796875 36.28125 
z
" id="DejaVuSans-53"/>
      </defs>
      <g transform="translate(30.537188 367.918125)scale(0.12 -0.12)">
       <use xlink:href="#DejaVuSans-8722"/>
       <use x="83.789062" xlink:href="#DejaVuSans-49"/>
       <use x="147.412109" xlink:href="#DejaVuSans-53"/>
      </g>
     </g>
    </g>
    <g id="xtick_2">
     <g id="line2d_8">
      <g>
       <use style="stroke:#000000;stroke-width:0.8;" x="79.775" xlink:href="#m79f2d37151" y="351.8"/>
      </g>
     </g>
     <g id="text_2">
      <!-- −10 -->
      <defs>
       <path d="M 31.78125 66.40625 
Q 24.171875 66.40625 20.328125 58.90625 
Q 16.5 51.421875 16.5 36.375 
Q 16.5 21.390625 20.328125 13.890625 
Q 24.171875 6.390625 31.78125 6.390625 
Q 39.453125 6.390625 43.28125 13.890625 
Q 47.125 21.390625 47.125 36.375 
Q 47.125 51.421875 43.28125 58.90625 
Q 39.453125 66.40625 31.78125 66.40625 
z
M 31.78125 74.21875 
Q 44.046875 74.21875 50.515625 64.515625 
Q 56.984375 54.828125 56.984375 36.375 
Q 56.984375 17.96875 50.515625 8.265625 
Q 44.046875 -1.421875 31.78125 -1.421875 
Q 19.53125 -1.421875 13.0625 8.265625 
Q 6.59375 17.96875 6.59375 36.375 
Q 6.59375 54.828125 13.0625 64.515625 
Q 19.53125 74.21875 31.78125 74.21875 
z
" id="DejaVuSans-48"/>
      </defs>
      <g transform="translate(67.112188 367.918125)scale(0.12 -0.12)">
       <use xlink:href="#DejaVuSans-8722"/>
       <use x="83.789062" xlink:href="#DejaVuSans-49"/>
       <use x="147.412109" xlink:href="#DejaVuSans-48"/>
      </g>
     </g>
    </g>
    <g id="xtick_3">
     <g id="line2d_9">
      <g>
       <use style="stroke:#000000;stroke-width:0.8;" x="116.35" xlink:href="#m79f2d37151" y="351.8"/>
      </g>
     </g>
     <g id="text_3">
      <!-- −5 -->
      <g transform="translate(107.504688 367.918125)scale(0.12 -0.12)">
       <use xlink:href="#DejaVuSans-8722"/>
       <use x="83.789062" xlink:href="#DejaVuSans-53"/>
      </g>
     </g>
    </g>
    <g id="xtick_4">
     <g id="line2d_10">
      <g>
       <use style="stroke:#000000;stroke-width:0.8;" x="152.925" xlink:href="#m79f2d37151" y="351.8"/>
      </g>
     </g>
     <g id="text_4">
      <!-- 0 -->
      <g transform="translate(149.1075 367.918125)scale(0.12 -0.12)">
       <use xlink:href="#DejaVuSans-48"/>
      </g>
     </g>
    </g>
    <g id="xtick_5">
     <g id="line2d_11">
      <g>
       <use style="stroke:#000000;stroke-width:0.8;" x="189.5" xlink:href="#m79f2d37151" y="351.8"/>
      </g>
     </g>
     <g id="text_5">
      <!-- 5 -->
      <g transform="translate(185.6825 367.918125)scale(0.12 -0.12)">
       <use xlink:href="#DejaVuSans-53"/>
      </g>
     </g>
    </g>
    <g id="xtick_6">
     <g id="line2d_12">
      <g>
       <use style="stroke:#000000;stroke-width:0.8;" x="226.075" xlink:href="#m79f2d37151" y="351.8"/>
      </g>
     </g>
     <g id="text_6">
      <!-- 10 -->
      <g transform="translate(218.44 367.918125)scale(0.12 -0.12)">
       <use xlink:href="#DejaVuSans-49"/>
       <use x="63.623047" xlink:href="#DejaVuSans-48"/>
      </g>
     </g>
    </g>
    <g id="xtick_7">
     <g id="line2d_13">
      <g>
       <use style="stroke:#000000;stroke-width:0.8;" x="262.65" xlink:href="#m79f2d37151" y="351.8"/>
      </g>
     </g>
     <g id="text_7">
      <!-- 15 -->
      <g transform="translate(255.015 367.918125)scale(0.12 -0.12)">
       <use xlink:href="#DejaVuSans-49"/>
       <use x="63.623047" xlink:href="#DejaVuSans-53"/>
      </g>
     </g>
    </g>
   </g>
   <g id="matplotlib.axis_2">
    <g id="ytick_1">
     <g id="line2d_14">
      <defs>
       <path d="M 0 0 
L -3.5 0 
" id="m2fbe775394" style="stroke:#000000;stroke-width:0.8;"/>
      </defs>
      <g>
       <use style="stroke:#000000;stroke-width:0.8;" x="43.2" xlink:href="#m2fbe775394" y="322.044"/>
      </g>
     </g>
     <g id="text_8">
      <!-- −20 -->
      <defs>
       <path d="M 19.1875 8.296875 
L 53.609375 8.296875 
L 53.609375 0 
L 7.328125 0 
L 7.328125 8.296875 
Q 12.9375 14.109375 22.625 23.890625 
Q 32.328125 33.6875 34.8125 36.53125 
Q 39.546875 41.84375 41.421875 45.53125 
Q 43.3125 49.21875 43.3125 52.78125 
Q 43.3125 58.59375 39.234375 62.25 
Q 35.15625 65.921875 28.609375 65.921875 
Q 23.96875 65.921875 18.8125 64.3125 
Q 13.671875 62.703125 7.8125 59.421875 
L 7.8125 69.390625 
Q 13.765625 71.78125 18.9375 73 
Q 24.125 74.21875 28.421875 74.21875 
Q 39.75 74.21875 46.484375 68.546875 
Q 53.21875 62.890625 53.21875 53.421875 
Q 53.21875 48.921875 51.53125 44.890625 
Q 49.859375 40.875 45.40625 35.40625 
Q 44.1875 33.984375 37.640625 27.21875 
Q 31.109375 20.453125 19.1875 8.296875 
z
" id="DejaVuSans-50"/>
      </defs>
      <g transform="translate(10.874375 326.603062)scale(0.12 -0.12)">
       <use xlink:href="#DejaVuSans-8722"/>
       <use x="83.789062" xlink:href="#DejaVuSans-50"/>
       <use x="147.412109" xlink:href="#DejaVuSans-48"/>
      </g>
     </g>
    </g>
    <g id="ytick_2">
     <g id="line2d_15">
      <g>
       <use style="stroke:#000000;stroke-width:0.8;" x="43.2" xlink:href="#m2fbe775394" y="262.532"/>
      </g>
     </g>
     <g id="text_9">
      <!-- −10 -->
      <g transform="translate(10.874375 267.091062)scale(0.12 -0.12)">
       <use xlink:href="#DejaVuSans-8722"/>
       <use x="83.789062" xlink:href="#DejaVuSans-49"/>
       <use x="147.412109" xlink:href="#DejaVuSans-48"/>
      </g>
     </g>
    </g>
    <g id="ytick_3">
     <g id="line2d_16">
      <g>
       <use style="stroke:#000000;stroke-width:0.8;" x="43.2" xlink:href="#m2fbe775394" y="203.02"/>
      </g>
     </g>
     <g id="text_10">
      <!-- 0 -->
      <g transform="translate(28.565 207.579062)scale(0.12 -0.12)">
       <use xlink:href="#DejaVuSans-48"/>
      </g>
     </g>
    </g>
    <g id="ytick_4">
     <g id="line2d_17">
      <g>
       <use style="stroke:#000000;stroke-width:0.8;" x="43.2" xlink:href="#m2fbe775394" y="143.508"/>
      </g>
     </g>
     <g id="text_11">
      <!-- 10 -->
      <g transform="translate(20.93 148.067062)scale(0.12 -0.12)">
       <use xlink:href="#DejaVuSans-49"/>
       <use x="63.623047" xlink:href="#DejaVuSans-48"/>
      </g>
     </g>
    </g>
    <g id="ytick_5">
     <g id="line2d_18">
      <g>
       <use style="stroke:#000000;stroke-width:0.8;" x="43.2" xlink:href="#m2fbe775394" y="83.996"/>
      </g>
     </g>
     <g id="text_12">
      <!-- 20 -->
      <g transform="translate(20.93 88.555062)scale(0.12 -0.12)">
       <use xlink:href="#DejaVuSans-50"/>
       <use x="63.623047" xlink:href="#DejaVuSans-48"/>
      </g>
     </g>
    </g>
   </g>
   <g id="patch_3">
    <path clip-path="url(#p3a7dc06542)" d="M 76.1175 325.0196 
L 229.7325 325.0196 
L 229.7325 81.0204 
L 76.1175 81.0204 
L 76.1175 325.0196 
M 82.968109 307.807391 
L 82.971285 306.113665 
L 82.97205 305.709658 
L 83.582545 301.077572 
L 84.227488 299.419429 
L 89.342828 287.784327 
L 91.253692 273.928935 
L 91.249817 273.499028 
L 91.25147 273.08225 
L 91.250485 272.666997 
L 91.249079 270.152718 
L 91.24314 269.736285 
L 91.232018 257.156453 
L 91.228719 256.738431 
L 91.229233 256.322415 
L 91.210161 239.577071 
L 91.209985 238.741508 
L 91.208637 237.91259 
L 91.206712 237.065843 
L 91.204694 235.81556 
L 91.203139 234.136901 
L 91.203477 232.885322 
L 92.456269 221.201241 
L 93.853665 198.651569 
L 93.852246 197.388751 
L 93.85108 196.144 
L 93.846556 195.306896 
L 93.847423 194.058973 
L 93.843484 191.961819 
L 93.839965 189.049108 
L 93.839014 188.629734 
L 93.839604 187.369864 
L 93.835908 185.289023 
L 93.833507 183.618951 
L 93.831028 181.527098 
L 93.832254 180.282926 
L 93.832739 179.854614 
L 93.825751 176.096293 
L 93.828604 175.678748 
L 94.325191 170.265901 
L 95.828328 159.855004 
L 100.618137 153.195598 
L 103.615307 154.080658 
L 104.822771 154.506311 
L 110.321224 177.560918 
L 110.32735 181.737799 
L 110.331513 184.666326 
L 110.331152 185.500055 
L 110.330587 185.91838 
L 110.342577 195.523835 
L 110.35849 209.723358 
L 110.384441 227.279852 
L 110.378991 227.694802 
L 110.386912 231.870558 
L 110.386517 232.708531 
L 110.391695 233.971367 
L 110.388975 234.804571 
L 110.417612 258.250206 
L 110.417696 258.665984 
L 110.419542 259.097072 
L 105.615938 273.669005 
L 110.45051 288.007938 
L 123.289277 298.611148 
L 137.660655 302.995321 
L 139.763508 303.451554 
L 139.766899 304.297537 
L 139.769421 305.131749 
L 117.206767 313.698563 
L 115.893115 314.116256 
L 103.798208 317.754231 
L 100.812451 318.117993 
L 100.188747 318.108505 
L 96.014861 317.242379 
L 88.910424 315.007497 
L 86.229672 312.88411 
L 83.589648 309.901128 
L 82.971508 308.647133 
L 82.968109 307.807391 
M 83.350882 101.116882 
L 84.002972 99.862225 
L 85.981138 96.556012 
L 92.303264 91.59216 
L 93.729267 90.765739 
L 95.402416 89.938559 
L 97.972574 90.00318 
L 110.226301 91.373502 
L 126.652976 96.14606 
L 128.008735 102.829398 
L 127.34 105.363746 
L 126.666471 107.454595 
L 110.264321 123.201137 
L 108.679928 126.534092 
L 98.031593 138.138852 
L 95.80742 137.275075 
L 95.457683 136.83312 
L 91.079841 124.658626 
L 83.360015 108.235238 
L 83.350882 101.116882 
M 161.736467 103.190288 
L 161.743108 102.762569 
L 168.609436 94.860706 
L 183.654475 90.847399 
L 196.01968 88.848036 
L 198.611384 88.459645 
L 200.558727 88.47559 
L 213.253357 90.283124 
L 214.317611 91.510596 
L 215.671964 94.503337 
L 216.325324 96.58664 
L 216.326083 97.42991 
L 216.325318 97.8321 
L 215.040196 107.50698 
L 212.830084 113.781106 
L 200.601853 126.618915 
L 198.657722 127.85249 
L 196.066204 127.818866 
L 195.427345 127.791827 
L 194.792648 126.975479 
L 194.164377 126.133136 
L 183.267568 112.192078 
L 168.623217 106.175187 
L 161.740356 103.607955 
L 161.736467 103.190288 
M 166.332069 305.405225 
L 166.332573 304.98915 
L 168.84399 300.846834 
L 181.722647 290.051127 
L 192.937443 277.185099 
L 194.961513 268.391217 
L 197.623395 264.253928 
L 199.305356 266.356639 
L 208.366474 281.966881 
L 213.036334 288.345681 
L 215.265588 302.222772 
L 215.267877 304.736642 
L 215.267941 306.410064 
L 213.059339 310.186389 
L 205.703017 313.468817 
L 203.430029 313.818089 
L 190.997518 312.443184 
L 184.315996 311.520378 
L 166.334173 305.848373 
L 166.332069 305.405225 
M 190.471443 225.600812 
L 192.857332 209.339469 
L 194.875402 197.234995 
L 195.50165 191.374772 
L 195.48442 175.080751 
L 194.216338 167.143151 
L 194.213039 166.725128 
L 194.209453 166.307402 
L 194.210519 165.890976 
L 196.097827 154.193797 
L 199.919602 153.404408 
L 205.517496 155.13725 
L 205.52137 156.814436 
L 205.519492 157.651296 
L 205.52393 163.496474 
L 205.529581 163.925269 
L 205.531251 167.684951 
L 205.530195 168.101314 
L 205.534063 169.764384 
L 205.538417 171.025498 
L 205.537289 173.957146 
L 205.539049 175.215663 
L 205.539993 175.635037 
L 205.539777 176.036758 
L 205.566953 195.276332 
L 210.236407 209.097042 
L 207.645744 227.882172 
L 207.010166 236.656621 
L 205.615997 241.705729 
L 197.613324 256.710195 
L 195.570309 255.804808 
L 192.905344 252.453279 
L 190.489442 241.502949 
L 190.488796 241.089575 
L 190.48304 236.068663 
L 190.471443 225.600812 
" style="fill:#6699cc;opacity:0.5;stroke:#6699cc;stroke-linejoin:miter;"/>
   </g>
   <g id="patch_4">
    <path d="M 43.2 351.8 
L 43.2 54.24 
" style="fill:none;stroke:#000000;stroke-linecap:square;stroke-linejoin:miter;stroke-width:0.8;"/>
   </g>
   <g id="patch_5">
    <path d="M 262.65 351.8 
L 262.65 54.24 
" style="fill:none;stroke:#000000;stroke-linecap:square;stroke-linejoin:miter;stroke-width:0.8;"/>
   </g>
   <g id="patch_6">
    <path d="M 43.2 351.8 
L 262.65 351.8 
" style="fill:none;stroke:#000000;stroke-linecap:square;stroke-linejoin:miter;stroke-width:0.8;"/>
   </g>
   <g id="patch_7">
    <path d="M 43.2 54.24 
L 262.65 54.24 
" style="fill:none;stroke:#000000;stroke-linecap:square;stroke-linejoin:miter;stroke-width:0.8;"/>
   </g>
   <g id="text_13">
    <!-- Red Line - Inside polygon  -->
    <defs>
     <path d="M 44.390625 34.1875 
Q 47.5625 33.109375 50.5625 29.59375 
Q 53.5625 26.078125 56.59375 19.921875 
L 66.609375 0 
L 56 0 
L 46.6875 18.703125 
Q 43.0625 26.03125 39.671875 28.421875 
Q 36.28125 30.8125 30.421875 30.8125 
L 19.671875 30.8125 
L 19.671875 0 
L 9.8125 0 
L 9.8125 72.90625 
L 32.078125 72.90625 
Q 44.578125 72.90625 50.734375 67.671875 
Q 56.890625 62.453125 56.890625 51.90625 
Q 56.890625 45.015625 53.6875 40.46875 
Q 50.484375 35.9375 44.390625 34.1875 
z
M 19.671875 64.796875 
L 19.671875 38.921875 
L 32.078125 38.921875 
Q 39.203125 38.921875 42.84375 42.21875 
Q 46.484375 45.515625 46.484375 51.90625 
Q 46.484375 58.296875 42.84375 61.546875 
Q 39.203125 64.796875 32.078125 64.796875 
z
" id="DejaVuSans-82"/>
     <path d="M 56.203125 29.59375 
L 56.203125 25.203125 
L 14.890625 25.203125 
Q 15.484375 15.921875 20.484375 11.0625 
Q 25.484375 6.203125 34.421875 6.203125 
Q 39.59375 6.203125 44.453125 7.46875 
Q 49.3125 8.734375 54.109375 11.28125 
L 54.109375 2.78125 
Q 49.265625 0.734375 44.1875 -0.34375 
Q 39.109375 -1.421875 33.890625 -1.421875 
Q 20.796875 -1.421875 13.15625 6.1875 
Q 5.515625 13.8125 5.515625 26.8125 
Q 5.515625 40.234375 12.765625 48.109375 
Q 20.015625 56 32.328125 56 
Q 43.359375 56 49.78125 48.890625 
Q 56.203125 41.796875 56.203125 29.59375 
z
M 47.21875 32.234375 
Q 47.125 39.59375 43.09375 43.984375 
Q 39.0625 48.390625 32.421875 48.390625 
Q 24.90625 48.390625 20.390625 44.140625 
Q 15.875 39.890625 15.1875 32.171875 
z
" id="DejaVuSans-101"/>
     <path d="M 45.40625 46.390625 
L 45.40625 75.984375 
L 54.390625 75.984375 
L 54.390625 0 
L 45.40625 0 
L 45.40625 8.203125 
Q 42.578125 3.328125 38.25 0.953125 
Q 33.9375 -1.421875 27.875 -1.421875 
Q 17.96875 -1.421875 11.734375 6.484375 
Q 5.515625 14.40625 5.515625 27.296875 
Q 5.515625 40.1875 11.734375 48.09375 
Q 17.96875 56 27.875 56 
Q 33.9375 56 38.25 53.625 
Q 42.578125 51.265625 45.40625 46.390625 
z
M 14.796875 27.296875 
Q 14.796875 17.390625 18.875 11.75 
Q 22.953125 6.109375 30.078125 6.109375 
Q 37.203125 6.109375 41.296875 11.75 
Q 45.40625 17.390625 45.40625 27.296875 
Q 45.40625 37.203125 41.296875 42.84375 
Q 37.203125 48.484375 30.078125 48.484375 
Q 22.953125 48.484375 18.875 42.84375 
Q 14.796875 37.203125 14.796875 27.296875 
z
" id="DejaVuSans-100"/>
     <path id="DejaVuSans-32"/>
     <path d="M 9.8125 72.90625 
L 19.671875 72.90625 
L 19.671875 8.296875 
L 55.171875 8.296875 
L 55.171875 0 
L 9.8125 0 
z
" id="DejaVuSans-76"/>
     <path d="M 9.421875 54.6875 
L 18.40625 54.6875 
L 18.40625 0 
L 9.421875 0 
z
M 9.421875 75.984375 
L 18.40625 75.984375 
L 18.40625 64.59375 
L 9.421875 64.59375 
z
" id="DejaVuSans-105"/>
     <path d="M 54.890625 33.015625 
L 54.890625 0 
L 45.90625 0 
L 45.90625 32.71875 
Q 45.90625 40.484375 42.875 44.328125 
Q 39.84375 48.1875 33.796875 48.1875 
Q 26.515625 48.1875 22.3125 43.546875 
Q 18.109375 38.921875 18.109375 30.90625 
L 18.109375 0 
L 9.078125 0 
L 9.078125 54.6875 
L 18.109375 54.6875 
L 18.109375 46.1875 
Q 21.34375 51.125 25.703125 53.5625 
Q 30.078125 56 35.796875 56 
Q 45.21875 56 50.046875 50.171875 
Q 54.890625 44.34375 54.890625 33.015625 
z
" id="DejaVuSans-110"/>
     <path d="M 4.890625 31.390625 
L 31.203125 31.390625 
L 31.203125 23.390625 
L 4.890625 23.390625 
z
" id="DejaVuSans-45"/>
     <path d="M 9.8125 72.90625 
L 19.671875 72.90625 
L 19.671875 0 
L 9.8125 0 
z
" id="DejaVuSans-73"/>
     <path d="M 44.28125 53.078125 
L 44.28125 44.578125 
Q 40.484375 46.53125 36.375 47.5 
Q 32.28125 48.484375 27.875 48.484375 
Q 21.1875 48.484375 17.84375 46.4375 
Q 14.5 44.390625 14.5 40.28125 
Q 14.5 37.15625 16.890625 35.375 
Q 19.28125 33.59375 26.515625 31.984375 
L 29.59375 31.296875 
Q 39.15625 29.25 43.1875 25.515625 
Q 47.21875 21.78125 47.21875 15.09375 
Q 47.21875 7.46875 41.1875 3.015625 
Q 35.15625 -1.421875 24.609375 -1.421875 
Q 20.21875 -1.421875 15.453125 -0.5625 
Q 10.6875 0.296875 5.421875 2 
L 5.421875 11.28125 
Q 10.40625 8.6875 15.234375 7.390625 
Q 20.0625 6.109375 24.8125 6.109375 
Q 31.15625 6.109375 34.5625 8.28125 
Q 37.984375 10.453125 37.984375 14.40625 
Q 37.984375 18.0625 35.515625 20.015625 
Q 33.0625 21.96875 24.703125 23.78125 
L 21.578125 24.515625 
Q 13.234375 26.265625 9.515625 29.90625 
Q 5.8125 33.546875 5.8125 39.890625 
Q 5.8125 47.609375 11.28125 51.796875 
Q 16.75 56 26.8125 56 
Q 31.78125 56 36.171875 55.265625 
Q 40.578125 54.546875 44.28125 53.078125 
z
" id="DejaVuSans-115"/>
     <path d="M 18.109375 8.203125 
L 18.109375 -20.796875 
L 9.078125 -20.796875 
L 9.078125 54.6875 
L 18.109375 54.6875 
L 18.109375 46.390625 
Q 20.953125 51.265625 25.265625 53.625 
Q 29.59375 56 35.59375 56 
Q 45.5625 56 51.78125 48.09375 
Q 58.015625 40.1875 58.015625 27.296875 
Q 58.015625 14.40625 51.78125 6.484375 
Q 45.5625 -1.421875 35.59375 -1.421875 
Q 29.59375 -1.421875 25.265625 0.953125 
Q 20.953125 3.328125 18.109375 8.203125 
z
M 48.6875 27.296875 
Q 48.6875 37.203125 44.609375 42.84375 
Q 40.53125 48.484375 33.40625 48.484375 
Q 26.265625 48.484375 22.1875 42.84375 
Q 18.109375 37.203125 18.109375 27.296875 
Q 18.109375 17.390625 22.1875 11.75 
Q 26.265625 6.109375 33.40625 6.109375 
Q 40.53125 6.109375 44.609375 11.75 
Q 48.6875 17.390625 48.6875 27.296875 
z
" id="DejaVuSans-112"/>
     <path d="M 30.609375 48.390625 
Q 23.390625 48.390625 19.1875 42.75 
Q 14.984375 37.109375 14.984375 27.296875 
Q 14.984375 17.484375 19.15625 11.84375 
Q 23.34375 6.203125 30.609375 6.203125 
Q 37.796875 6.203125 41.984375 11.859375 
Q 46.1875 17.53125 46.1875 27.296875 
Q 46.1875 37.015625 41.984375 42.703125 
Q 37.796875 48.390625 30.609375 48.390625 
z
M 30.609375 56 
Q 42.328125 56 49.015625 48.375 
Q 55.71875 40.765625 55.71875 27.296875 
Q 55.71875 13.875 49.015625 6.21875 
Q 42.328125 -1.421875 30.609375 -1.421875 
Q 18.84375 -1.421875 12.171875 6.21875 
Q 5.515625 13.875 5.515625 27.296875 
Q 5.515625 40.765625 12.171875 48.375 
Q 18.84375 56 30.609375 56 
z
" id="DejaVuSans-111"/>
     <path d="M 9.421875 75.984375 
L 18.40625 75.984375 
L 18.40625 0 
L 9.421875 0 
z
" id="DejaVuSans-108"/>
     <path d="M 32.171875 -5.078125 
Q 28.375 -14.84375 24.75 -17.8125 
Q 21.140625 -20.796875 15.09375 -20.796875 
L 7.90625 -20.796875 
L 7.90625 -13.28125 
L 13.1875 -13.28125 
Q 16.890625 -13.28125 18.9375 -11.515625 
Q 21 -9.765625 23.484375 -3.21875 
L 25.09375 0.875 
L 2.984375 54.6875 
L 12.5 54.6875 
L 29.59375 11.921875 
L 46.6875 54.6875 
L 56.203125 54.6875 
z
" id="DejaVuSans-121"/>
     <path d="M 45.40625 27.984375 
Q 45.40625 37.75 41.375 43.109375 
Q 37.359375 48.484375 30.078125 48.484375 
Q 22.859375 48.484375 18.828125 43.109375 
Q 14.796875 37.75 14.796875 27.984375 
Q 14.796875 18.265625 18.828125 12.890625 
Q 22.859375 7.515625 30.078125 7.515625 
Q 37.359375 7.515625 41.375 12.890625 
Q 45.40625 18.265625 45.40625 27.984375 
z
M 54.390625 6.78125 
Q 54.390625 -7.171875 48.1875 -13.984375 
Q 42 -20.796875 29.203125 -20.796875 
Q 24.46875 -20.796875 20.265625 -20.09375 
Q 16.0625 -19.390625 12.109375 -17.921875 
L 12.109375 -9.1875 
Q 16.0625 -11.328125 19.921875 -12.34375 
Q 23.78125 -13.375 27.78125 -13.375 
Q 36.625 -13.375 41.015625 -8.765625 
Q 45.40625 -4.15625 45.40625 5.171875 
L 45.40625 9.625 
Q 42.625 4.78125 38.28125 2.390625 
Q 33.9375 0 27.875 0 
Q 17.828125 0 11.671875 7.65625 
Q 5.515625 15.328125 5.515625 27.984375 
Q 5.515625 40.671875 11.671875 48.328125 
Q 17.828125 56 27.875 56 
Q 33.9375 56 38.28125 53.609375 
Q 42.625 51.21875 45.40625 46.390625 
L 45.40625 54.6875 
L 54.390625 54.6875 
z
" id="DejaVuSans-103"/>
    </defs>
    <g transform="translate(75.474375 21.36525)scale(0.12 -0.12)">
     <use xlink:href="#DejaVuSans-82"/>
     <use x="64.982422" xlink:href="#DejaVuSans-101"/>
     <use x="126.505859" xlink:href="#DejaVuSans-100"/>
     <use x="189.982422" xlink:href="#DejaVuSans-32"/>
     <use x="221.769531" xlink:href="#DejaVuSans-76"/>
     <use x="277.482422" xlink:href="#DejaVuSans-105"/>
     <use x="305.265625" xlink:href="#DejaVuSans-110"/>
     <use x="368.644531" xlink:href="#DejaVuSans-101"/>
     <use x="430.167969" xlink:href="#DejaVuSans-32"/>
     <use x="461.955078" xlink:href="#DejaVuSans-45"/>
     <use x="498.039062" xlink:href="#DejaVuSans-32"/>
     <use x="529.826172" xlink:href="#DejaVuSans-73"/>
     <use x="559.318359" xlink:href="#DejaVuSans-110"/>
     <use x="622.697266" xlink:href="#DejaVuSans-115"/>
     <use x="674.796875" xlink:href="#DejaVuSans-105"/>
     <use x="702.580078" xlink:href="#DejaVuSans-100"/>
     <use x="766.056641" xlink:href="#DejaVuSans-101"/>
     <use x="827.580078" xlink:href="#DejaVuSans-32"/>
     <use x="859.367188" xlink:href="#DejaVuSans-112"/>
     <use x="922.84375" xlink:href="#DejaVuSans-111"/>
     <use x="984.025391" xlink:href="#DejaVuSans-108"/>
     <use x="1011.808594" xlink:href="#DejaVuSans-121"/>
     <use x="1070.988281" xlink:href="#DejaVuSans-103"/>
     <use x="1134.464844" xlink:href="#DejaVuSans-111"/>
     <use x="1195.646484" xlink:href="#DejaVuSans-110"/>
     <use x="1259.025391" xlink:href="#DejaVuSans-32"/>
    </g>
    <!--  Green Line - Outside polygon or in Holes  -->
    <defs>
     <path d="M 59.515625 10.40625 
L 59.515625 29.984375 
L 43.40625 29.984375 
L 43.40625 38.09375 
L 69.28125 38.09375 
L 69.28125 6.78125 
Q 63.578125 2.734375 56.6875 0.65625 
Q 49.8125 -1.421875 42 -1.421875 
Q 24.90625 -1.421875 15.25 8.5625 
Q 5.609375 18.5625 5.609375 36.375 
Q 5.609375 54.25 15.25 64.234375 
Q 24.90625 74.21875 42 74.21875 
Q 49.125 74.21875 55.546875 72.453125 
Q 61.96875 70.703125 67.390625 67.28125 
L 67.390625 56.78125 
Q 61.921875 61.421875 55.765625 63.765625 
Q 49.609375 66.109375 42.828125 66.109375 
Q 29.4375 66.109375 22.71875 58.640625 
Q 16.015625 51.171875 16.015625 36.375 
Q 16.015625 21.625 22.71875 14.15625 
Q 29.4375 6.6875 42.828125 6.6875 
Q 48.046875 6.6875 52.140625 7.59375 
Q 56.25 8.5 59.515625 10.40625 
z
" id="DejaVuSans-71"/>
     <path d="M 41.109375 46.296875 
Q 39.59375 47.171875 37.8125 47.578125 
Q 36.03125 48 33.890625 48 
Q 26.265625 48 22.1875 43.046875 
Q 18.109375 38.09375 18.109375 28.8125 
L 18.109375 0 
L 9.078125 0 
L 9.078125 54.6875 
L 18.109375 54.6875 
L 18.109375 46.1875 
Q 20.953125 51.171875 25.484375 53.578125 
Q 30.03125 56 36.53125 56 
Q 37.453125 56 38.578125 55.875 
Q 39.703125 55.765625 41.0625 55.515625 
z
" id="DejaVuSans-114"/>
     <path d="M 39.40625 66.21875 
Q 28.65625 66.21875 22.328125 58.203125 
Q 16.015625 50.203125 16.015625 36.375 
Q 16.015625 22.609375 22.328125 14.59375 
Q 28.65625 6.59375 39.40625 6.59375 
Q 50.140625 6.59375 56.421875 14.59375 
Q 62.703125 22.609375 62.703125 36.375 
Q 62.703125 50.203125 56.421875 58.203125 
Q 50.140625 66.21875 39.40625 66.21875 
z
M 39.40625 74.21875 
Q 54.734375 74.21875 63.90625 63.9375 
Q 73.09375 53.65625 73.09375 36.375 
Q 73.09375 19.140625 63.90625 8.859375 
Q 54.734375 -1.421875 39.40625 -1.421875 
Q 24.03125 -1.421875 14.8125 8.828125 
Q 5.609375 19.09375 5.609375 36.375 
Q 5.609375 53.65625 14.8125 63.9375 
Q 24.03125 74.21875 39.40625 74.21875 
z
" id="DejaVuSans-79"/>
     <path d="M 8.5 21.578125 
L 8.5 54.6875 
L 17.484375 54.6875 
L 17.484375 21.921875 
Q 17.484375 14.15625 20.5 10.265625 
Q 23.53125 6.390625 29.59375 6.390625 
Q 36.859375 6.390625 41.078125 11.03125 
Q 45.3125 15.671875 45.3125 23.6875 
L 45.3125 54.6875 
L 54.296875 54.6875 
L 54.296875 0 
L 45.3125 0 
L 45.3125 8.40625 
Q 42.046875 3.421875 37.71875 1 
Q 33.40625 -1.421875 27.6875 -1.421875 
Q 18.265625 -1.421875 13.375 4.4375 
Q 8.5 10.296875 8.5 21.578125 
z
M 31.109375 56 
z
" id="DejaVuSans-117"/>
     <path d="M 18.3125 70.21875 
L 18.3125 54.6875 
L 36.8125 54.6875 
L 36.8125 47.703125 
L 18.3125 47.703125 
L 18.3125 18.015625 
Q 18.3125 11.328125 20.140625 9.421875 
Q 21.96875 7.515625 27.59375 7.515625 
L 36.8125 7.515625 
L 36.8125 0 
L 27.59375 0 
Q 17.1875 0 13.234375 3.875 
Q 9.28125 7.765625 9.28125 18.015625 
L 9.28125 47.703125 
L 2.6875 47.703125 
L 2.6875 54.6875 
L 9.28125 54.6875 
L 9.28125 70.21875 
z
" id="DejaVuSans-116"/>
     <path d="M 9.8125 72.90625 
L 19.671875 72.90625 
L 19.671875 43.015625 
L 55.515625 43.015625 
L 55.515625 72.90625 
L 65.375 72.90625 
L 65.375 0 
L 55.515625 0 
L 55.515625 34.71875 
L 19.671875 34.71875 
L 19.671875 0 
L 9.8125 0 
z
" id="DejaVuSans-72"/>
    </defs>
    <g transform="translate(27.499688 34.802625)scale(0.12 -0.12)">
     <use xlink:href="#DejaVuSans-32"/>
     <use x="31.787109" xlink:href="#DejaVuSans-71"/>
     <use x="109.277344" xlink:href="#DejaVuSans-114"/>
     <use x="148.140625" xlink:href="#DejaVuSans-101"/>
     <use x="209.664062" xlink:href="#DejaVuSans-101"/>
     <use x="271.1875" xlink:href="#DejaVuSans-110"/>
     <use x="334.566406" xlink:href="#DejaVuSans-32"/>
     <use x="366.353516" xlink:href="#DejaVuSans-76"/>
     <use x="422.066406" xlink:href="#DejaVuSans-105"/>
     <use x="449.849609" xlink:href="#DejaVuSans-110"/>
     <use x="513.228516" xlink:href="#DejaVuSans-101"/>
     <use x="574.751953" xlink:href="#DejaVuSans-32"/>
     <use x="606.539062" xlink:href="#DejaVuSans-45"/>
     <use x="642.623047" xlink:href="#DejaVuSans-32"/>
     <use x="674.410156" xlink:href="#DejaVuSans-79"/>
     <use x="753.121094" xlink:href="#DejaVuSans-117"/>
     <use x="816.5" xlink:href="#DejaVuSans-116"/>
     <use x="855.708984" xlink:href="#DejaVuSans-115"/>
     <use x="907.808594" xlink:href="#DejaVuSans-105"/>
     <use x="935.591797" xlink:href="#DejaVuSans-100"/>
     <use x="999.068359" xlink:href="#DejaVuSans-101"/>
     <use x="1060.591797" xlink:href="#DejaVuSans-32"/>
     <use x="1092.378906" xlink:href="#DejaVuSans-112"/>
     <use x="1155.855469" xlink:href="#DejaVuSans-111"/>
     <use x="1217.037109" xlink:href="#DejaVuSans-108"/>
     <use x="1244.820312" xlink:href="#DejaVuSans-121"/>
     <use x="1304" xlink:href="#DejaVuSans-103"/>
     <use x="1367.476562" xlink:href="#DejaVuSans-111"/>
     <use x="1428.658203" xlink:href="#DejaVuSans-110"/>
     <use x="1492.037109" xlink:href="#DejaVuSans-32"/>
     <use x="1523.824219" xlink:href="#DejaVuSans-111"/>
     <use x="1585.005859" xlink:href="#DejaVuSans-114"/>
     <use x="1626.119141" xlink:href="#DejaVuSans-32"/>
     <use x="1657.90625" xlink:href="#DejaVuSans-105"/>
     <use x="1685.689453" xlink:href="#DejaVuSans-110"/>
     <use x="1749.068359" xlink:href="#DejaVuSans-32"/>
     <use x="1780.855469" xlink:href="#DejaVuSans-72"/>
     <use x="1856.050781" xlink:href="#DejaVuSans-111"/>
     <use x="1917.232422" xlink:href="#DejaVuSans-108"/>
     <use x="1945.015625" xlink:href="#DejaVuSans-101"/>
     <use x="2006.539062" xlink:href="#DejaVuSans-115"/>
     <use x="2058.638672" xlink:href="#DejaVuSans-32"/>
    </g>
    <!--  Red dots - intersection point -->
    <defs>
     <path d="M 48.78125 52.59375 
L 48.78125 44.1875 
Q 44.96875 46.296875 41.140625 47.34375 
Q 37.3125 48.390625 33.40625 48.390625 
Q 24.65625 48.390625 19.8125 42.84375 
Q 14.984375 37.3125 14.984375 27.296875 
Q 14.984375 17.28125 19.8125 11.734375 
Q 24.65625 6.203125 33.40625 6.203125 
Q 37.3125 6.203125 41.140625 7.25 
Q 44.96875 8.296875 48.78125 10.40625 
L 48.78125 2.09375 
Q 45.015625 0.34375 40.984375 -0.53125 
Q 36.96875 -1.421875 32.421875 -1.421875 
Q 20.0625 -1.421875 12.78125 6.34375 
Q 5.515625 14.109375 5.515625 27.296875 
Q 5.515625 40.671875 12.859375 48.328125 
Q 20.21875 56 33.015625 56 
Q 37.15625 56 41.109375 55.140625 
Q 45.0625 54.296875 48.78125 52.59375 
z
" id="DejaVuSans-99"/>
    </defs>
    <g transform="translate(65.976563 48.24)scale(0.12 -0.12)">
     <use xlink:href="#DejaVuSans-32"/>
     <use x="31.787109" xlink:href="#DejaVuSans-82"/>
     <use x="96.769531" xlink:href="#DejaVuSans-101"/>
     <use x="158.292969" xlink:href="#DejaVuSans-100"/>
     <use x="221.769531" xlink:href="#DejaVuSans-32"/>
     <use x="253.556641" xlink:href="#DejaVuSans-100"/>
     <use x="317.033203" xlink:href="#DejaVuSans-111"/>
     <use x="378.214844" xlink:href="#DejaVuSans-116"/>
     <use x="417.423828" xlink:href="#DejaVuSans-115"/>
     <use x="469.523438" xlink:href="#DejaVuSans-32"/>
     <use x="501.310547" xlink:href="#DejaVuSans-45"/>
     <use x="537.394531" xlink:href="#DejaVuSans-32"/>
     <use x="569.181641" xlink:href="#DejaVuSans-105"/>
     <use x="596.964844" xlink:href="#DejaVuSans-110"/>
     <use x="660.34375" xlink:href="#DejaVuSans-116"/>
     <use x="699.552734" xlink:href="#DejaVuSans-101"/>
     <use x="761.076172" xlink:href="#DejaVuSans-114"/>
     <use x="802.189453" xlink:href="#DejaVuSans-115"/>
     <use x="854.289062" xlink:href="#DejaVuSans-101"/>
     <use x="915.8125" xlink:href="#DejaVuSans-99"/>
     <use x="970.792969" xlink:href="#DejaVuSans-116"/>
     <use x="1010.001953" xlink:href="#DejaVuSans-105"/>
     <use x="1037.785156" xlink:href="#DejaVuSans-111"/>
     <use x="1098.966797" xlink:href="#DejaVuSans-110"/>
     <use x="1162.345703" xlink:href="#DejaVuSans-32"/>
     <use x="1194.132812" xlink:href="#DejaVuSans-112"/>
     <use x="1257.609375" xlink:href="#DejaVuSans-111"/>
     <use x="1318.791016" xlink:href="#DejaVuSans-105"/>
     <use x="1346.574219" xlink:href="#DejaVuSans-110"/>
     <use x="1409.953125" xlink:href="#DejaVuSans-116"/>
    </g>
   </g>
   <g id="line2d_19">
    <defs>
     <path d="M 0 3 
C 0.795609 3 1.55874 2.683901 2.12132 2.12132 
C 2.683901 1.55874 3 0.795609 3 0 
C 3 -0.795609 2.683901 -1.55874 2.12132 -2.12132 
C 1.55874 -2.683901 0.795609 -3 0 -3 
C -0.795609 -3 -1.55874 -2.683901 -2.12132 -2.12132 
C -2.683901 -1.55874 -3 -0.795609 -3 0 
C -3 0.795609 -2.683901 1.55874 -2.12132 2.12132 
C -1.55874 2.683901 -0.795609 3 0 3 
z
" id="m108b8ee165" style="stroke:#ff3333;"/>
    </defs>
    <g clip-path="url(#p3a7dc06542)">
     <use style="fill:#ff3333;stroke:#ff3333;" x="77.5805" xlink:href="#m108b8ee165" y="85.78136"/>
     <use style="fill:#ff3333;stroke:#ff3333;" x="81.9695" xlink:href="#m108b8ee165" y="82.21064"/>
    </g>
   </g>
   <g id="line2d_20">
    <g clip-path="url(#p3a7dc06542)">
     <use style="fill:#ff3333;stroke:#ff3333;" x="77.5805" xlink:href="#m108b8ee165" y="97.68376"/>
     <use style="fill:#ff3333;stroke:#ff3333;" x="96.5995" xlink:href="#m108b8ee165" y="82.21064"/>
    </g>
   </g>
   <g id="line2d_21">
    <g clip-path="url(#p3a7dc06542)">
     <use style="fill:#ff3333;stroke:#ff3333;" x="77.5805" xlink:href="#m108b8ee165" y="109.58616"/>
     <use style="fill:#ff3333;stroke:#ff3333;" x="111.2295" xlink:href="#m108b8ee165" y="82.21064"/>
     <use style="fill:#ff3333;stroke:#ff3333;" x="81.894245" xlink:href="#m108b8ee165" y="106.076665"/>
     <use style="fill:#ff3333;stroke:#ff3333;" x="102.504945" xlink:href="#m108b8ee165" y="89.308599"/>
    </g>
   </g>
   <g id="line2d_22">
    <g clip-path="url(#p3a7dc06542)">
     <use style="fill:#ff3333;stroke:#ff3333;" x="77.5805" xlink:href="#m108b8ee165" y="121.48856"/>
     <use style="fill:#ff3333;stroke:#ff3333;" x="125.8595" xlink:href="#m108b8ee165" y="82.21064"/>
     <use style="fill:#ff3333;stroke:#ff3333;" x="85.134615" xlink:href="#m108b8ee165" y="115.342825"/>
     <use style="fill:#ff3333;stroke:#ff3333;" x="114.591458" xlink:href="#m108b8ee165" y="91.377881"/>
    </g>
   </g>
   <g id="line2d_23">
    <g clip-path="url(#p3a7dc06542)">
     <use style="fill:#ff3333;stroke:#ff3333;" x="77.5805" xlink:href="#m108b8ee165" y="133.39096"/>
     <use style="fill:#ff3333;stroke:#ff3333;" x="140.4895" xlink:href="#m108b8ee165" y="82.21064"/>
     <use style="fill:#ff3333;stroke:#ff3333;" x="89.181686" xlink:href="#m108b8ee165" y="123.952685"/>
     <use style="fill:#ff3333;stroke:#ff3333;" x="125.371659" xlink:href="#m108b8ee165" y="94.509929"/>
    </g>
   </g>
   <g id="line2d_24">
    <g clip-path="url(#p3a7dc06542)">
     <use style="fill:#ff3333;stroke:#ff3333;" x="77.5805" xlink:href="#m108b8ee165" y="145.29336"/>
     <use style="fill:#ff3333;stroke:#ff3333;" x="155.1195" xlink:href="#m108b8ee165" y="82.21064"/>
     <use style="fill:#ff3333;stroke:#ff3333;" x="92.585798" xlink:href="#m108b8ee165" y="133.085632"/>
     <use style="fill:#ff3333;stroke:#ff3333;" x="129.431095" xlink:href="#m108b8ee165" y="103.109729"/>
    </g>
   </g>
   <g id="line2d_25">
    <g clip-path="url(#p3a7dc06542)">
     <use style="fill:#ff3333;stroke:#ff3333;" x="77.5805" xlink:href="#m108b8ee165" y="157.19576"/>
     <use style="fill:#ff3333;stroke:#ff3333;" x="169.7495" xlink:href="#m108b8ee165" y="82.21064"/>
    </g>
   </g>
   <g id="line2d_26">
    <g clip-path="url(#p3a7dc06542)">
     <use style="fill:#ff3333;stroke:#ff3333;" x="77.5805" xlink:href="#m108b8ee165" y="169.09816"/>
     <use style="fill:#ff3333;stroke:#ff3333;" x="184.3795" xlink:href="#m108b8ee165" y="82.21064"/>
     <use style="fill:#ff3333;stroke:#ff3333;" x="161.96243" xlink:href="#m108b8ee165" y="100.448298"/>
     <use style="fill:#ff3333;stroke:#ff3333;" x="171.229062" xlink:href="#m108b8ee165" y="92.909326"/>
    </g>
   </g>
   <g id="line2d_27">
    <g clip-path="url(#p3a7dc06542)">
     <use style="fill:#ff3333;stroke:#ff3333;" x="77.5805" xlink:href="#m108b8ee165" y="181.00056"/>
     <use style="fill:#ff3333;stroke:#ff3333;" x="199.0095" xlink:href="#m108b8ee165" y="82.21064"/>
     <use style="fill:#ff3333;stroke:#ff3333;" x="168.152091" xlink:href="#m108b8ee165" y="107.31503"/>
     <use style="fill:#ff3333;stroke:#ff3333;" x="191.430603" xlink:href="#m108b8ee165" y="88.376536"/>
     <use style="fill:#ff3333;stroke:#ff3333;" x="93.128572" xlink:href="#m108b8ee165" y="168.351252"/>
     <use style="fill:#ff3333;stroke:#ff3333;" x="106.93596" xlink:href="#m108b8ee165" y="157.118098"/>
    </g>
   </g>
   <g id="line2d_28">
    <g clip-path="url(#p3a7dc06542)">
     <use style="fill:#ff3333;stroke:#ff3333;" x="77.5805" xlink:href="#m108b8ee165" y="192.90296"/>
     <use style="fill:#ff3333;stroke:#ff3333;" x="213.6395" xlink:href="#m108b8ee165" y="82.21064"/>
     <use style="fill:#ff3333;stroke:#ff3333;" x="177.872868" xlink:href="#m108b8ee165" y="111.308983"/>
     <use style="fill:#ff3333;stroke:#ff3333;" x="206.40151" xlink:href="#m108b8ee165" y="88.099187"/>
     <use style="fill:#ff3333;stroke:#ff3333;" x="92.368674" xlink:href="#m108b8ee165" y="180.871876"/>
     <use style="fill:#ff3333;stroke:#ff3333;" x="109.313355" xlink:href="#m108b8ee165" y="167.086341"/>
    </g>
   </g>
   <g id="line2d_29">
    <g clip-path="url(#p3a7dc06542)">
     <use style="fill:#ff3333;stroke:#ff3333;" x="77.5805" xlink:href="#m108b8ee165" y="204.80536"/>
     <use style="fill:#ff3333;stroke:#ff3333;" x="228.2695" xlink:href="#m108b8ee165" y="82.21064"/>
     <use style="fill:#ff3333;stroke:#ff3333;" x="185.375749" xlink:href="#m108b8ee165" y="117.107331"/>
     <use style="fill:#ff3333;stroke:#ff3333;" x="216.135413" xlink:href="#m108b8ee165" y="92.082462"/>
     <use style="fill:#ff3333;stroke:#ff3333;" x="92.381988" xlink:href="#m108b8ee165" y="192.763444"/>
     <use style="fill:#ff3333;stroke:#ff3333;" x="111.690751" xlink:href="#m108b8ee165" y="177.054584"/>
    </g>
   </g>
   <g id="line2d_30">
    <g clip-path="url(#p3a7dc06542)">
     <use style="fill:#ff3333;stroke:#ff3333;" x="77.5805" xlink:href="#m108b8ee165" y="216.70776"/>
     <use style="fill:#ff3333;stroke:#ff3333;" x="228.2695" xlink:href="#m108b8ee165" y="94.11304"/>
     <use style="fill:#ff3333;stroke:#ff3333;" x="191.062699" xlink:href="#m108b8ee165" y="124.383048"/>
     <use style="fill:#ff3333;stroke:#ff3333;" x="217.081836" xlink:href="#m108b8ee165" y="103.214889"/>
     <use style="fill:#ff3333;stroke:#ff3333;" x="91.996678" xlink:href="#m108b8ee165" y="204.979317"/>
     <use style="fill:#ff3333;stroke:#ff3333;" x="111.797272" xlink:href="#m108b8ee165" y="188.870322"/>
    </g>
   </g>
   <g id="line2d_31">
    <g clip-path="url(#p3a7dc06542)">
     <use style="fill:#ff3333;stroke:#ff3333;" x="77.5805" xlink:href="#m108b8ee165" y="228.61016"/>
     <use style="fill:#ff3333;stroke:#ff3333;" x="228.2695" xlink:href="#m108b8ee165" y="106.01544"/>
     <use style="fill:#ff3333;stroke:#ff3333;" x="91.21993" xlink:href="#m108b8ee165" y="217.51365"/>
     <use style="fill:#ff3333;stroke:#ff3333;" x="111.811447" xlink:href="#m108b8ee165" y="200.761191"/>
    </g>
   </g>
   <g id="line2d_32">
    <g clip-path="url(#p3a7dc06542)">
     <use style="fill:#ff3333;stroke:#ff3333;" x="77.5805" xlink:href="#m108b8ee165" y="240.51256"/>
     <use style="fill:#ff3333;stroke:#ff3333;" x="228.2695" xlink:href="#m108b8ee165" y="117.91784"/>
     <use style="fill:#ff3333;stroke:#ff3333;" x="90.000534" xlink:href="#m108b8ee165" y="230.408102"/>
     <use style="fill:#ff3333;stroke:#ff3333;" x="111.82582" xlink:href="#m108b8ee165" y="212.651897"/>
    </g>
   </g>
   <g id="line2d_33">
    <g clip-path="url(#p3a7dc06542)">
     <use style="fill:#ff3333;stroke:#ff3333;" x="77.5805" xlink:href="#m108b8ee165" y="252.41496"/>
     <use style="fill:#ff3333;stroke:#ff3333;" x="228.2695" xlink:href="#m108b8ee165" y="129.82024"/>
     <use style="fill:#ff3333;stroke:#ff3333;" x="194.065" xlink:href="#m108b8ee165" y="157.647693"/>
     <use style="fill:#ff3333;stroke:#ff3333;" x="200.590678" xlink:href="#m108b8ee165" y="152.338655"/>
     <use style="fill:#ff3333;stroke:#ff3333;" x="89.750505" xlink:href="#m108b8ee165" y="242.513916"/>
     <use style="fill:#ff3333;stroke:#ff3333;" x="111.843392" xlink:href="#m108b8ee165" y="224.540001"/>
    </g>
   </g>
   <g id="line2d_34">
    <g clip-path="url(#p3a7dc06542)">
     <use style="fill:#ff3333;stroke:#ff3333;" x="77.5805" xlink:href="#m108b8ee165" y="264.31736"/>
     <use style="fill:#ff3333;stroke:#ff3333;" x="228.2695" xlink:href="#m108b8ee165" y="141.72264"/>
     <use style="fill:#ff3333;stroke:#ff3333;" x="193.233614" xlink:href="#m108b8ee165" y="170.226477"/>
     <use style="fill:#ff3333;stroke:#ff3333;" x="206.983546" xlink:href="#m108b8ee165" y="159.040065"/>
     <use style="fill:#ff3333;stroke:#ff3333;" x="89.764049" xlink:href="#m108b8ee165" y="254.405297"/>
     <use style="fill:#ff3333;stroke:#ff3333;" x="111.853966" xlink:href="#m108b8ee165" y="236.433799"/>
    </g>
   </g>
   <g id="line2d_35">
    <g clip-path="url(#p3a7dc06542)">
     <use style="fill:#ff3333;stroke:#ff3333;" x="77.5805" xlink:href="#m108b8ee165" y="276.21976"/>
     <use style="fill:#ff3333;stroke:#ff3333;" x="228.2695" xlink:href="#m108b8ee165" y="153.62504"/>
     <use style="fill:#ff3333;stroke:#ff3333;" x="194.028189" xlink:href="#m108b8ee165" y="181.482441"/>
     <use style="fill:#ff3333;stroke:#ff3333;" x="207.001087" xlink:href="#m108b8ee165" y="170.928195"/>
     <use style="fill:#ff3333;stroke:#ff3333;" x="89.777099" xlink:href="#m108b8ee165" y="266.297081"/>
     <use style="fill:#ff3333;stroke:#ff3333;" x="111.868489" xlink:href="#m108b8ee165" y="248.324383"/>
    </g>
   </g>
   <g id="line2d_36">
    <g clip-path="url(#p3a7dc06542)">
     <use style="fill:#ff3333;stroke:#ff3333;" x="77.5805" xlink:href="#m108b8ee165" y="288.12216"/>
     <use style="fill:#ff3333;stroke:#ff3333;" x="228.2695" xlink:href="#m108b8ee165" y="165.52744"/>
     <use style="fill:#ff3333;stroke:#ff3333;" x="193.798344" xlink:href="#m108b8ee165" y="193.571834"/>
     <use style="fill:#ff3333;stroke:#ff3333;" x="207.012361" xlink:href="#m108b8ee165" y="182.821423"/>
     <use style="fill:#ff3333;stroke:#ff3333;" x="89.118662" xlink:href="#m108b8ee165" y="278.735159"/>
     <use style="fill:#ff3333;stroke:#ff3333;" x="111.449455" xlink:href="#m108b8ee165" y="260.567693"/>
    </g>
   </g>
   <g id="line2d_37">
    <g clip-path="url(#p3a7dc06542)">
     <use style="fill:#ff3333;stroke:#ff3333;" x="77.5805" xlink:href="#m108b8ee165" y="300.02456"/>
     <use style="fill:#ff3333;stroke:#ff3333;" x="228.2695" xlink:href="#m108b8ee165" y="177.42984"/>
     <use style="fill:#ff3333;stroke:#ff3333;" x="191.747129" xlink:href="#m108b8ee165" y="207.143023"/>
     <use style="fill:#ff3333;stroke:#ff3333;" x="207.029154" xlink:href="#m108b8ee165" y="194.710161"/>
     <use style="fill:#ff3333;stroke:#ff3333;" x="85.095717" xlink:href="#m108b8ee165" y="293.910471"/>
     <use style="fill:#ff3333;stroke:#ff3333;" x="107.744918" xlink:href="#m108b8ee165" y="275.483961"/>
    </g>
   </g>
   <g id="line2d_38">
    <g clip-path="url(#p3a7dc06542)">
     <use style="fill:#ff3333;stroke:#ff3333;" x="77.5805" xlink:href="#m108b8ee165" y="311.92696"/>
     <use style="fill:#ff3333;stroke:#ff3333;" x="228.2695" xlink:href="#m108b8ee165" y="189.33224"/>
     <use style="fill:#ff3333;stroke:#ff3333;" x="189.717617" xlink:href="#m108b8ee165" y="220.696555"/>
     <use style="fill:#ff3333;stroke:#ff3333;" x="210.076611" xlink:href="#m108b8ee165" y="204.133268"/>
     <use style="fill:#ff3333;stroke:#ff3333;" x="81.513265" xlink:href="#m108b8ee165" y="308.727415"/>
     <use style="fill:#ff3333;stroke:#ff3333;" x="110.894136" xlink:href="#m108b8ee165" y="284.824279"/>
    </g>
   </g>
   <g id="line2d_39">
    <g clip-path="url(#p3a7dc06542)">
     <use style="fill:#ff3333;stroke:#ff3333;" x="77.5805" xlink:href="#m108b8ee165" y="323.82936"/>
     <use style="fill:#ff3333;stroke:#ff3333;" x="228.2695" xlink:href="#m108b8ee165" y="201.23464"/>
     <use style="fill:#ff3333;stroke:#ff3333;" x="189.016827" xlink:href="#m108b8ee165" y="233.169091"/>
     <use style="fill:#ff3333;stroke:#ff3333;" x="210.836993" xlink:href="#m108b8ee165" y="215.417051"/>
     <use style="fill:#ff3333;stroke:#ff3333;" x="87.629377" xlink:href="#m108b8ee165" y="315.653984"/>
     <use style="fill:#ff3333;stroke:#ff3333;" x="117.023319" xlink:href="#m108b8ee165" y="291.740214"/>
    </g>
   </g>
   <g id="line2d_40">
    <g clip-path="url(#p3a7dc06542)">
     <use style="fill:#ff3333;stroke:#ff3333;" x="92.2105" xlink:href="#m108b8ee165" y="323.82936"/>
     <use style="fill:#ff3333;stroke:#ff3333;" x="228.2695" xlink:href="#m108b8ee165" y="213.13704"/>
     <use style="fill:#ff3333;stroke:#ff3333;" x="189.672652" xlink:href="#m108b8ee165" y="244.537937"/>
     <use style="fill:#ff3333;stroke:#ff3333;" x="209.04653" xlink:href="#m108b8ee165" y="228.776102"/>
     <use style="fill:#ff3333;stroke:#ff3333;" x="98.231701" xlink:href="#m108b8ee165" y="318.930745"/>
     <use style="fill:#ff3333;stroke:#ff3333;" x="124.366395" xlink:href="#m108b8ee165" y="297.668572"/>
    </g>
   </g>
   <g id="line2d_41">
    <g clip-path="url(#p3a7dc06542)">
     <use style="fill:#ff3333;stroke:#ff3333;" x="106.8405" xlink:href="#m108b8ee165" y="323.82936"/>
     <use style="fill:#ff3333;stroke:#ff3333;" x="228.2695" xlink:href="#m108b8ee165" y="225.03944"/>
     <use style="fill:#ff3333;stroke:#ff3333;" x="192.502549" xlink:href="#m108b8ee165" y="254.138043"/>
     <use style="fill:#ff3333;stroke:#ff3333;" x="206.771488" xlink:href="#m108b8ee165" y="242.529388"/>
     <use style="fill:#ff3333;stroke:#ff3333;" x="118.091183" xlink:href="#m108b8ee165" y="314.676241"/>
     <use style="fill:#ff3333;stroke:#ff3333;" x="135.006611" xlink:href="#m108b8ee165" y="300.914506"/>
    </g>
   </g>
   <g id="line2d_42">
    <g clip-path="url(#p3a7dc06542)">
     <use style="fill:#ff3333;stroke:#ff3333;" x="121.4705" xlink:href="#m108b8ee165" y="323.82936"/>
     <use style="fill:#ff3333;stroke:#ff3333;" x="228.2695" xlink:href="#m108b8ee165" y="236.94184"/>
    </g>
   </g>
   <g id="line2d_43">
    <g clip-path="url(#p3a7dc06542)">
     <use style="fill:#ff3333;stroke:#ff3333;" x="136.1005" xlink:href="#m108b8ee165" y="323.82936"/>
     <use style="fill:#ff3333;stroke:#ff3333;" x="228.2695" xlink:href="#m108b8ee165" y="248.84424"/>
     <use style="fill:#ff3333;stroke:#ff3333;" x="185.560422" xlink:href="#m108b8ee165" y="283.590688"/>
     <use style="fill:#ff3333;stroke:#ff3333;" x="202.790319" xlink:href="#m108b8ee165" y="269.573113"/>
    </g>
   </g>
   <g id="line2d_44">
    <g clip-path="url(#p3a7dc06542)">
     <use style="fill:#ff3333;stroke:#ff3333;" x="150.7305" xlink:href="#m108b8ee165" y="323.82936"/>
     <use style="fill:#ff3333;stroke:#ff3333;" x="228.2695" xlink:href="#m108b8ee165" y="260.74664"/>
     <use style="fill:#ff3333;stroke:#ff3333;" x="169.885906" xlink:href="#m108b8ee165" y="308.245266"/>
     <use style="fill:#ff3333;stroke:#ff3333;" x="207.483077" xlink:href="#m108b8ee165" y="277.657667"/>
    </g>
   </g>
   <g id="line2d_45">
    <g clip-path="url(#p3a7dc06542)">
     <use style="fill:#ff3333;stroke:#ff3333;" x="165.3605" xlink:href="#m108b8ee165" y="323.82936"/>
     <use style="fill:#ff3333;stroke:#ff3333;" x="228.2695" xlink:href="#m108b8ee165" y="272.64904"/>
     <use style="fill:#ff3333;stroke:#ff3333;" x="180.428416" xlink:href="#m108b8ee165" y="311.570689"/>
     <use style="fill:#ff3333;stroke:#ff3333;" x="212.58782" xlink:href="#m108b8ee165" y="285.407046"/>
    </g>
   </g>
   <g id="line2d_46">
    <g clip-path="url(#p3a7dc06542)">
     <use style="fill:#ff3333;stroke:#ff3333;" x="179.9905" xlink:href="#m108b8ee165" y="323.82936"/>
     <use style="fill:#ff3333;stroke:#ff3333;" x="228.2695" xlink:href="#m108b8ee165" y="284.55144"/>
     <use style="fill:#ff3333;stroke:#ff3333;" x="192.328586" xlink:href="#m108b8ee165" y="313.791572"/>
     <use style="fill:#ff3333;stroke:#ff3333;" x="215.562916" xlink:href="#m108b8ee165" y="294.889023"/>
    </g>
   </g>
   <g id="line2d_47">
    <g clip-path="url(#p3a7dc06542)">
     <use style="fill:#ff3333;stroke:#ff3333;" x="194.6205" xlink:href="#m108b8ee165" y="323.82936"/>
     <use style="fill:#ff3333;stroke:#ff3333;" x="228.2695" xlink:href="#m108b8ee165" y="296.45384"/>
     <use style="fill:#ff3333;stroke:#ff3333;" x="205.904491" xlink:href="#m108b8ee165" y="314.649143"/>
     <use style="fill:#ff3333;stroke:#ff3333;" x="216.730919" xlink:href="#m108b8ee165" y="305.841182"/>
    </g>
   </g>
   <g id="line2d_48">
    <g clip-path="url(#p3a7dc06542)">
     <use style="fill:#ff3333;stroke:#ff3333;" x="209.2505" xlink:href="#m108b8ee165" y="323.82936"/>
     <use style="fill:#ff3333;stroke:#ff3333;" x="228.2695" xlink:href="#m108b8ee165" y="308.35624"/>
    </g>
   </g>
   <g id="line2d_49">
    <g clip-path="url(#p3a7dc06542)">
     <use style="fill:#ff3333;stroke:#ff3333;" x="223.8805" xlink:href="#m108b8ee165" y="323.82936"/>
     <use style="fill:#ff3333;stroke:#ff3333;" x="228.2695" xlink:href="#m108b8ee165" y="320.25864"/>
    </g>
   </g>
   <g id="line2d_50">
    <path clip-path="url(#p3a7dc06542)" d="M 81.9695 82.21064 
L 77.5805 85.78136 
" style="fill:none;stroke:#ff3333;stroke-linecap:round;stroke-width:2;"/>
   </g>
   <g id="line2d_51">
    <path clip-path="url(#p3a7dc06542)" d="M 96.5995 82.21064 
L 77.5805 97.68376 
" style="fill:none;stroke:#ff3333;stroke-linecap:round;stroke-width:2;"/>
   </g>
   <g id="line2d_52">
    <path clip-path="url(#p3a7dc06542)" d="M 111.2295 82.21064 
L 102.504945 89.308599 
" style="fill:none;stroke:#ff3333;stroke-linecap:round;stroke-width:2;"/>
   </g>
   <g id="line2d_53">
    <path clip-path="url(#p3a7dc06542)" d="M 81.894245 106.076665 
L 77.5805 109.58616 
" style="fill:none;stroke:#ff3333;stroke-linecap:round;stroke-width:2;"/>
   </g>
   <g id="line2d_54">
    <path clip-path="url(#p3a7dc06542)" d="M 125.8595 82.21064 
L 114.591458 91.377881 
" style="fill:none;stroke:#ff3333;stroke-linecap:round;stroke-width:2;"/>
   </g>
   <g id="line2d_55">
    <path clip-path="url(#p3a7dc06542)" d="M 85.134615 115.342825 
L 77.5805 121.48856 
" style="fill:none;stroke:#ff3333;stroke-linecap:round;stroke-width:2;"/>
   </g>
   <g id="line2d_56">
    <path clip-path="url(#p3a7dc06542)" d="M 140.4895 82.21064 
L 125.371659 94.509929 
" style="fill:none;stroke:#ff3333;stroke-linecap:round;stroke-width:2;"/>
   </g>
   <g id="line2d_57">
    <path clip-path="url(#p3a7dc06542)" d="M 89.181686 123.952685 
L 77.5805 133.39096 
" style="fill:none;stroke:#ff3333;stroke-linecap:round;stroke-width:2;"/>
   </g>
   <g id="line2d_58">
    <path clip-path="url(#p3a7dc06542)" d="M 155.1195 82.21064 
L 129.431095 103.109729 
" style="fill:none;stroke:#ff3333;stroke-linecap:round;stroke-width:2;"/>
   </g>
   <g id="line2d_59">
    <path clip-path="url(#p3a7dc06542)" d="M 92.585798 133.085632 
L 77.5805 145.29336 
" style="fill:none;stroke:#ff3333;stroke-linecap:round;stroke-width:2;"/>
   </g>
   <g id="line2d_60">
    <path clip-path="url(#p3a7dc06542)" d="M 169.7495 82.21064 
L 77.5805 157.19576 
" style="fill:none;stroke:#ff3333;stroke-linecap:round;stroke-width:2;"/>
   </g>
   <g id="line2d_61">
    <path clip-path="url(#p3a7dc06542)" d="M 184.3795 82.21064 
L 171.229062 92.909326 
" style="fill:none;stroke:#ff3333;stroke-linecap:round;stroke-width:2;"/>
   </g>
   <g id="line2d_62">
    <path clip-path="url(#p3a7dc06542)" d="M 161.96243 100.448298 
L 77.5805 169.09816 
" style="fill:none;stroke:#ff3333;stroke-linecap:round;stroke-width:2;"/>
   </g>
   <g id="line2d_63">
    <path clip-path="url(#p3a7dc06542)" d="M 199.0095 82.21064 
L 191.430603 88.376536 
" style="fill:none;stroke:#ff3333;stroke-linecap:round;stroke-width:2;"/>
   </g>
   <g id="line2d_64">
    <path clip-path="url(#p3a7dc06542)" d="M 168.152091 107.31503 
L 106.93596 157.118098 
" style="fill:none;stroke:#ff3333;stroke-linecap:round;stroke-width:2;"/>
   </g>
   <g id="line2d_65">
    <path clip-path="url(#p3a7dc06542)" d="M 93.128572 168.351252 
L 77.5805 181.00056 
" style="fill:none;stroke:#ff3333;stroke-linecap:round;stroke-width:2;"/>
   </g>
   <g id="line2d_66">
    <path clip-path="url(#p3a7dc06542)" d="M 213.6395 82.21064 
L 206.40151 88.099187 
" style="fill:none;stroke:#ff3333;stroke-linecap:round;stroke-width:2;"/>
   </g>
   <g id="line2d_67">
    <path clip-path="url(#p3a7dc06542)" d="M 177.872868 111.308983 
L 109.313355 167.086341 
" style="fill:none;stroke:#ff3333;stroke-linecap:round;stroke-width:2;"/>
   </g>
   <g id="line2d_68">
    <path clip-path="url(#p3a7dc06542)" d="M 92.368674 180.871876 
L 77.5805 192.90296 
" style="fill:none;stroke:#ff3333;stroke-linecap:round;stroke-width:2;"/>
   </g>
   <g id="line2d_69">
    <path clip-path="url(#p3a7dc06542)" d="M 228.2695 82.21064 
L 216.135413 92.082462 
" style="fill:none;stroke:#ff3333;stroke-linecap:round;stroke-width:2;"/>
   </g>
   <g id="line2d_70">
    <path clip-path="url(#p3a7dc06542)" d="M 185.375749 117.107331 
L 111.690751 177.054584 
" style="fill:none;stroke:#ff3333;stroke-linecap:round;stroke-width:2;"/>
   </g>
   <g id="line2d_71">
    <path clip-path="url(#p3a7dc06542)" d="M 92.381988 192.763444 
L 77.5805 204.80536 
" style="fill:none;stroke:#ff3333;stroke-linecap:round;stroke-width:2;"/>
   </g>
   <g id="line2d_72">
    <path clip-path="url(#p3a7dc06542)" d="M 228.2695 94.11304 
L 217.081836 103.214889 
" style="fill:none;stroke:#ff3333;stroke-linecap:round;stroke-width:2;"/>
   </g>
   <g id="line2d_73">
    <path clip-path="url(#p3a7dc06542)" d="M 191.062699 124.383048 
L 111.797272 188.870322 
" style="fill:none;stroke:#ff3333;stroke-linecap:round;stroke-width:2;"/>
   </g>
   <g id="line2d_74">
    <path clip-path="url(#p3a7dc06542)" d="M 91.996678 204.979317 
L 77.5805 216.70776 
" style="fill:none;stroke:#ff3333;stroke-linecap:round;stroke-width:2;"/>
   </g>
   <g id="line2d_75">
    <path clip-path="url(#p3a7dc06542)" d="M 228.2695 106.01544 
L 111.811447 200.761191 
" style="fill:none;stroke:#ff3333;stroke-linecap:round;stroke-width:2;"/>
   </g>
   <g id="line2d_76">
    <path clip-path="url(#p3a7dc06542)" d="M 91.21993 217.51365 
L 77.5805 228.61016 
" style="fill:none;stroke:#ff3333;stroke-linecap:round;stroke-width:2;"/>
   </g>
   <g id="line2d_77">
    <path clip-path="url(#p3a7dc06542)" d="M 228.2695 117.91784 
L 111.82582 212.651897 
" style="fill:none;stroke:#ff3333;stroke-linecap:round;stroke-width:2;"/>
   </g>
   <g id="line2d_78">
    <path clip-path="url(#p3a7dc06542)" d="M 90.000534 230.408102 
L 77.5805 240.51256 
" style="fill:none;stroke:#ff3333;stroke-linecap:round;stroke-width:2;"/>
   </g>
   <g id="line2d_79">
    <path clip-path="url(#p3a7dc06542)" d="M 228.2695 129.82024 
L 200.590678 152.338655 
" style="fill:none;stroke:#ff3333;stroke-linecap:round;stroke-width:2;"/>
   </g>
   <g id="line2d_80">
    <path clip-path="url(#p3a7dc06542)" d="M 194.065 157.647693 
L 111.843392 224.540001 
" style="fill:none;stroke:#ff3333;stroke-linecap:round;stroke-width:2;"/>
   </g>
   <g id="line2d_81">
    <path clip-path="url(#p3a7dc06542)" d="M 89.750505 242.513916 
L 77.5805 252.41496 
" style="fill:none;stroke:#ff3333;stroke-linecap:round;stroke-width:2;"/>
   </g>
   <g id="line2d_82">
    <path clip-path="url(#p3a7dc06542)" d="M 228.2695 141.72264 
L 206.983546 159.040065 
" style="fill:none;stroke:#ff3333;stroke-linecap:round;stroke-width:2;"/>
   </g>
   <g id="line2d_83">
    <path clip-path="url(#p3a7dc06542)" d="M 193.233614 170.226477 
L 111.853966 236.433799 
" style="fill:none;stroke:#ff3333;stroke-linecap:round;stroke-width:2;"/>
   </g>
   <g id="line2d_84">
    <path clip-path="url(#p3a7dc06542)" d="M 89.764049 254.405297 
L 77.5805 264.31736 
" style="fill:none;stroke:#ff3333;stroke-linecap:round;stroke-width:2;"/>
   </g>
   <g id="line2d_85">
    <path clip-path="url(#p3a7dc06542)" d="M 228.2695 153.62504 
L 207.001087 170.928195 
" style="fill:none;stroke:#ff3333;stroke-linecap:round;stroke-width:2;"/>
   </g>
   <g id="line2d_86">
    <path clip-path="url(#p3a7dc06542)" d="M 194.028189 181.482441 
L 111.868489 248.324383 
" style="fill:none;stroke:#ff3333;stroke-linecap:round;stroke-width:2;"/>
   </g>
   <g id="line2d_87">
    <path clip-path="url(#p3a7dc06542)" d="M 89.777099 266.297081 
L 77.5805 276.21976 
" style="fill:none;stroke:#ff3333;stroke-linecap:round;stroke-width:2;"/>
   </g>
   <g id="line2d_88">
    <path clip-path="url(#p3a7dc06542)" d="M 228.2695 165.52744 
L 207.012361 182.821423 
" style="fill:none;stroke:#ff3333;stroke-linecap:round;stroke-width:2;"/>
   </g>
   <g id="line2d_89">
    <path clip-path="url(#p3a7dc06542)" d="M 193.798344 193.571834 
L 111.449455 260.567693 
" style="fill:none;stroke:#ff3333;stroke-linecap:round;stroke-width:2;"/>
   </g>
   <g id="line2d_90">
    <path clip-path="url(#p3a7dc06542)" d="M 89.118662 278.735159 
L 77.5805 288.12216 
" style="fill:none;stroke:#ff3333;stroke-linecap:round;stroke-width:2;"/>
   </g>
   <g id="line2d_91">
    <path clip-path="url(#p3a7dc06542)" d="M 228.2695 177.42984 
L 207.029154 194.710161 
" style="fill:none;stroke:#ff3333;stroke-linecap:round;stroke-width:2;"/>
   </g>
   <g id="line2d_92">
    <path clip-path="url(#p3a7dc06542)" d="M 191.747129 207.143023 
L 107.744918 275.483961 
" style="fill:none;stroke:#ff3333;stroke-linecap:round;stroke-width:2;"/>
   </g>
   <g id="line2d_93">
    <path clip-path="url(#p3a7dc06542)" d="M 85.095717 293.910471 
L 77.5805 300.02456 
" style="fill:none;stroke:#ff3333;stroke-linecap:round;stroke-width:2;"/>
   </g>
   <g id="line2d_94">
    <path clip-path="url(#p3a7dc06542)" d="M 228.2695 189.33224 
L 210.076611 204.133268 
" style="fill:none;stroke:#ff3333;stroke-linecap:round;stroke-width:2;"/>
   </g>
   <g id="line2d_95">
    <path clip-path="url(#p3a7dc06542)" d="M 189.717617 220.696555 
L 110.894136 284.824279 
" style="fill:none;stroke:#ff3333;stroke-linecap:round;stroke-width:2;"/>
   </g>
   <g id="line2d_96">
    <path clip-path="url(#p3a7dc06542)" d="M 81.513265 308.727415 
L 77.5805 311.92696 
" style="fill:none;stroke:#ff3333;stroke-linecap:round;stroke-width:2;"/>
   </g>
   <g id="line2d_97">
    <path clip-path="url(#p3a7dc06542)" d="M 228.2695 201.23464 
L 210.836993 215.417051 
" style="fill:none;stroke:#ff3333;stroke-linecap:round;stroke-width:2;"/>
   </g>
   <g id="line2d_98">
    <path clip-path="url(#p3a7dc06542)" d="M 189.016827 233.169091 
L 117.023319 291.740214 
" style="fill:none;stroke:#ff3333;stroke-linecap:round;stroke-width:2;"/>
   </g>
   <g id="line2d_99">
    <path clip-path="url(#p3a7dc06542)" d="M 87.629377 315.653984 
L 77.5805 323.82936 
" style="fill:none;stroke:#ff3333;stroke-linecap:round;stroke-width:2;"/>
   </g>
   <g id="line2d_100">
    <path clip-path="url(#p3a7dc06542)" d="M 228.2695 213.13704 
L 209.04653 228.776102 
" style="fill:none;stroke:#ff3333;stroke-linecap:round;stroke-width:2;"/>
   </g>
   <g id="line2d_101">
    <path clip-path="url(#p3a7dc06542)" d="M 189.672652 244.537937 
L 124.366395 297.668572 
" style="fill:none;stroke:#ff3333;stroke-linecap:round;stroke-width:2;"/>
   </g>
   <g id="line2d_102">
    <path clip-path="url(#p3a7dc06542)" d="M 98.231701 318.930745 
L 92.2105 323.82936 
" style="fill:none;stroke:#ff3333;stroke-linecap:round;stroke-width:2;"/>
   </g>
   <g id="line2d_103">
    <path clip-path="url(#p3a7dc06542)" d="M 228.2695 225.03944 
L 206.771488 242.529388 
" style="fill:none;stroke:#ff3333;stroke-linecap:round;stroke-width:2;"/>
   </g>
   <g id="line2d_104">
    <path clip-path="url(#p3a7dc06542)" d="M 192.502549 254.138043 
L 135.006611 300.914506 
" style="fill:none;stroke:#ff3333;stroke-linecap:round;stroke-width:2;"/>
   </g>
   <g id="line2d_105">
    <path clip-path="url(#p3a7dc06542)" d="M 118.091183 314.676241 
L 106.8405 323.82936 
" style="fill:none;stroke:#ff3333;stroke-linecap:round;stroke-width:2;"/>
   </g>
   <g id="line2d_106">
    <path clip-path="url(#p3a7dc06542)" d="M 228.2695 236.94184 
L 121.4705 323.82936 
" style="fill:none;stroke:#ff3333;stroke-linecap:round;stroke-width:2;"/>
   </g>
   <g id="line2d_107">
    <path clip-path="url(#p3a7dc06542)" d="M 228.2695 248.84424 
L 202.790319 269.573113 
" style="fill:none;stroke:#ff3333;stroke-linecap:round;stroke-width:2;"/>
   </g>
   <g id="line2d_108">
    <path clip-path="url(#p3a7dc06542)" d="M 185.560422 283.590688 
L 136.1005 323.82936 
" style="fill:none;stroke:#ff3333;stroke-linecap:round;stroke-width:2;"/>
   </g>
   <g id="line2d_109">
    <path clip-path="url(#p3a7dc06542)" d="M 228.2695 260.74664 
L 207.483077 277.657667 
" style="fill:none;stroke:#ff3333;stroke-linecap:round;stroke-width:2;"/>
   </g>
   <g id="line2d_110">
    <path clip-path="url(#p3a7dc06542)" d="M 169.885906 308.245266 
L 150.7305 323.82936 
" style="fill:none;stroke:#ff3333;stroke-linecap:round;stroke-width:2;"/>
   </g>
   <g id="line2d_111">
    <path clip-path="url(#p3a7dc06542)" d="M 228.2695 272.64904 
L 212.58782 285.407046 
" style="fill:none;stroke:#ff3333;stroke-linecap:round;stroke-width:2;"/>
   </g>
   <g id="line2d_112">
    <path clip-path="url(#p3a7dc06542)" d="M 180.428416 311.570689 
L 165.3605 323.82936 
" style="fill:none;stroke:#ff3333;stroke-linecap:round;stroke-width:2;"/>
   </g>
   <g id="line2d_113">
    <path clip-path="url(#p3a7dc06542)" d="M 228.2695 284.55144 
L 215.562916 294.889023 
" style="fill:none;stroke:#ff3333;stroke-linecap:round;stroke-width:2;"/>
   </g>
   <g id="line2d_114">
    <path clip-path="url(#p3a7dc06542)" d="M 192.328586 313.791572 
L 179.9905 323.82936 
" style="fill:none;stroke:#ff3333;stroke-linecap:round;stroke-width:2;"/>
   </g>
   <g id="line2d_115">
    <path clip-path="url(#p3a7dc06542)" d="M 228.2695 296.45384 
L 216.730919 305.841182 
" style="fill:none;stroke:#ff3333;stroke-linecap:round;stroke-width:2;"/>
   </g>
   <g id="line2d_116">
    <path clip-path="url(#p3a7dc06542)" d="M 205.904491 314.649143 
L 194.6205 323.82936 
" style="fill:none;stroke:#ff3333;stroke-linecap:round;stroke-width:2;"/>
   </g>
   <g id="line2d_117">
    <path clip-path="url(#p3a7dc06542)" d="M 228.2695 308.35624 
L 209.2505 323.82936 
" style="fill:none;stroke:#ff3333;stroke-linecap:round;stroke-width:2;"/>
   </g>
   <g id="line2d_118">
    <path clip-path="url(#p3a7dc06542)" d="M 228.2695 320.25864 
L 223.8805 323.82936 
" style="fill:none;stroke:#ff3333;stroke-linecap:round;stroke-width:2;"/>
   </g>
   <g id="line2d_119">
    <path clip-path="url(#p3a7dc06542)" d="M 102.504945 89.308599 
L 81.894245 106.076665 
" style="fill:none;stroke:#339933;stroke-linecap:round;stroke-width:2;"/>
   </g>
   <g id="line2d_120">
    <path clip-path="url(#p3a7dc06542)" d="M 114.591458 91.377881 
L 85.134615 115.342825 
" style="fill:none;stroke:#339933;stroke-linecap:round;stroke-width:2;"/>
   </g>
   <g id="line2d_121">
    <path clip-path="url(#p3a7dc06542)" d="M 125.371659 94.509929 
L 89.181686 123.952685 
" style="fill:none;stroke:#339933;stroke-linecap:round;stroke-width:2;"/>
   </g>
   <g id="line2d_122">
    <path clip-path="url(#p3a7dc06542)" d="M 129.431095 103.109729 
L 92.585798 133.085632 
" style="fill:none;stroke:#339933;stroke-linecap:round;stroke-width:2;"/>
   </g>
   <g id="line2d_123">
    <path clip-path="url(#p3a7dc06542)" d="M 171.229062 92.909326 
L 161.96243 100.448298 
" style="fill:none;stroke:#339933;stroke-linecap:round;stroke-width:2;"/>
   </g>
   <g id="line2d_124">
    <path clip-path="url(#p3a7dc06542)" d="M 191.430603 88.376536 
L 168.152091 107.31503 
" style="fill:none;stroke:#339933;stroke-linecap:round;stroke-width:2;"/>
   </g>
   <g id="line2d_125">
    <path clip-path="url(#p3a7dc06542)" d="M 106.93596 157.118098 
L 93.128572 168.351252 
" style="fill:none;stroke:#339933;stroke-linecap:round;stroke-width:2;"/>
   </g>
   <g id="line2d_126">
    <path clip-path="url(#p3a7dc06542)" d="M 206.40151 88.099187 
L 177.872868 111.308983 
" style="fill:none;stroke:#339933;stroke-linecap:round;stroke-width:2;"/>
   </g>
   <g id="line2d_127">
    <path clip-path="url(#p3a7dc06542)" d="M 109.313355 167.086341 
L 92.368674 180.871876 
" style="fill:none;stroke:#339933;stroke-linecap:round;stroke-width:2;"/>
   </g>
   <g id="line2d_128">
    <path clip-path="url(#p3a7dc06542)" d="M 216.135413 92.082462 
L 185.375749 117.107331 
" style="fill:none;stroke:#339933;stroke-linecap:round;stroke-width:2;"/>
   </g>
   <g id="line2d_129">
    <path clip-path="url(#p3a7dc06542)" d="M 111.690751 177.054584 
L 92.381988 192.763444 
" style="fill:none;stroke:#339933;stroke-linecap:round;stroke-width:2;"/>
   </g>
   <g id="line2d_130">
    <path clip-path="url(#p3a7dc06542)" d="M 217.081836 103.214889 
L 191.062699 124.383048 
" style="fill:none;stroke:#339933;stroke-linecap:round;stroke-width:2;"/>
   </g>
   <g id="line2d_131">
    <path clip-path="url(#p3a7dc06542)" d="M 111.797272 188.870322 
L 91.996678 204.979317 
" style="fill:none;stroke:#339933;stroke-linecap:round;stroke-width:2;"/>
   </g>
   <g id="line2d_132">
    <path clip-path="url(#p3a7dc06542)" d="M 111.811447 200.761191 
L 91.21993 217.51365 
" style="fill:none;stroke:#339933;stroke-linecap:round;stroke-width:2;"/>
   </g>
   <g id="line2d_133">
    <path clip-path="url(#p3a7dc06542)" d="M 111.82582 212.651897 
L 90.000534 230.408102 
" style="fill:none;stroke:#339933;stroke-linecap:round;stroke-width:2;"/>
   </g>
   <g id="line2d_134">
    <path clip-path="url(#p3a7dc06542)" d="M 200.590678 152.338655 
L 194.065 157.647693 
" style="fill:none;stroke:#339933;stroke-linecap:round;stroke-width:2;"/>
   </g>
   <g id="line2d_135">
    <path clip-path="url(#p3a7dc06542)" d="M 111.843392 224.540001 
L 89.750505 242.513916 
" style="fill:none;stroke:#339933;stroke-linecap:round;stroke-width:2;"/>
   </g>
   <g id="line2d_136">
    <path clip-path="url(#p3a7dc06542)" d="M 206.983546 159.040065 
L 193.233614 170.226477 
" style="fill:none;stroke:#339933;stroke-linecap:round;stroke-width:2;"/>
   </g>
   <g id="line2d_137">
    <path clip-path="url(#p3a7dc06542)" d="M 111.853966 236.433799 
L 89.764049 254.405297 
" style="fill:none;stroke:#339933;stroke-linecap:round;stroke-width:2;"/>
   </g>
   <g id="line2d_138">
    <path clip-path="url(#p3a7dc06542)" d="M 207.001087 170.928195 
L 194.028189 181.482441 
" style="fill:none;stroke:#339933;stroke-linecap:round;stroke-width:2;"/>
   </g>
   <g id="line2d_139">
    <path clip-path="url(#p3a7dc06542)" d="M 111.868489 248.324383 
L 89.777099 266.297081 
" style="fill:none;stroke:#339933;stroke-linecap:round;stroke-width:2;"/>
   </g>
   <g id="line2d_140">
    <path clip-path="url(#p3a7dc06542)" d="M 207.012361 182.821423 
L 193.798344 193.571834 
" style="fill:none;stroke:#339933;stroke-linecap:round;stroke-width:2;"/>
   </g>
   <g id="line2d_141">
    <path clip-path="url(#p3a7dc06542)" d="M 111.449455 260.567693 
L 89.118662 278.735159 
" style="fill:none;stroke:#339933;stroke-linecap:round;stroke-width:2;"/>
   </g>
   <g id="line2d_142">
    <path clip-path="url(#p3a7dc06542)" d="M 207.029154 194.710161 
L 191.747129 207.143023 
" style="fill:none;stroke:#339933;stroke-linecap:round;stroke-width:2;"/>
   </g>
   <g id="line2d_143">
    <path clip-path="url(#p3a7dc06542)" d="M 107.744918 275.483961 
L 85.095717 293.910471 
" style="fill:none;stroke:#339933;stroke-linecap:round;stroke-width:2;"/>
   </g>
   <g id="line2d_144">
    <path clip-path="url(#p3a7dc06542)" d="M 210.076611 204.133268 
L 189.717617 220.696555 
" style="fill:none;stroke:#339933;stroke-linecap:round;stroke-width:2;"/>
   </g>
   <g id="line2d_145">
    <path clip-path="url(#p3a7dc06542)" d="M 110.894136 284.824279 
L 81.513265 308.727415 
" style="fill:none;stroke:#339933;stroke-linecap:round;stroke-width:2;"/>
   </g>
   <g id="line2d_146">
    <path clip-path="url(#p3a7dc06542)" d="M 210.836993 215.417051 
L 189.016827 233.169091 
" style="fill:none;stroke:#339933;stroke-linecap:round;stroke-width:2;"/>
   </g>
   <g id="line2d_147">
    <path clip-path="url(#p3a7dc06542)" d="M 117.023319 291.740214 
L 87.629377 315.653984 
" style="fill:none;stroke:#339933;stroke-linecap:round;stroke-width:2;"/>
   </g>
   <g id="line2d_148">
    <path clip-path="url(#p3a7dc06542)" d="M 209.04653 228.776102 
L 189.672652 244.537937 
" style="fill:none;stroke:#339933;stroke-linecap:round;stroke-width:2;"/>
   </g>
   <g id="line2d_149">
    <path clip-path="url(#p3a7dc06542)" d="M 124.366395 297.668572 
L 98.231701 318.930745 
" style="fill:none;stroke:#339933;stroke-linecap:round;stroke-width:2;"/>
   </g>
   <g id="line2d_150">
    <path clip-path="url(#p3a7dc06542)" d="M 206.771488 242.529388 
L 192.502549 254.138043 
" style="fill:none;stroke:#339933;stroke-linecap:round;stroke-width:2;"/>
   </g>
   <g id="line2d_151">
    <path clip-path="url(#p3a7dc06542)" d="M 135.006611 300.914506 
L 118.091183 314.676241 
" style="fill:none;stroke:#339933;stroke-linecap:round;stroke-width:2;"/>
   </g>
   <g id="line2d_152">
    <path clip-path="url(#p3a7dc06542)" d="M 202.790319 269.573113 
L 185.560422 283.590688 
" style="fill:none;stroke:#339933;stroke-linecap:round;stroke-width:2;"/>
   </g>
   <g id="line2d_153">
    <path clip-path="url(#p3a7dc06542)" d="M 207.483077 277.657667 
L 169.885906 308.245266 
" style="fill:none;stroke:#339933;stroke-linecap:round;stroke-width:2;"/>
   </g>
   <g id="line2d_154">
    <path clip-path="url(#p3a7dc06542)" d="M 212.58782 285.407046 
L 180.428416 311.570689 
" style="fill:none;stroke:#339933;stroke-linecap:round;stroke-width:2;"/>
   </g>
   <g id="line2d_155">
    <path clip-path="url(#p3a7dc06542)" d="M 215.562916 294.889023 
L 192.328586 313.791572 
" style="fill:none;stroke:#339933;stroke-linecap:round;stroke-width:2;"/>
   </g>
   <g id="line2d_156">
    <path clip-path="url(#p3a7dc06542)" d="M 216.730919 305.841182 
L 205.904491 314.649143 
" style="fill:none;stroke:#339933;stroke-linecap:round;stroke-width:2;"/>
   </g>
  </g>
 </g>
 <defs>
  <clipPath id="p3a7dc06542">
   <rect height="297.56" width="219.45" x="43.2" y="54.24"/>
  </clipPath>
 </defs>
</svg>
