<?xml version="1.0" encoding="utf-8" standalone="no"?>
<!DOCTYPE svg PUBLIC "-//W3C//DTD SVG 1.1//EN"
  "http://www.w3.org/Graphics/SVG/1.1/DTD/svg11.dtd">
<!-- Created with matplotlib (https://matplotlib.org/) -->
<svg height="432pt" version="1.1" viewBox="0 0 288 432" width="288pt" xmlns="http://www.w3.org/2000/svg" xmlns:xlink="http://www.w3.org/1999/xlink">
 <defs>
  <style type="text/css">
*{stroke-linecap:butt;stroke-linejoin:round;}
  </style>
 </defs>
 <g id="figure_1">
  <g id="patch_1">
   <path d="M 0 432 
L 288 432 
L 288 0 
L 0 0 
z
" style="fill:#ffffff;"/>
  </g>
  <g id="axes_1">
   <g id="patch_2">
    <path d="M 43.2 402.2 
L 277.2 402.2 
L 277.2 10.8 
L 43.2 10.8 
z
" style="fill:#ffffff;"/>
   </g>
   <g id="line2d_1">
    <defs>
     <path d="M 0 3 
C 0.795609 3 1.55874 2.683901 2.12132 2.12132 
C 2.683901 1.55874 3 0.795609 3 0 
C 3 -0.795609 2.683901 -1.55874 2.12132 -2.12132 
C 1.55874 -2.683901 0.795609 -3 0 -3 
C -0.795609 -3 -1.55874 -2.683901 -2.12132 -2.12132 
C -2.683901 -1.55874 -3 -0.795609 -3 0 
C -3 0.795609 -2.683901 1.55874 -2.12132 2.12132 
C -1.55874 2.683901 -0.795609 3 0 3 
z
" id="m6700987374" style="stroke:#999999;"/>
    </defs>
    <g clip-path="url(#pc50a432ebd)">
     <use style="fill:#999999;stroke:#999999;" x="63.323141" xlink:href="#m6700987374" y="359.30894"/>
     <use style="fill:#999999;stroke:#999999;" x="63.32754" xlink:href="#m6700987374" y="356.839019"/>
     <use style="fill:#999999;stroke:#999999;" x="63.328598" xlink:href="#m6700987374" y="356.249865"/>
     <use style="fill:#999999;stroke:#999999;" x="64.174018" xlink:href="#m6700987374" y="349.495006"/>
     <use style="fill:#999999;stroke:#999999;" x="65.067139" xlink:href="#m6700987374" y="347.076975"/>
     <use style="fill:#999999;stroke:#999999;" x="72.150903" xlink:href="#m6700987374" y="330.109785"/>
     <use style="fill:#999999;stroke:#999999;" x="74.797083" xlink:href="#m6700987374" y="309.9048"/>
     <use style="fill:#999999;stroke:#999999;" x="74.791716" xlink:href="#m6700987374" y="309.277876"/>
     <use style="fill:#999999;stroke:#999999;" x="74.794005" xlink:href="#m6700987374" y="308.670098"/>
     <use style="fill:#999999;stroke:#999999;" x="74.792641" xlink:href="#m6700987374" y="308.064545"/>
     <use style="fill:#999999;stroke:#999999;" x="74.790694" xlink:href="#m6700987374" y="304.398033"/>
     <use style="fill:#999999;stroke:#999999;" x="74.78247" xlink:href="#m6700987374" y="303.790758"/>
     <use style="fill:#999999;stroke:#999999;" x="74.767068" xlink:href="#m6700987374" y="285.445891"/>
     <use style="fill:#999999;stroke:#999999;" x="74.7625" xlink:href="#m6700987374" y="284.836299"/>
     <use style="fill:#999999;stroke:#999999;" x="74.763212" xlink:href="#m6700987374" y="284.229634"/>
     <use style="fill:#999999;stroke:#999999;" x="74.7368" xlink:href="#m6700987374" y="259.8103"/>
     <use style="fill:#999999;stroke:#999999;" x="74.736557" xlink:href="#m6700987374" y="258.591819"/>
     <use style="fill:#999999;stroke:#999999;" x="74.734689" xlink:href="#m6700987374" y="257.383028"/>
     <use style="fill:#999999;stroke:#999999;" x="74.732024" xlink:href="#m6700987374" y="256.148237"/>
     <use style="fill:#999999;stroke:#999999;" x="74.72923" xlink:href="#m6700987374" y="254.324979"/>
     <use style="fill:#999999;stroke:#999999;" x="74.727076" xlink:href="#m6700987374" y="251.87703"/>
     <use style="fill:#999999;stroke:#999999;" x="74.727545" xlink:href="#m6700987374" y="250.051883"/>
     <use style="fill:#999999;stroke:#999999;" x="76.462421" xlink:href="#m6700987374" y="233.013268"/>
     <use style="fill:#999999;stroke:#999999;" x="78.397546" xlink:href="#m6700987374" y="200.129622"/>
     <use style="fill:#999999;stroke:#999999;" x="78.39558" xlink:href="#m6700987374" y="198.288084"/>
     <use style="fill:#999999;stroke:#999999;" x="78.393966" xlink:href="#m6700987374" y="196.472894"/>
     <use style="fill:#999999;stroke:#999999;" x="78.387701" xlink:href="#m6700987374" y="195.252165"/>
     <use style="fill:#999999;stroke:#999999;" x="78.388902" xlink:href="#m6700987374" y="193.43235"/>
     <use style="fill:#999999;stroke:#999999;" x="78.383447" xlink:href="#m6700987374" y="190.37412"/>
     <use style="fill:#999999;stroke:#999999;" x="78.378574" xlink:href="#m6700987374" y="186.126583"/>
     <use style="fill:#999999;stroke:#999999;" x="78.377257" xlink:href="#m6700987374" y="185.515021"/>
     <use style="fill:#999999;stroke:#999999;" x="78.378075" xlink:href="#m6700987374" y="183.677782"/>
     <use style="fill:#999999;stroke:#999999;" x="78.372955" xlink:href="#m6700987374" y="180.643342"/>
     <use style="fill:#999999;stroke:#999999;" x="78.369631" xlink:href="#m6700987374" y="178.207916"/>
     <use style="fill:#999999;stroke:#999999;" x="78.366199" xlink:href="#m6700987374" y="175.157416"/>
     <use style="fill:#999999;stroke:#999999;" x="78.367896" xlink:href="#m6700987374" y="173.34307"/>
     <use style="fill:#999999;stroke:#999999;" x="78.368567" xlink:href="#m6700987374" y="172.718473"/>
     <use style="fill:#999999;stroke:#999999;" x="78.35889" xlink:href="#m6700987374" y="167.237804"/>
     <use style="fill:#999999;stroke:#999999;" x="78.362841" xlink:href="#m6700987374" y="166.628908"/>
     <use style="fill:#999999;stroke:#999999;" x="79.050519" xlink:href="#m6700987374" y="158.735483"/>
     <use style="fill:#999999;stroke:#999999;" x="81.132074" xlink:href="#m6700987374" y="143.553522"/>
     <use style="fill:#999999;stroke:#999999;" x="87.76504" xlink:href="#m6700987374" y="133.84227"/>
     <use style="fill:#999999;stroke:#999999;" x="91.915545" xlink:href="#m6700987374" y="135.132932"/>
     <use style="fill:#999999;stroke:#999999;" x="93.587651" xlink:href="#m6700987374" y="135.753651"/>
     <use style="fill:#999999;stroke:#999999;" x="101.201953" xlink:href="#m6700987374" y="169.373631"/>
     <use style="fill:#999999;stroke:#999999;" x="101.210436" xlink:href="#m6700987374" y="175.464677"/>
     <use style="fill:#999999;stroke:#999999;" x="101.216201" xlink:href="#m6700987374" y="179.735277"/>
     <use style="fill:#999999;stroke:#999999;" x="101.215701" xlink:href="#m6700987374" y="180.951084"/>
     <use style="fill:#999999;stroke:#999999;" x="101.214918" xlink:href="#m6700987374" y="181.561117"/>
     <use style="fill:#999999;stroke:#999999;" x="101.231522" xlink:href="#m6700987374" y="195.568522"/>
     <use style="fill:#999999;stroke:#999999;" x="101.253559" xlink:href="#m6700987374" y="216.275347"/>
     <use style="fill:#999999;stroke:#999999;" x="101.289495" xlink:href="#m6700987374" y="241.87756"/>
     <use style="fill:#999999;stroke:#999999;" x="101.281948" xlink:href="#m6700987374" y="242.482671"/>
     <use style="fill:#999999;stroke:#999999;" x="101.292918" xlink:href="#m6700987374" y="248.572077"/>
     <use style="fill:#999999;stroke:#999999;" x="101.292371" xlink:href="#m6700987374" y="249.794073"/>
     <use style="fill:#999999;stroke:#999999;" x="101.299541" xlink:href="#m6700987374" y="251.635636"/>
     <use style="fill:#999999;stroke:#999999;" x="101.295775" xlink:href="#m6700987374" y="252.850677"/>
     <use style="fill:#999999;stroke:#999999;" x="101.335431" xlink:href="#m6700987374" y="287.040885"/>
     <use style="fill:#999999;stroke:#999999;" x="101.335547" xlink:href="#m6700987374" y="287.647204"/>
     <use style="fill:#999999;stroke:#999999;" x="101.338104" xlink:href="#m6700987374" y="288.275849"/>
     <use style="fill:#999999;stroke:#999999;" x="94.686035" xlink:href="#m6700987374" y="309.525749"/>
     <use style="fill:#999999;stroke:#999999;" x="101.380989" xlink:href="#m6700987374" y="330.435873"/>
     <use style="fill:#999999;stroke:#999999;" x="119.160215" xlink:href="#m6700987374" y="345.898279"/>
     <use style="fill:#999999;stroke:#999999;" x="139.061813" xlink:href="#m6700987374" y="352.291613"/>
     <use style="fill:#999999;stroke:#999999;" x="141.973862" xlink:href="#m6700987374" y="352.956927"/>
     <use style="fill:#999999;stroke:#999999;" x="141.978557" xlink:href="#m6700987374" y="354.190604"/>
     <use style="fill:#999999;stroke:#999999;" x="141.98205" xlink:href="#m6700987374" y="355.407115"/>
     <use style="fill:#999999;stroke:#999999;" x="110.737107" xlink:href="#m6700987374" y="367.899894"/>
     <use style="fill:#999999;stroke:#999999;" x="108.917952" xlink:href="#m6700987374" y="368.509006"/>
     <use style="fill:#999999;stroke:#999999;" x="92.168828" xlink:href="#m6700987374" y="373.814178"/>
     <use style="fill:#999999;stroke:#999999;" x="88.034128" xlink:href="#m6700987374" y="374.344643"/>
     <use style="fill:#999999;stroke:#999999;" x="87.170418" xlink:href="#m6700987374" y="374.330807"/>
     <use style="fill:#999999;stroke:#999999;" x="81.390388" xlink:href="#m6700987374" y="373.067757"/>
     <use style="fill:#999999;stroke:#999999;" x="71.552106" xlink:href="#m6700987374" y="369.808681"/>
     <use style="fill:#999999;stroke:#999999;" x="67.839779" xlink:href="#m6700987374" y="366.712197"/>
     <use style="fill:#999999;stroke:#999999;" x="64.183854" xlink:href="#m6700987374" y="362.362186"/>
     <use style="fill:#999999;stroke:#999999;" x="63.327848" xlink:href="#m6700987374" y="360.533515"/>
     <use style="fill:#999999;stroke:#999999;" x="63.323141" xlink:href="#m6700987374" y="359.30894"/>
    </g>
   </g>
   <g id="line2d_2">
    <g clip-path="url(#pc50a432ebd)">
     <use style="fill:#999999;stroke:#999999;" x="63.853209" xlink:href="#m6700987374" y="57.897127"/>
     <use style="fill:#999999;stroke:#999999;" x="64.756228" xlink:href="#m6700987374" y="56.06749"/>
     <use style="fill:#999999;stroke:#999999;" x="67.495608" xlink:href="#m6700987374" y="51.24612"/>
     <use style="fill:#999999;stroke:#999999;" x="76.250538" xlink:href="#m6700987374" y="44.007454"/>
     <use style="fill:#999999;stroke:#999999;" x="78.225278" xlink:href="#m6700987374" y="42.802303"/>
     <use style="fill:#999999;stroke:#999999;" x="80.542268" xlink:href="#m6700987374" y="41.596047"/>
     <use style="fill:#999999;stroke:#999999;" x="84.101444" xlink:href="#m6700987374" y="41.690282"/>
     <use style="fill:#999999;stroke:#999999;" x="101.070502" xlink:href="#m6700987374" y="43.688589"/>
     <use style="fill:#999999;stroke:#999999;" x="123.818292" xlink:href="#m6700987374" y="50.648296"/>
     <use style="fill:#999999;stroke:#999999;" x="125.695758" xlink:href="#m6700987374" y="60.394447"/>
     <use style="fill:#999999;stroke:#999999;" x="124.769688" xlink:href="#m6700987374" y="64.090227"/>
     <use style="fill:#999999;stroke:#999999;" x="123.836981" xlink:href="#m6700987374" y="67.139262"/>
     <use style="fill:#999999;stroke:#999999;" x="101.123153" xlink:href="#m6700987374" y="90.102067"/>
     <use style="fill:#999999;stroke:#999999;" x="98.929073" xlink:href="#m6700987374" y="94.962435"/>
     <use style="fill:#999999;stroke:#999999;" x="84.183174" xlink:href="#m6700987374" y="111.885378"/>
     <use style="fill:#999999;stroke:#999999;" x="81.103121" xlink:href="#m6700987374" y="110.625753"/>
     <use style="fill:#999999;stroke:#999999;" x="80.618802" xlink:href="#m6700987374" y="109.98126"/>
     <use style="fill:#999999;stroke:#999999;" x="74.556332" xlink:href="#m6700987374" y="92.227487"/>
     <use style="fill:#999999;stroke:#999999;" x="63.865856" xlink:href="#m6700987374" y="68.277655"/>
     <use style="fill:#999999;stroke:#999999;" x="63.853209" xlink:href="#m6700987374" y="57.897127"/>
    </g>
   </g>
   <g id="line2d_3">
    <g clip-path="url(#pc50a432ebd)">
     <use style="fill:#999999;stroke:#999999;" x="172.40219" xlink:href="#m6700987374" y="60.920725"/>
     <use style="fill:#999999;stroke:#999999;" x="172.411386" xlink:href="#m6700987374" y="60.296992"/>
     <use style="fill:#999999;stroke:#999999;" x="181.919931" xlink:href="#m6700987374" y="48.773895"/>
     <use style="fill:#999999;stroke:#999999;" x="202.754421" xlink:href="#m6700987374" y="42.921386"/>
     <use style="fill:#999999;stroke:#999999;" x="219.877855" xlink:href="#m6700987374" y="40.005763"/>
     <use style="fill:#999999;stroke:#999999;" x="223.466867" xlink:href="#m6700987374" y="39.439381"/>
     <use style="fill:#999999;stroke:#999999;" x="226.163563" xlink:href="#m6700987374" y="39.462633"/>
     <use style="fill:#999999;stroke:#999999;" x="243.743188" xlink:href="#m6700987374" y="42.098517"/>
     <use style="fill:#999999;stroke:#999999;" x="245.216975" xlink:href="#m6700987374" y="43.888511"/>
     <use style="fill:#999999;stroke:#999999;" x="247.092495" xlink:href="#m6700987374" y="48.252753"/>
     <use style="fill:#999999;stroke:#999999;" x="247.997272" xlink:href="#m6700987374" y="51.290784"/>
     <use style="fill:#999999;stroke:#999999;" x="247.998323" xlink:href="#m6700987374" y="52.520504"/>
     <use style="fill:#999999;stroke:#999999;" x="247.997264" xlink:href="#m6700987374" y="53.107009"/>
     <use style="fill:#999999;stroke:#999999;" x="246.217618" xlink:href="#m6700987374" y="67.215654"/>
     <use style="fill:#999999;stroke:#999999;" x="243.157037" xlink:href="#m6700987374" y="76.365061"/>
     <use style="fill:#999999;stroke:#999999;" x="226.223285" xlink:href="#m6700987374" y="95.08613"/>
     <use style="fill:#999999;stroke:#999999;" x="223.531036" xlink:href="#m6700987374" y="96.885023"/>
     <use style="fill:#999999;stroke:#999999;" x="219.942282" xlink:href="#m6700987374" y="96.83599"/>
     <use style="fill:#999999;stroke:#999999;" x="219.057585" xlink:href="#m6700987374" y="96.79656"/>
     <use style="fill:#999999;stroke:#999999;" x="218.178652" xlink:href="#m6700987374" y="95.606099"/>
     <use style="fill:#999999;stroke:#999999;" x="217.308617" xlink:href="#m6700987374" y="94.37773"/>
     <use style="fill:#999999;stroke:#999999;" x="202.218629" xlink:href="#m6700987374" y="74.047819"/>
     <use style="fill:#999999;stroke:#999999;" x="181.939016" xlink:href="#m6700987374" y="65.273532"/>
     <use style="fill:#999999;stroke:#999999;" x="172.407575" xlink:href="#m6700987374" y="61.529799"/>
     <use style="fill:#999999;stroke:#999999;" x="172.40219" xlink:href="#m6700987374" y="60.920725"/>
    </g>
   </g>
   <g id="line2d_4">
    <g clip-path="url(#pc50a432ebd)">
     <use style="fill:#999999;stroke:#999999;" x="178.766216" xlink:href="#m6700987374" y="355.805918"/>
     <use style="fill:#999999;stroke:#999999;" x="178.766914" xlink:href="#m6700987374" y="355.199166"/>
     <use style="fill:#999999;stroke:#999999;" x="182.244744" xlink:href="#m6700987374" y="349.158525"/>
     <use style="fill:#999999;stroke:#999999;" x="200.07921" xlink:href="#m6700987374" y="333.415405"/>
     <use style="fill:#999999;stroke:#999999;" x="215.609549" xlink:href="#m6700987374" y="314.653185"/>
     <use style="fill:#999999;stroke:#999999;" x="218.412497" xlink:href="#m6700987374" y="301.829278"/>
     <use style="fill:#999999;stroke:#999999;" x="222.098693" xlink:href="#m6700987374" y="295.795969"/>
     <use style="fill:#999999;stroke:#999999;" x="224.427886" xlink:href="#m6700987374" y="298.862302"/>
     <use style="fill:#999999;stroke:#999999;" x="236.975793" xlink:href="#m6700987374" y="321.626343"/>
     <use style="fill:#999999;stroke:#999999;" x="243.442653" xlink:href="#m6700987374" y="330.928395"/>
     <use style="fill:#999999;stroke:#999999;" x="246.529742" xlink:href="#m6700987374" y="351.165023"/>
     <use style="fill:#999999;stroke:#999999;" x="246.532911" xlink:href="#m6700987374" y="354.830939"/>
     <use style="fill:#999999;stroke:#999999;" x="246.533" xlink:href="#m6700987374" y="357.27125"/>
     <use style="fill:#999999;stroke:#999999;" x="243.47451" xlink:href="#m6700987374" y="362.778175"/>
     <use style="fill:#999999;stroke:#999999;" x="233.287418" xlink:href="#m6700987374" y="367.564862"/>
     <use style="fill:#999999;stroke:#999999;" x="230.139765" xlink:href="#m6700987374" y="368.074196"/>
     <use style="fill:#999999;stroke:#999999;" x="212.923125" xlink:href="#m6700987374" y="366.069205"/>
     <use style="fill:#999999;stroke:#999999;" x="203.670501" xlink:href="#m6700987374" y="364.7235"/>
     <use style="fill:#999999;stroke:#999999;" x="178.769129" xlink:href="#m6700987374" y="356.452151"/>
     <use style="fill:#999999;stroke:#999999;" x="178.766216" xlink:href="#m6700987374" y="355.805918"/>
    </g>
   </g>
   <g id="line2d_5">
    <g clip-path="url(#pc50a432ebd)">
     <use style="fill:#999999;stroke:#999999;" x="212.194613" xlink:href="#m6700987374" y="239.429057"/>
     <use style="fill:#999999;stroke:#999999;" x="215.49861" xlink:href="#m6700987374" y="215.71553"/>
     <use style="fill:#999999;stroke:#999999;" x="218.29325" xlink:href="#m6700987374" y="198.063866"/>
     <use style="fill:#999999;stroke:#999999;" x="219.160483" xlink:href="#m6700987374" y="189.518043"/>
     <use style="fill:#999999;stroke:#999999;" x="219.136624" xlink:href="#m6700987374" y="165.756864"/>
     <use style="fill:#999999;stroke:#999999;" x="217.380573" xlink:href="#m6700987374" y="154.181651"/>
     <use style="fill:#999999;stroke:#999999;" x="217.376005" xlink:href="#m6700987374" y="153.572059"/>
     <use style="fill:#999999;stroke:#999999;" x="217.371039" xlink:href="#m6700987374" y="152.962898"/>
     <use style="fill:#999999;stroke:#999999;" x="217.372515" xlink:href="#m6700987374" y="152.355635"/>
     <use style="fill:#999999;stroke:#999999;" x="219.986073" xlink:href="#m6700987374" y="135.29792"/>
     <use style="fill:#999999;stroke:#999999;" x="225.278498" xlink:href="#m6700987374" y="134.146772"/>
     <use style="fill:#999999;stroke:#999999;" x="233.030507" xlink:href="#m6700987374" y="136.673734"/>
     <use style="fill:#999999;stroke:#999999;" x="233.035872" xlink:href="#m6700987374" y="139.119535"/>
     <use style="fill:#999999;stroke:#999999;" x="233.03327" xlink:href="#m6700987374" y="140.339908"/>
     <use style="fill:#999999;stroke:#999999;" x="233.039417" xlink:href="#m6700987374" y="148.86379"/>
     <use style="fill:#999999;stroke:#999999;" x="233.047242" xlink:href="#m6700987374" y="149.489091"/>
     <use style="fill:#999999;stroke:#999999;" x="233.049554" xlink:href="#m6700987374" y="154.971746"/>
     <use style="fill:#999999;stroke:#999999;" x="233.048092" xlink:href="#m6700987374" y="155.578917"/>
     <use style="fill:#999999;stroke:#999999;" x="233.053449" xlink:href="#m6700987374" y="158.004133"/>
     <use style="fill:#999999;stroke:#999999;" x="233.059478" xlink:href="#m6700987374" y="159.843185"/>
     <use style="fill:#999999;stroke:#999999;" x="233.057916" xlink:href="#m6700987374" y="164.118337"/>
     <use style="fill:#999999;stroke:#999999;" x="233.060353" xlink:href="#m6700987374" y="165.953603"/>
     <use style="fill:#999999;stroke:#999999;" x="233.06166" xlink:href="#m6700987374" y="166.565165"/>
     <use style="fill:#999999;stroke:#999999;" x="233.061361" xlink:href="#m6700987374" y="167.150985"/>
     <use style="fill:#999999;stroke:#999999;" x="233.098995" xlink:href="#m6700987374" y="195.207595"/>
     <use style="fill:#999999;stroke:#999999;" x="239.565292" xlink:href="#m6700987374" y="215.362005"/>
     <use style="fill:#999999;stroke:#999999;" x="235.977721" xlink:href="#m6700987374" y="242.755909"/>
     <use style="fill:#999999;stroke:#999999;" x="235.097568" xlink:href="#m6700987374" y="255.551477"/>
     <use style="fill:#999999;stroke:#999999;" x="233.166911" xlink:href="#m6700987374" y="262.91447"/>
     <use style="fill:#999999;stroke:#999999;" x="222.084746" xlink:href="#m6700987374" y="284.795123"/>
     <use style="fill:#999999;stroke:#999999;" x="219.255563" xlink:href="#m6700987374" y="283.47482"/>
     <use style="fill:#999999;stroke:#999999;" x="215.565098" xlink:href="#m6700987374" y="278.587365"/>
     <use style="fill:#999999;stroke:#999999;" x="212.219538" xlink:href="#m6700987374" y="262.618762"/>
     <use style="fill:#999999;stroke:#999999;" x="212.218643" xlink:href="#m6700987374" y="262.015949"/>
     <use style="fill:#999999;stroke:#999999;" x="212.210673" xlink:href="#m6700987374" y="254.694072"/>
     <use style="fill:#999999;stroke:#999999;" x="212.194613" xlink:href="#m6700987374" y="239.429057"/>
    </g>
   </g>
   <g id="line2d_6">
    <g clip-path="url(#pc50a432ebd)">
     <use style="fill:#999999;stroke:#999999;" x="53.836364" xlink:href="#m6700987374" y="384.409091"/>
     <use style="fill:#999999;stroke:#999999;" x="266.563636" xlink:href="#m6700987374" y="384.409091"/>
     <use style="fill:#999999;stroke:#999999;" x="266.563636" xlink:href="#m6700987374" y="28.590909"/>
     <use style="fill:#999999;stroke:#999999;" x="53.836364" xlink:href="#m6700987374" y="28.590909"/>
     <use style="fill:#999999;stroke:#999999;" x="53.836364" xlink:href="#m6700987374" y="384.409091"/>
    </g>
   </g>
   <g id="line2d_7">
    <path clip-path="url(#pc50a432ebd)" d="M 53.836364 384.409091 
L 266.563636 384.409091 
L 266.563636 28.590909 
L 53.836364 28.590909 
L 53.836364 384.409091 
" style="fill:none;stroke:#000000;stroke-linecap:round;stroke-width:2;"/>
   </g>
   <g id="line2d_8">
    <path clip-path="url(#pc50a432ebd)" d="M 63.323141 359.30894 
L 63.32754 356.839019 
L 63.328598 356.249865 
L 64.174018 349.495006 
L 65.067139 347.076975 
L 72.150903 330.109785 
L 74.797083 309.9048 
L 74.791716 309.277876 
L 74.794005 308.670098 
L 74.792641 308.064545 
L 74.790694 304.398033 
L 74.78247 303.790758 
L 74.767068 285.445891 
L 74.7625 284.836299 
L 74.763212 284.229634 
L 74.7368 259.8103 
L 74.736557 258.591819 
L 74.734689 257.383028 
L 74.732024 256.148237 
L 74.72923 254.324979 
L 74.727076 251.87703 
L 74.727545 250.051883 
L 76.462421 233.013268 
L 78.397546 200.129622 
L 78.39558 198.288084 
L 78.393966 196.472894 
L 78.387701 195.252165 
L 78.388902 193.43235 
L 78.383447 190.37412 
L 78.378574 186.126583 
L 78.377257 185.515021 
L 78.378075 183.677782 
L 78.372955 180.643342 
L 78.369631 178.207916 
L 78.366199 175.157416 
L 78.367896 173.34307 
L 78.368567 172.718473 
L 78.35889 167.237804 
L 78.362841 166.628908 
L 79.050519 158.735483 
L 81.132074 143.553522 
L 87.76504 133.84227 
L 91.915545 135.132932 
L 93.587651 135.753651 
L 101.201953 169.373631 
L 101.210436 175.464677 
L 101.216201 179.735277 
L 101.215701 180.951084 
L 101.214918 181.561117 
L 101.231522 195.568522 
L 101.253559 216.275347 
L 101.289495 241.87756 
L 101.281948 242.482671 
L 101.292918 248.572077 
L 101.292371 249.794073 
L 101.299541 251.635636 
L 101.295775 252.850677 
L 101.335431 287.040885 
L 101.335547 287.647204 
L 101.338104 288.275849 
L 94.686035 309.525749 
L 101.380989 330.435873 
L 119.160215 345.898279 
L 139.061813 352.291613 
L 141.973862 352.956927 
L 141.978557 354.190604 
L 141.98205 355.407115 
L 110.737107 367.899894 
L 108.917952 368.509006 
L 92.168828 373.814178 
L 88.034128 374.344643 
L 87.170418 374.330807 
L 81.390388 373.067757 
L 71.552106 369.808681 
L 67.839779 366.712197 
L 64.183854 362.362186 
L 63.327848 360.533515 
L 63.323141 359.30894 
" style="fill:none;stroke:#000000;stroke-linecap:round;"/>
   </g>
   <g id="line2d_9">
    <path clip-path="url(#pc50a432ebd)" d="M 63.853209 57.897127 
L 64.756228 56.06749 
L 67.495608 51.24612 
L 76.250538 44.007454 
L 78.225278 42.802303 
L 80.542268 41.596047 
L 84.101444 41.690282 
L 101.070502 43.688589 
L 123.818292 50.648296 
L 125.695758 60.394447 
L 124.769688 64.090227 
L 123.836981 67.139262 
L 101.123153 90.102067 
L 98.929073 94.962435 
L 84.183174 111.885378 
L 81.103121 110.625753 
L 80.618802 109.98126 
L 74.556332 92.227487 
L 63.865856 68.277655 
L 63.853209 57.897127 
" style="fill:none;stroke:#000000;stroke-linecap:round;"/>
   </g>
   <g id="line2d_10">
    <path clip-path="url(#pc50a432ebd)" d="M 172.40219 60.920725 
L 172.411386 60.296992 
L 181.919931 48.773895 
L 202.754421 42.921386 
L 219.877855 40.005763 
L 223.466867 39.439381 
L 226.163563 39.462633 
L 243.743188 42.098517 
L 245.216975 43.888511 
L 247.092495 48.252753 
L 247.997272 51.290784 
L 247.998323 52.520504 
L 247.997264 53.107009 
L 246.217618 67.215654 
L 243.157037 76.365061 
L 226.223285 95.08613 
L 223.531036 96.885023 
L 219.942282 96.83599 
L 219.057585 96.79656 
L 218.178652 95.606099 
L 217.308617 94.37773 
L 202.218629 74.047819 
L 181.939016 65.273532 
L 172.407575 61.529799 
L 172.40219 60.920725 
" style="fill:none;stroke:#000000;stroke-linecap:round;"/>
   </g>
   <g id="line2d_11">
    <path clip-path="url(#pc50a432ebd)" d="M 178.766216 355.805918 
L 178.766914 355.199166 
L 182.244744 349.158525 
L 200.07921 333.415405 
L 215.609549 314.653185 
L 218.412497 301.829278 
L 222.098693 295.795969 
L 224.427886 298.862302 
L 236.975793 321.626343 
L 243.442653 330.928395 
L 246.529742 351.165023 
L 246.532911 354.830939 
L 246.533 357.27125 
L 243.47451 362.778175 
L 233.287418 367.564862 
L 230.139765 368.074196 
L 212.923125 366.069205 
L 203.670501 364.7235 
L 178.769129 356.452151 
L 178.766216 355.805918 
" style="fill:none;stroke:#000000;stroke-linecap:round;"/>
   </g>
   <g id="line2d_12">
    <path clip-path="url(#pc50a432ebd)" d="M 212.194613 239.429057 
L 215.49861 215.71553 
L 218.29325 198.063866 
L 219.160483 189.518043 
L 219.136624 165.756864 
L 217.380573 154.181651 
L 217.376005 153.572059 
L 217.371039 152.962898 
L 217.372515 152.355635 
L 219.986073 135.29792 
L 225.278498 134.146772 
L 233.030507 136.673734 
L 233.035872 139.119535 
L 233.03327 140.339908 
L 233.039417 148.86379 
L 233.047242 149.489091 
L 233.049554 154.971746 
L 233.048092 155.578917 
L 233.053449 158.004133 
L 233.059478 159.843185 
L 233.057916 164.118337 
L 233.060353 165.953603 
L 233.06166 166.565165 
L 233.061361 167.150985 
L 233.098995 195.207595 
L 239.565292 215.362005 
L 235.977721 242.755909 
L 235.097568 255.551477 
L 233.166911 262.91447 
L 222.084746 284.795123 
L 219.255563 283.47482 
L 215.565098 278.587365 
L 212.219538 262.618762 
L 212.218643 262.015949 
L 212.210673 254.694072 
L 212.194613 239.429057 
" style="fill:none;stroke:#000000;stroke-linecap:round;"/>
   </g>
   <g id="matplotlib.axis_1">
    <g id="xtick_1">
     <g id="line2d_13">
      <defs>
       <path d="M 0 0 
L 0 3.5 
" id="m43b0c1bae1" style="stroke:#000000;stroke-width:0.8;"/>
      </defs>
      <g>
       <use style="stroke:#000000;stroke-width:0.8;" x="58.901299" xlink:href="#m43b0c1bae1" y="402.2"/>
      </g>
     </g>
     <g id="text_1">
      <!-- −10 -->
      <defs>
       <path d="M 10.59375 35.5 
L 73.1875 35.5 
L 73.1875 27.203125 
L 10.59375 27.203125 
z
" id="DejaVuSans-8722"/>
       <path d="M 12.40625 8.296875 
L 28.515625 8.296875 
L 28.515625 63.921875 
L 10.984375 60.40625 
L 10.984375 69.390625 
L 28.421875 72.90625 
L 38.28125 72.90625 
L 38.28125 8.296875 
L 54.390625 8.296875 
L 54.390625 0 
L 12.40625 0 
z
" id="DejaVuSans-49"/>
       <path d="M 31.78125 66.40625 
Q 24.171875 66.40625 20.328125 58.90625 
Q 16.5 51.421875 16.5 36.375 
Q 16.5 21.390625 20.328125 13.890625 
Q 24.171875 6.390625 31.78125 6.390625 
Q 39.453125 6.390625 43.28125 13.890625 
Q 47.125 21.390625 47.125 36.375 
Q 47.125 51.421875 43.28125 58.90625 
Q 39.453125 66.40625 31.78125 66.40625 
z
M 31.78125 74.21875 
Q 44.046875 74.21875 50.515625 64.515625 
Q 56.984375 54.828125 56.984375 36.375 
Q 56.984375 17.96875 50.515625 8.265625 
Q 44.046875 -1.421875 31.78125 -1.421875 
Q 19.53125 -1.421875 13.0625 8.265625 
Q 6.59375 17.96875 6.59375 36.375 
Q 6.59375 54.828125 13.0625 64.515625 
Q 19.53125 74.21875 31.78125 74.21875 
z
" id="DejaVuSans-48"/>
      </defs>
      <g transform="translate(46.238486 418.318125)scale(0.12 -0.12)">
       <use xlink:href="#DejaVuSans-8722"/>
       <use x="83.789062" xlink:href="#DejaVuSans-49"/>
       <use x="147.412109" xlink:href="#DejaVuSans-48"/>
      </g>
     </g>
    </g>
    <g id="xtick_2">
     <g id="line2d_14">
      <g>
       <use style="stroke:#000000;stroke-width:0.8;" x="109.550649" xlink:href="#m43b0c1bae1" y="402.2"/>
      </g>
     </g>
     <g id="text_2">
      <!-- −5 -->
      <defs>
       <path d="M 10.796875 72.90625 
L 49.515625 72.90625 
L 49.515625 64.59375 
L 19.828125 64.59375 
L 19.828125 46.734375 
Q 21.96875 47.46875 24.109375 47.828125 
Q 26.265625 48.1875 28.421875 48.1875 
Q 40.625 48.1875 47.75 41.5 
Q 54.890625 34.8125 54.890625 23.390625 
Q 54.890625 11.625 47.5625 5.09375 
Q 40.234375 -1.421875 26.90625 -1.421875 
Q 22.3125 -1.421875 17.546875 -0.640625 
Q 12.796875 0.140625 7.71875 1.703125 
L 7.71875 11.625 
Q 12.109375 9.234375 16.796875 8.0625 
Q 21.484375 6.890625 26.703125 6.890625 
Q 35.15625 6.890625 40.078125 11.328125 
Q 45.015625 15.765625 45.015625 23.390625 
Q 45.015625 31 40.078125 35.4375 
Q 35.15625 39.890625 26.703125 39.890625 
Q 22.75 39.890625 18.8125 39.015625 
Q 14.890625 38.140625 10.796875 36.28125 
z
" id="DejaVuSans-53"/>
      </defs>
      <g transform="translate(100.705337 418.318125)scale(0.12 -0.12)">
       <use xlink:href="#DejaVuSans-8722"/>
       <use x="83.789062" xlink:href="#DejaVuSans-53"/>
      </g>
     </g>
    </g>
    <g id="xtick_3">
     <g id="line2d_15">
      <g>
       <use style="stroke:#000000;stroke-width:0.8;" x="160.2" xlink:href="#m43b0c1bae1" y="402.2"/>
      </g>
     </g>
     <g id="text_3">
      <!-- 0 -->
      <g transform="translate(156.3825 418.318125)scale(0.12 -0.12)">
       <use xlink:href="#DejaVuSans-48"/>
      </g>
     </g>
    </g>
    <g id="xtick_4">
     <g id="line2d_16">
      <g>
       <use style="stroke:#000000;stroke-width:0.8;" x="210.849351" xlink:href="#m43b0c1bae1" y="402.2"/>
      </g>
     </g>
     <g id="text_4">
      <!-- 5 -->
      <g transform="translate(207.031851 418.318125)scale(0.12 -0.12)">
       <use xlink:href="#DejaVuSans-53"/>
      </g>
     </g>
    </g>
    <g id="xtick_5">
     <g id="line2d_17">
      <g>
       <use style="stroke:#000000;stroke-width:0.8;" x="261.498701" xlink:href="#m43b0c1bae1" y="402.2"/>
      </g>
     </g>
     <g id="text_5">
      <!-- 10 -->
      <g transform="translate(253.863701 418.318125)scale(0.12 -0.12)">
       <use xlink:href="#DejaVuSans-49"/>
       <use x="63.623047" xlink:href="#DejaVuSans-48"/>
      </g>
     </g>
    </g>
   </g>
   <g id="matplotlib.axis_2">
    <g id="ytick_1">
     <g id="line2d_18">
      <defs>
       <path d="M 0 0 
L -3.5 0 
" id="m69967a0305" style="stroke:#000000;stroke-width:0.8;"/>
      </defs>
      <g>
       <use style="stroke:#000000;stroke-width:0.8;" x="43.2" xlink:href="#m69967a0305" y="380.069845"/>
      </g>
     </g>
     <g id="text_6">
      <!-- −20 -->
      <defs>
       <path d="M 19.1875 8.296875 
L 53.609375 8.296875 
L 53.609375 0 
L 7.328125 0 
L 7.328125 8.296875 
Q 12.9375 14.109375 22.625 23.890625 
Q 32.328125 33.6875 34.8125 36.53125 
Q 39.546875 41.84375 41.421875 45.53125 
Q 43.3125 49.21875 43.3125 52.78125 
Q 43.3125 58.59375 39.234375 62.25 
Q 35.15625 65.921875 28.609375 65.921875 
Q 23.96875 65.921875 18.8125 64.3125 
Q 13.671875 62.703125 7.8125 59.421875 
L 7.8125 69.390625 
Q 13.765625 71.78125 18.9375 73 
Q 24.125 74.21875 28.421875 74.21875 
Q 39.75 74.21875 46.484375 68.546875 
Q 53.21875 62.890625 53.21875 53.421875 
Q 53.21875 48.921875 51.53125 44.890625 
Q 49.859375 40.875 45.40625 35.40625 
Q 44.1875 33.984375 37.640625 27.21875 
Q 31.109375 20.453125 19.1875 8.296875 
z
" id="DejaVuSans-50"/>
      </defs>
      <g transform="translate(10.874375 384.628907)scale(0.12 -0.12)">
       <use xlink:href="#DejaVuSans-8722"/>
       <use x="83.789062" xlink:href="#DejaVuSans-50"/>
       <use x="147.412109" xlink:href="#DejaVuSans-48"/>
      </g>
     </g>
    </g>
    <g id="ytick_2">
     <g id="line2d_19">
      <g>
       <use style="stroke:#000000;stroke-width:0.8;" x="43.2" xlink:href="#m69967a0305" y="293.284922"/>
      </g>
     </g>
     <g id="text_7">
      <!-- −10 -->
      <g transform="translate(10.874375 297.843985)scale(0.12 -0.12)">
       <use xlink:href="#DejaVuSans-8722"/>
       <use x="83.789062" xlink:href="#DejaVuSans-49"/>
       <use x="147.412109" xlink:href="#DejaVuSans-48"/>
      </g>
     </g>
    </g>
    <g id="ytick_3">
     <g id="line2d_20">
      <g>
       <use style="stroke:#000000;stroke-width:0.8;" x="43.2" xlink:href="#m69967a0305" y="206.5"/>
      </g>
     </g>
     <g id="text_8">
      <!-- 0 -->
      <g transform="translate(28.565 211.059063)scale(0.12 -0.12)">
       <use xlink:href="#DejaVuSans-48"/>
      </g>
     </g>
    </g>
    <g id="ytick_4">
     <g id="line2d_21">
      <g>
       <use style="stroke:#000000;stroke-width:0.8;" x="43.2" xlink:href="#m69967a0305" y="119.715078"/>
      </g>
     </g>
     <g id="text_9">
      <!-- 10 -->
      <g transform="translate(20.93 124.27414)scale(0.12 -0.12)">
       <use xlink:href="#DejaVuSans-49"/>
       <use x="63.623047" xlink:href="#DejaVuSans-48"/>
      </g>
     </g>
    </g>
    <g id="ytick_5">
     <g id="line2d_22">
      <g>
       <use style="stroke:#000000;stroke-width:0.8;" x="43.2" xlink:href="#m69967a0305" y="32.930155"/>
      </g>
     </g>
     <g id="text_10">
      <!-- 20 -->
      <g transform="translate(20.93 37.489218)scale(0.12 -0.12)">
       <use xlink:href="#DejaVuSans-50"/>
       <use x="63.623047" xlink:href="#DejaVuSans-48"/>
      </g>
     </g>
    </g>
   </g>
   <g id="patch_3">
    <path clip-path="url(#pc50a432ebd)" d="M 53.836364 384.409091 
L 266.563636 384.409091 
L 266.563636 28.590909 
L 53.836364 28.590909 
L 53.836364 384.409091 
M 63.323141 359.30894 
L 63.32754 356.839019 
L 63.328598 356.249865 
L 64.174018 349.495006 
L 65.067139 347.076975 
L 72.150903 330.109785 
L 74.797083 309.9048 
L 74.791716 309.277876 
L 74.794005 308.670098 
L 74.792641 308.064545 
L 74.790694 304.398033 
L 74.78247 303.790758 
L 74.767068 285.445891 
L 74.7625 284.836299 
L 74.763212 284.229634 
L 74.7368 259.8103 
L 74.736557 258.591819 
L 74.734689 257.383028 
L 74.732024 256.148237 
L 74.72923 254.324979 
L 74.727076 251.87703 
L 74.727545 250.051883 
L 76.462421 233.013268 
L 78.397546 200.129622 
L 78.39558 198.288084 
L 78.393966 196.472894 
L 78.387701 195.252165 
L 78.388902 193.43235 
L 78.383447 190.37412 
L 78.378574 186.126583 
L 78.377257 185.515021 
L 78.378075 183.677782 
L 78.372955 180.643342 
L 78.369631 178.207916 
L 78.366199 175.157416 
L 78.367896 173.34307 
L 78.368567 172.718473 
L 78.35889 167.237804 
L 78.362841 166.628908 
L 79.050519 158.735483 
L 81.132074 143.553522 
L 87.76504 133.84227 
L 91.915545 135.132932 
L 93.587651 135.753651 
L 101.201953 169.373631 
L 101.210436 175.464677 
L 101.216201 179.735277 
L 101.215701 180.951084 
L 101.214918 181.561117 
L 101.231522 195.568522 
L 101.253559 216.275347 
L 101.289495 241.87756 
L 101.281948 242.482671 
L 101.292918 248.572077 
L 101.292371 249.794073 
L 101.299541 251.635636 
L 101.295775 252.850677 
L 101.335431 287.040885 
L 101.335547 287.647204 
L 101.338104 288.275849 
L 94.686035 309.525749 
L 101.380989 330.435873 
L 119.160215 345.898279 
L 139.061813 352.291613 
L 141.973862 352.956927 
L 141.978557 354.190604 
L 141.98205 355.407115 
L 110.737107 367.899894 
L 108.917952 368.509006 
L 92.168828 373.814178 
L 88.034128 374.344643 
L 87.170418 374.330807 
L 81.390388 373.067757 
L 71.552106 369.808681 
L 67.839779 366.712197 
L 64.183854 362.362186 
L 63.327848 360.533515 
L 63.323141 359.30894 
M 63.853209 57.897127 
L 64.756228 56.06749 
L 67.495608 51.24612 
L 76.250538 44.007454 
L 78.225278 42.802303 
L 80.542268 41.596047 
L 84.101444 41.690282 
L 101.070502 43.688589 
L 123.818292 50.648296 
L 125.695758 60.394447 
L 124.769688 64.090227 
L 123.836981 67.139262 
L 101.123153 90.102067 
L 98.929073 94.962435 
L 84.183174 111.885378 
L 81.103121 110.625753 
L 80.618802 109.98126 
L 74.556332 92.227487 
L 63.865856 68.277655 
L 63.853209 57.897127 
M 172.40219 60.920725 
L 172.411386 60.296992 
L 181.919931 48.773895 
L 202.754421 42.921386 
L 219.877855 40.005763 
L 223.466867 39.439381 
L 226.163563 39.462633 
L 243.743188 42.098517 
L 245.216975 43.888511 
L 247.092495 48.252753 
L 247.997272 51.290784 
L 247.998323 52.520504 
L 247.997264 53.107009 
L 246.217618 67.215654 
L 243.157037 76.365061 
L 226.223285 95.08613 
L 223.531036 96.885023 
L 219.942282 96.83599 
L 219.057585 96.79656 
L 218.178652 95.606099 
L 217.308617 94.37773 
L 202.218629 74.047819 
L 181.939016 65.273532 
L 172.407575 61.529799 
L 172.40219 60.920725 
M 178.766216 355.805918 
L 178.766914 355.199166 
L 182.244744 349.158525 
L 200.07921 333.415405 
L 215.609549 314.653185 
L 218.412497 301.829278 
L 222.098693 295.795969 
L 224.427886 298.862302 
L 236.975793 321.626343 
L 243.442653 330.928395 
L 246.529742 351.165023 
L 246.532911 354.830939 
L 246.533 357.27125 
L 243.47451 362.778175 
L 233.287418 367.564862 
L 230.139765 368.074196 
L 212.923125 366.069205 
L 203.670501 364.7235 
L 178.769129 356.452151 
L 178.766216 355.805918 
M 212.194613 239.429057 
L 215.49861 215.71553 
L 218.29325 198.063866 
L 219.160483 189.518043 
L 219.136624 165.756864 
L 217.380573 154.181651 
L 217.376005 153.572059 
L 217.371039 152.962898 
L 217.372515 152.355635 
L 219.986073 135.29792 
L 225.278498 134.146772 
L 233.030507 136.673734 
L 233.035872 139.119535 
L 233.03327 140.339908 
L 233.039417 148.86379 
L 233.047242 149.489091 
L 233.049554 154.971746 
L 233.048092 155.578917 
L 233.053449 158.004133 
L 233.059478 159.843185 
L 233.057916 164.118337 
L 233.060353 165.953603 
L 233.06166 166.565165 
L 233.061361 167.150985 
L 233.098995 195.207595 
L 239.565292 215.362005 
L 235.977721 242.755909 
L 235.097568 255.551477 
L 233.166911 262.91447 
L 222.084746 284.795123 
L 219.255563 283.47482 
L 215.565098 278.587365 
L 212.219538 262.618762 
L 212.218643 262.015949 
L 212.210673 254.694072 
L 212.194613 239.429057 
" style="fill:#6699cc;opacity:0.4;stroke:#6699cc;stroke-linejoin:miter;"/>
   </g>
   <g id="patch_4">
    <path d="M 43.2 402.2 
L 43.2 10.8 
" style="fill:none;stroke:#000000;stroke-linecap:square;stroke-linejoin:miter;stroke-width:0.8;"/>
   </g>
   <g id="patch_5">
    <path d="M 277.2 402.2 
L 277.2 10.8 
" style="fill:none;stroke:#000000;stroke-linecap:square;stroke-linejoin:miter;stroke-width:0.8;"/>
   </g>
   <g id="patch_6">
    <path d="M 43.2 402.2 
L 277.2 402.2 
" style="fill:none;stroke:#000000;stroke-linecap:square;stroke-linejoin:miter;stroke-width:0.8;"/>
   </g>
   <g id="patch_7">
    <path d="M 43.2 10.8 
L 277.2 10.8 
" style="fill:none;stroke:#000000;stroke-linecap:square;stroke-linejoin:miter;stroke-width:0.8;"/>
   </g>
  </g>
 </g>
 <defs>
  <clipPath id="pc50a432ebd">
   <rect height="391.4" width="234" x="43.2" y="10.8"/>
  </clipPath>
 </defs>
</svg>
