<?xml version="1.0" encoding="utf-8" standalone="no"?>
<!DOCTYPE svg PUBLIC "-//W3C//DTD SVG 1.1//EN"
  "http://www.w3.org/Graphics/SVG/1.1/DTD/svg11.dtd">
<!-- Created with matplotlib (https://matplotlib.org/) -->
<svg height="360pt" version="1.1" viewBox="0 0 288 360" width="288pt" xmlns="http://www.w3.org/2000/svg" xmlns:xlink="http://www.w3.org/1999/xlink">
 <defs>
  <style type="text/css">
*{stroke-linecap:butt;stroke-linejoin:round;}
  </style>
 </defs>
 <g id="figure_1">
  <g id="patch_1">
   <path d="M 0 360 
L 288 360 
L 288 0 
L 0 0 
z
" style="fill:#ffffff;"/>
  </g>
  <g id="axes_1">
   <g id="patch_2">
    <path d="M 36 315 
L 259.2 315 
L 259.2 43.2 
L 36 43.2 
z
" style="fill:#ffffff;"/>
   </g>
   <g id="line2d_1">
    <path clip-path="url(#pb0cc339ac0)" d="M 69.48 290.538 
L 225.72 290.538 
L 225.72 67.662 
L 69.48 67.662 
L 69.48 290.538 
" style="fill:none;stroke:#000000;stroke-linecap:round;"/>
   </g>
   <g id="line2d_2">
    <path clip-path="url(#pb0cc339ac0)" d="M 76.447673 274.815866 
L 76.450904 273.268767 
L 76.451681 272.899734 
L 77.072609 268.668652 
L 77.728572 267.154056 
L 82.931325 256.526213 
L 84.874842 243.870294 
L 84.8709 243.477604 
L 84.872582 243.096906 
L 84.87158 242.717602 
L 84.87015 240.420987 
L 84.864109 240.040604 
L 84.852797 228.549818 
L 84.849442 228.167984 
L 84.849965 227.787984 
L 84.830567 212.492297 
L 84.830388 211.72907 
L 84.829016 210.971912 
L 84.827059 210.198468 
L 84.825007 209.056423 
L 84.823425 207.523087 
L 84.823769 206.379858 
L 86.097969 195.707277 
L 87.519243 175.109747 
L 87.5178 173.956252 
L 87.516614 172.81926 
L 87.512013 172.054625 
L 87.512895 170.914736 
L 87.508888 168.999134 
L 87.505309 166.338579 
L 87.504342 165.955511 
L 87.504943 164.804709 
L 87.501183 162.904008 
L 87.498742 161.378515 
L 87.49622 159.467755 
L 87.497467 158.331292 
L 87.49796 157.940059 
L 87.490852 154.507099 
L 87.493754 154.125701 
L 87.998827 149.181449 
L 89.52765 139.671832 
L 94.399308 133.588935 
L 97.447694 134.397375 
L 98.675792 134.786179 
L 104.268204 155.84493 
L 104.274434 159.660216 
L 104.278668 162.335217 
L 104.278301 163.09677 
L 104.277726 163.47888 
L 104.289921 172.252784 
L 104.306106 185.223043 
L 104.3325 201.259657 
L 104.326957 201.638685 
L 104.335014 205.452943 
L 104.334612 206.218372 
L 104.339878 207.371883 
L 104.337112 208.132956 
L 104.366238 229.548885 
L 104.366323 229.928668 
L 104.368201 230.322437 
L 99.482512 243.632866 
L 104.399699 256.730467 
L 117.457856 266.415748 
L 132.074815 270.42038 
L 134.213602 270.837117 
L 134.217051 271.609863 
L 134.219617 272.371856 
L 111.271407 280.197034 
L 109.935308 280.578567 
L 97.633721 283.9016 
L 94.596943 284.23387 
L 93.96258 284.225204 
L 89.717371 283.434059 
L 82.491532 281.392653 
L 79.76497 279.453089 
L 77.079834 276.728346 
L 76.45113 275.58291 
L 76.447673 274.815866 
" style="fill:none;stroke:#000000;stroke-linecap:round;"/>
   </g>
   <g id="line2d_3">
    <path clip-path="url(#pb0cc339ac0)" d="M 76.836987 86.018714 
L 77.50022 84.872673 
L 79.51219 81.852682 
L 85.942349 77.318555 
L 87.39272 76.563677 
L 89.09446 75.808107 
L 91.708538 75.867134 
L 104.171658 77.118826 
L 120.879035 81.47822 
L 122.257961 87.582976 
L 121.577799 89.897924 
L 120.892761 91.807766 
L 104.210328 106.191118 
L 102.598861 109.235536 
L 91.768565 119.835664 
L 89.506385 119.046664 
L 89.150671 118.642969 
L 84.69802 107.522431 
L 76.846276 92.520829 
L 76.836987 86.018714 
" style="fill:none;stroke:#000000;stroke-linecap:round;"/>
   </g>
   <g id="line2d_4">
    <path clip-path="url(#pb0cc339ac0)" d="M 156.562039 87.912624 
L 156.568793 87.521932 
L 163.552454 80.30414 
L 178.854585 76.638268 
L 191.431089 74.811991 
L 194.067081 74.457223 
L 196.0477 74.471788 
L 208.959258 76.122843 
L 210.041699 77.244052 
L 211.419196 79.977709 
L 212.08372 81.880659 
L 212.084491 82.650926 
L 212.083713 83.018298 
L 210.776632 91.855616 
L 208.528753 97.586587 
L 196.091563 109.313016 
L 194.11421 110.4398 
L 191.478409 110.409087 
L 190.828633 110.384388 
L 190.18309 109.638712 
L 189.544083 108.869291 
L 178.461067 96.135122 
L 163.566471 90.639118 
L 156.565994 88.294133 
L 156.562039 87.912624 
" style="fill:none;stroke:#000000;stroke-linecap:round;"/>
   </g>
   <g id="line2d_5">
    <path clip-path="url(#pb0cc339ac0)" d="M 161.236171 272.621656 
L 161.236684 272.241602 
L 163.791017 268.457889 
L 176.889746 258.596774 
L 188.296182 246.844569 
L 190.35484 238.81198 
L 193.062209 235.03286 
L 194.772912 236.953537 
L 203.988867 251.212388 
L 208.738527 257.038971 
L 211.005875 269.714711 
L 211.008203 272.010953 
L 211.008268 273.539506 
L 208.761925 276.988911 
L 201.279897 279.987178 
L 198.968067 280.306212 
L 186.323108 279.050334 
L 179.527411 278.207417 
L 161.238311 273.026441 
L 161.236171 272.621656 
" style="fill:none;stroke:#000000;stroke-linecap:round;"/>
   </g>
   <g id="line2d_6">
    <path clip-path="url(#pb0cc339ac0)" d="M 185.788043 199.725974 
L 188.214702 184.872388 
L 190.267257 173.815808 
L 190.904207 168.462908 
L 190.886683 153.579474 
L 189.596931 146.329037 
L 189.593577 145.947204 
L 189.589929 145.56564 
L 189.591014 145.185265 
L 191.510571 134.50072 
L 195.397654 133.779668 
L 201.091206 135.362497 
L 201.095146 136.894488 
L 201.093235 137.6589 
L 201.09775 142.998056 
L 201.103497 143.38973 
L 201.105195 146.823934 
L 201.104121 147.204251 
L 201.108056 148.723348 
L 201.112484 149.875287 
L 201.111337 152.55314 
L 201.113127 153.702706 
L 201.114087 154.085775 
L 201.113867 154.452718 
L 201.141508 172.026707 
L 205.890755 184.650948 
L 203.255822 201.809835 
L 202.609383 209.824672 
L 201.19139 214.436675 
L 193.051966 228.142193 
L 190.974039 227.315187 
L 188.263535 224.253802 
L 185.80635 214.25145 
L 185.805693 213.873863 
L 185.799839 209.287614 
L 185.788043 199.725974 
" style="fill:none;stroke:#000000;stroke-linecap:round;"/>
   </g>
   <g id="matplotlib.axis_1">
    <g id="xtick_1">
     <g id="line2d_7">
      <defs>
       <path d="M 0 0 
L 0 3.5 
" id="mcc30d7adce" style="stroke:#000000;stroke-width:0.8;"/>
      </defs>
      <g>
       <use style="stroke:#000000;stroke-width:0.8;" x="36" xlink:href="#mcc30d7adce" y="315"/>
      </g>
     </g>
     <g id="text_1">
      <!-- −15 -->
      <defs>
       <path d="M 10.59375 35.5 
L 73.1875 35.5 
L 73.1875 27.203125 
L 10.59375 27.203125 
z
" id="DejaVuSans-8722"/>
       <path d="M 12.40625 8.296875 
L 28.515625 8.296875 
L 28.515625 63.921875 
L 10.984375 60.40625 
L 10.984375 69.390625 
L 28.421875 72.90625 
L 38.28125 72.90625 
L 38.28125 8.296875 
L 54.390625 8.296875 
L 54.390625 0 
L 12.40625 0 
z
" id="DejaVuSans-49"/>
       <path d="M 10.796875 72.90625 
L 49.515625 72.90625 
L 49.515625 64.59375 
L 19.828125 64.59375 
L 19.828125 46.734375 
Q 21.96875 47.46875 24.109375 47.828125 
Q 26.265625 48.1875 28.421875 48.1875 
Q 40.625 48.1875 47.75 41.5 
Q 54.890625 34.8125 54.890625 23.390625 
Q 54.890625 11.625 47.5625 5.09375 
Q 40.234375 -1.421875 26.90625 -1.421875 
Q 22.3125 -1.421875 17.546875 -0.640625 
Q 12.796875 0.140625 7.71875 1.703125 
L 7.71875 11.625 
Q 12.109375 9.234375 16.796875 8.0625 
Q 21.484375 6.890625 26.703125 6.890625 
Q 35.15625 6.890625 40.078125 11.328125 
Q 45.015625 15.765625 45.015625 23.390625 
Q 45.015625 31 40.078125 35.4375 
Q 35.15625 39.890625 26.703125 39.890625 
Q 22.75 39.890625 18.8125 39.015625 
Q 14.890625 38.140625 10.796875 36.28125 
z
" id="DejaVuSans-53"/>
      </defs>
      <g transform="translate(23.337187 331.118125)scale(0.12 -0.12)">
       <use xlink:href="#DejaVuSans-8722"/>
       <use x="83.789062" xlink:href="#DejaVuSans-49"/>
       <use x="147.412109" xlink:href="#DejaVuSans-53"/>
      </g>
     </g>
    </g>
    <g id="xtick_2">
     <g id="line2d_8">
      <g>
       <use style="stroke:#000000;stroke-width:0.8;" x="73.2" xlink:href="#mcc30d7adce" y="315"/>
      </g>
     </g>
     <g id="text_2">
      <!-- −10 -->
      <defs>
       <path d="M 31.78125 66.40625 
Q 24.171875 66.40625 20.328125 58.90625 
Q 16.5 51.421875 16.5 36.375 
Q 16.5 21.390625 20.328125 13.890625 
Q 24.171875 6.390625 31.78125 6.390625 
Q 39.453125 6.390625 43.28125 13.890625 
Q 47.125 21.390625 47.125 36.375 
Q 47.125 51.421875 43.28125 58.90625 
Q 39.453125 66.40625 31.78125 66.40625 
z
M 31.78125 74.21875 
Q 44.046875 74.21875 50.515625 64.515625 
Q 56.984375 54.828125 56.984375 36.375 
Q 56.984375 17.96875 50.515625 8.265625 
Q 44.046875 -1.421875 31.78125 -1.421875 
Q 19.53125 -1.421875 13.0625 8.265625 
Q 6.59375 17.96875 6.59375 36.375 
Q 6.59375 54.828125 13.0625 64.515625 
Q 19.53125 74.21875 31.78125 74.21875 
z
" id="DejaVuSans-48"/>
      </defs>
      <g transform="translate(60.537188 331.118125)scale(0.12 -0.12)">
       <use xlink:href="#DejaVuSans-8722"/>
       <use x="83.789062" xlink:href="#DejaVuSans-49"/>
       <use x="147.412109" xlink:href="#DejaVuSans-48"/>
      </g>
     </g>
    </g>
    <g id="xtick_3">
     <g id="line2d_9">
      <g>
       <use style="stroke:#000000;stroke-width:0.8;" x="110.4" xlink:href="#mcc30d7adce" y="315"/>
      </g>
     </g>
     <g id="text_3">
      <!-- −5 -->
      <g transform="translate(101.554688 331.118125)scale(0.12 -0.12)">
       <use xlink:href="#DejaVuSans-8722"/>
       <use x="83.789062" xlink:href="#DejaVuSans-53"/>
      </g>
     </g>
    </g>
    <g id="xtick_4">
     <g id="line2d_10">
      <g>
       <use style="stroke:#000000;stroke-width:0.8;" x="147.6" xlink:href="#mcc30d7adce" y="315"/>
      </g>
     </g>
     <g id="text_4">
      <!-- 0 -->
      <g transform="translate(143.7825 331.118125)scale(0.12 -0.12)">
       <use xlink:href="#DejaVuSans-48"/>
      </g>
     </g>
    </g>
    <g id="xtick_5">
     <g id="line2d_11">
      <g>
       <use style="stroke:#000000;stroke-width:0.8;" x="184.8" xlink:href="#mcc30d7adce" y="315"/>
      </g>
     </g>
     <g id="text_5">
      <!-- 5 -->
      <g transform="translate(180.9825 331.118125)scale(0.12 -0.12)">
       <use xlink:href="#DejaVuSans-53"/>
      </g>
     </g>
    </g>
    <g id="xtick_6">
     <g id="line2d_12">
      <g>
       <use style="stroke:#000000;stroke-width:0.8;" x="222" xlink:href="#mcc30d7adce" y="315"/>
      </g>
     </g>
     <g id="text_6">
      <!-- 10 -->
      <g transform="translate(214.365 331.118125)scale(0.12 -0.12)">
       <use xlink:href="#DejaVuSans-49"/>
       <use x="63.623047" xlink:href="#DejaVuSans-48"/>
      </g>
     </g>
    </g>
    <g id="xtick_7">
     <g id="line2d_13">
      <g>
       <use style="stroke:#000000;stroke-width:0.8;" x="259.2" xlink:href="#mcc30d7adce" y="315"/>
      </g>
     </g>
     <g id="text_7">
      <!-- 15 -->
      <g transform="translate(251.565 331.118125)scale(0.12 -0.12)">
       <use xlink:href="#DejaVuSans-49"/>
       <use x="63.623047" xlink:href="#DejaVuSans-53"/>
      </g>
     </g>
    </g>
   </g>
   <g id="matplotlib.axis_2">
    <g id="ytick_1">
     <g id="line2d_14">
      <defs>
       <path d="M 0 0 
L -3.5 0 
" id="m92a4f21eb7" style="stroke:#000000;stroke-width:0.8;"/>
      </defs>
      <g>
       <use style="stroke:#000000;stroke-width:0.8;" x="36" xlink:href="#m92a4f21eb7" y="287.82"/>
      </g>
     </g>
     <g id="text_8">
      <!-- −20 -->
      <defs>
       <path d="M 19.1875 8.296875 
L 53.609375 8.296875 
L 53.609375 0 
L 7.328125 0 
L 7.328125 8.296875 
Q 12.9375 14.109375 22.625 23.890625 
Q 32.328125 33.6875 34.8125 36.53125 
Q 39.546875 41.84375 41.421875 45.53125 
Q 43.3125 49.21875 43.3125 52.78125 
Q 43.3125 58.59375 39.234375 62.25 
Q 35.15625 65.921875 28.609375 65.921875 
Q 23.96875 65.921875 18.8125 64.3125 
Q 13.671875 62.703125 7.8125 59.421875 
L 7.8125 69.390625 
Q 13.765625 71.78125 18.9375 73 
Q 24.125 74.21875 28.421875 74.21875 
Q 39.75 74.21875 46.484375 68.546875 
Q 53.21875 62.890625 53.21875 53.421875 
Q 53.21875 48.921875 51.53125 44.890625 
Q 49.859375 40.875 45.40625 35.40625 
Q 44.1875 33.984375 37.640625 27.21875 
Q 31.109375 20.453125 19.1875 8.296875 
z
" id="DejaVuSans-50"/>
      </defs>
      <g transform="translate(3.674375 292.379062)scale(0.12 -0.12)">
       <use xlink:href="#DejaVuSans-8722"/>
       <use x="83.789062" xlink:href="#DejaVuSans-50"/>
       <use x="147.412109" xlink:href="#DejaVuSans-48"/>
      </g>
     </g>
    </g>
    <g id="ytick_2">
     <g id="line2d_15">
      <g>
       <use style="stroke:#000000;stroke-width:0.8;" x="36" xlink:href="#m92a4f21eb7" y="233.46"/>
      </g>
     </g>
     <g id="text_9">
      <!-- −10 -->
      <g transform="translate(3.674375 238.019062)scale(0.12 -0.12)">
       <use xlink:href="#DejaVuSans-8722"/>
       <use x="83.789062" xlink:href="#DejaVuSans-49"/>
       <use x="147.412109" xlink:href="#DejaVuSans-48"/>
      </g>
     </g>
    </g>
    <g id="ytick_3">
     <g id="line2d_16">
      <g>
       <use style="stroke:#000000;stroke-width:0.8;" x="36" xlink:href="#m92a4f21eb7" y="179.1"/>
      </g>
     </g>
     <g id="text_10">
      <!-- 0 -->
      <g transform="translate(21.365 183.659063)scale(0.12 -0.12)">
       <use xlink:href="#DejaVuSans-48"/>
      </g>
     </g>
    </g>
    <g id="ytick_4">
     <g id="line2d_17">
      <g>
       <use style="stroke:#000000;stroke-width:0.8;" x="36" xlink:href="#m92a4f21eb7" y="124.74"/>
      </g>
     </g>
     <g id="text_11">
      <!-- 10 -->
      <g transform="translate(13.73 129.299063)scale(0.12 -0.12)">
       <use xlink:href="#DejaVuSans-49"/>
       <use x="63.623047" xlink:href="#DejaVuSans-48"/>
      </g>
     </g>
    </g>
    <g id="ytick_5">
     <g id="line2d_18">
      <g>
       <use style="stroke:#000000;stroke-width:0.8;" x="36" xlink:href="#m92a4f21eb7" y="70.38"/>
      </g>
     </g>
     <g id="text_12">
      <!-- 20 -->
      <g transform="translate(13.73 74.939062)scale(0.12 -0.12)">
       <use xlink:href="#DejaVuSans-50"/>
       <use x="63.623047" xlink:href="#DejaVuSans-48"/>
      </g>
     </g>
    </g>
   </g>
   <g id="patch_3">
    <path clip-path="url(#pb0cc339ac0)" d="M 69.48 290.538 
L 225.72 290.538 
L 225.72 67.662 
L 69.48 67.662 
L 69.48 290.538 
M 76.447673 274.815866 
L 76.450904 273.268767 
L 76.451681 272.899734 
L 77.072609 268.668652 
L 77.728572 267.154056 
L 82.931325 256.526213 
L 84.874842 243.870294 
L 84.8709 243.477604 
L 84.872582 243.096906 
L 84.87158 242.717602 
L 84.87015 240.420987 
L 84.864109 240.040604 
L 84.852797 228.549818 
L 84.849442 228.167984 
L 84.849965 227.787984 
L 84.830567 212.492297 
L 84.830388 211.72907 
L 84.829016 210.971912 
L 84.827059 210.198468 
L 84.825007 209.056423 
L 84.823425 207.523087 
L 84.823769 206.379858 
L 86.097969 195.707277 
L 87.519243 175.109747 
L 87.5178 173.956252 
L 87.516614 172.81926 
L 87.512013 172.054625 
L 87.512895 170.914736 
L 87.508888 168.999134 
L 87.505309 166.338579 
L 87.504342 165.955511 
L 87.504943 164.804709 
L 87.501183 162.904008 
L 87.498742 161.378515 
L 87.49622 159.467755 
L 87.497467 158.331292 
L 87.49796 157.940059 
L 87.490852 154.507099 
L 87.493754 154.125701 
L 87.998827 149.181449 
L 89.52765 139.671832 
L 94.399308 133.588935 
L 97.447694 134.397375 
L 98.675792 134.786179 
L 104.268204 155.84493 
L 104.274434 159.660216 
L 104.278668 162.335217 
L 104.278301 163.09677 
L 104.277726 163.47888 
L 104.289921 172.252784 
L 104.306106 185.223043 
L 104.3325 201.259657 
L 104.326957 201.638685 
L 104.335014 205.452943 
L 104.334612 206.218372 
L 104.339878 207.371883 
L 104.337112 208.132956 
L 104.366238 229.548885 
L 104.366323 229.928668 
L 104.368201 230.322437 
L 99.482512 243.632866 
L 104.399699 256.730467 
L 117.457856 266.415748 
L 132.074815 270.42038 
L 134.213602 270.837117 
L 134.217051 271.609863 
L 134.219617 272.371856 
L 111.271407 280.197034 
L 109.935308 280.578567 
L 97.633721 283.9016 
L 94.596943 284.23387 
L 93.96258 284.225204 
L 89.717371 283.434059 
L 82.491532 281.392653 
L 79.76497 279.453089 
L 77.079834 276.728346 
L 76.45113 275.58291 
L 76.447673 274.815866 
M 76.836987 86.018714 
L 77.50022 84.872673 
L 79.51219 81.852682 
L 85.942349 77.318555 
L 87.39272 76.563677 
L 89.09446 75.808107 
L 91.708538 75.867134 
L 104.171658 77.118826 
L 120.879035 81.47822 
L 122.257961 87.582976 
L 121.577799 89.897924 
L 120.892761 91.807766 
L 104.210328 106.191118 
L 102.598861 109.235536 
L 91.768565 119.835664 
L 89.506385 119.046664 
L 89.150671 118.642969 
L 84.69802 107.522431 
L 76.846276 92.520829 
L 76.836987 86.018714 
M 156.562039 87.912624 
L 156.568793 87.521932 
L 163.552454 80.30414 
L 178.854585 76.638268 
L 191.431089 74.811991 
L 194.067081 74.457223 
L 196.0477 74.471788 
L 208.959258 76.122843 
L 210.041699 77.244052 
L 211.419196 79.977709 
L 212.08372 81.880659 
L 212.084491 82.650926 
L 212.083713 83.018298 
L 210.776632 91.855616 
L 208.528753 97.586587 
L 196.091563 109.313016 
L 194.11421 110.4398 
L 191.478409 110.409087 
L 190.828633 110.384388 
L 190.18309 109.638712 
L 189.544083 108.869291 
L 178.461067 96.135122 
L 163.566471 90.639118 
L 156.565994 88.294133 
L 156.562039 87.912624 
M 161.236171 272.621656 
L 161.236684 272.241602 
L 163.791017 268.457889 
L 176.889746 258.596774 
L 188.296182 246.844569 
L 190.35484 238.81198 
L 193.062209 235.03286 
L 194.772912 236.953537 
L 203.988867 251.212388 
L 208.738527 257.038971 
L 211.005875 269.714711 
L 211.008203 272.010953 
L 211.008268 273.539506 
L 208.761925 276.988911 
L 201.279897 279.987178 
L 198.968067 280.306212 
L 186.323108 279.050334 
L 179.527411 278.207417 
L 161.238311 273.026441 
L 161.236171 272.621656 
M 185.788043 199.725974 
L 188.214702 184.872388 
L 190.267257 173.815808 
L 190.904207 168.462908 
L 190.886683 153.579474 
L 189.596931 146.329037 
L 189.593577 145.947204 
L 189.589929 145.56564 
L 189.591014 145.185265 
L 191.510571 134.50072 
L 195.397654 133.779668 
L 201.091206 135.362497 
L 201.095146 136.894488 
L 201.093235 137.6589 
L 201.09775 142.998056 
L 201.103497 143.38973 
L 201.105195 146.823934 
L 201.104121 147.204251 
L 201.108056 148.723348 
L 201.112484 149.875287 
L 201.111337 152.55314 
L 201.113127 153.702706 
L 201.114087 154.085775 
L 201.113867 154.452718 
L 201.141508 172.026707 
L 205.890755 184.650948 
L 203.255822 201.809835 
L 202.609383 209.824672 
L 201.19139 214.436675 
L 193.051966 228.142193 
L 190.974039 227.315187 
L 188.263535 224.253802 
L 185.80635 214.25145 
L 185.805693 213.873863 
L 185.799839 209.287614 
L 185.788043 199.725974 
" style="fill:#6699cc;opacity:0.5;stroke:#6699cc;stroke-linejoin:miter;"/>
   </g>
   <g id="patch_4">
    <path d="M 36 315 
L 36 43.2 
" style="fill:none;stroke:#000000;stroke-linecap:square;stroke-linejoin:miter;stroke-width:0.8;"/>
   </g>
   <g id="patch_5">
    <path d="M 259.2 315 
L 259.2 43.2 
" style="fill:none;stroke:#000000;stroke-linecap:square;stroke-linejoin:miter;stroke-width:0.8;"/>
   </g>
   <g id="patch_6">
    <path d="M 36 315 
L 259.2 315 
" style="fill:none;stroke:#000000;stroke-linecap:square;stroke-linejoin:miter;stroke-width:0.8;"/>
   </g>
   <g id="patch_7">
    <path d="M 36 43.2 
L 259.2 43.2 
" style="fill:none;stroke:#000000;stroke-linecap:square;stroke-linejoin:miter;stroke-width:0.8;"/>
   </g>
   <g id="text_13">
    <!-- Red Line - Inside polygon, Green Line - - Outside polygon/in Holes. Red dots - intersection point -->
    <defs>
     <path d="M 44.390625 34.1875 
Q 47.5625 33.109375 50.5625 29.59375 
Q 53.5625 26.078125 56.59375 19.921875 
L 66.609375 0 
L 56 0 
L 46.6875 18.703125 
Q 43.0625 26.03125 39.671875 28.421875 
Q 36.28125 30.8125 30.421875 30.8125 
L 19.671875 30.8125 
L 19.671875 0 
L 9.8125 0 
L 9.8125 72.90625 
L 32.078125 72.90625 
Q 44.578125 72.90625 50.734375 67.671875 
Q 56.890625 62.453125 56.890625 51.90625 
Q 56.890625 45.015625 53.6875 40.46875 
Q 50.484375 35.9375 44.390625 34.1875 
z
M 19.671875 64.796875 
L 19.671875 38.921875 
L 32.078125 38.921875 
Q 39.203125 38.921875 42.84375 42.21875 
Q 46.484375 45.515625 46.484375 51.90625 
Q 46.484375 58.296875 42.84375 61.546875 
Q 39.203125 64.796875 32.078125 64.796875 
z
" id="DejaVuSans-82"/>
     <path d="M 56.203125 29.59375 
L 56.203125 25.203125 
L 14.890625 25.203125 
Q 15.484375 15.921875 20.484375 11.0625 
Q 25.484375 6.203125 34.421875 6.203125 
Q 39.59375 6.203125 44.453125 7.46875 
Q 49.3125 8.734375 54.109375 11.28125 
L 54.109375 2.78125 
Q 49.265625 0.734375 44.1875 -0.34375 
Q 39.109375 -1.421875 33.890625 -1.421875 
Q 20.796875 -1.421875 13.15625 6.1875 
Q 5.515625 13.8125 5.515625 26.8125 
Q 5.515625 40.234375 12.765625 48.109375 
Q 20.015625 56 32.328125 56 
Q 43.359375 56 49.78125 48.890625 
Q 56.203125 41.796875 56.203125 29.59375 
z
M 47.21875 32.234375 
Q 47.125 39.59375 43.09375 43.984375 
Q 39.0625 48.390625 32.421875 48.390625 
Q 24.90625 48.390625 20.390625 44.140625 
Q 15.875 39.890625 15.1875 32.171875 
z
" id="DejaVuSans-101"/>
     <path d="M 45.40625 46.390625 
L 45.40625 75.984375 
L 54.390625 75.984375 
L 54.390625 0 
L 45.40625 0 
L 45.40625 8.203125 
Q 42.578125 3.328125 38.25 0.953125 
Q 33.9375 -1.421875 27.875 -1.421875 
Q 17.96875 -1.421875 11.734375 6.484375 
Q 5.515625 14.40625 5.515625 27.296875 
Q 5.515625 40.1875 11.734375 48.09375 
Q 17.96875 56 27.875 56 
Q 33.9375 56 38.25 53.625 
Q 42.578125 51.265625 45.40625 46.390625 
z
M 14.796875 27.296875 
Q 14.796875 17.390625 18.875 11.75 
Q 22.953125 6.109375 30.078125 6.109375 
Q 37.203125 6.109375 41.296875 11.75 
Q 45.40625 17.390625 45.40625 27.296875 
Q 45.40625 37.203125 41.296875 42.84375 
Q 37.203125 48.484375 30.078125 48.484375 
Q 22.953125 48.484375 18.875 42.84375 
Q 14.796875 37.203125 14.796875 27.296875 
z
" id="DejaVuSans-100"/>
     <path id="DejaVuSans-32"/>
     <path d="M 9.8125 72.90625 
L 19.671875 72.90625 
L 19.671875 8.296875 
L 55.171875 8.296875 
L 55.171875 0 
L 9.8125 0 
z
" id="DejaVuSans-76"/>
     <path d="M 9.421875 54.6875 
L 18.40625 54.6875 
L 18.40625 0 
L 9.421875 0 
z
M 9.421875 75.984375 
L 18.40625 75.984375 
L 18.40625 64.59375 
L 9.421875 64.59375 
z
" id="DejaVuSans-105"/>
     <path d="M 54.890625 33.015625 
L 54.890625 0 
L 45.90625 0 
L 45.90625 32.71875 
Q 45.90625 40.484375 42.875 44.328125 
Q 39.84375 48.1875 33.796875 48.1875 
Q 26.515625 48.1875 22.3125 43.546875 
Q 18.109375 38.921875 18.109375 30.90625 
L 18.109375 0 
L 9.078125 0 
L 9.078125 54.6875 
L 18.109375 54.6875 
L 18.109375 46.1875 
Q 21.34375 51.125 25.703125 53.5625 
Q 30.078125 56 35.796875 56 
Q 45.21875 56 50.046875 50.171875 
Q 54.890625 44.34375 54.890625 33.015625 
z
" id="DejaVuSans-110"/>
     <path d="M 4.890625 31.390625 
L 31.203125 31.390625 
L 31.203125 23.390625 
L 4.890625 23.390625 
z
" id="DejaVuSans-45"/>
     <path d="M 9.8125 72.90625 
L 19.671875 72.90625 
L 19.671875 0 
L 9.8125 0 
z
" id="DejaVuSans-73"/>
     <path d="M 44.28125 53.078125 
L 44.28125 44.578125 
Q 40.484375 46.53125 36.375 47.5 
Q 32.28125 48.484375 27.875 48.484375 
Q 21.1875 48.484375 17.84375 46.4375 
Q 14.5 44.390625 14.5 40.28125 
Q 14.5 37.15625 16.890625 35.375 
Q 19.28125 33.59375 26.515625 31.984375 
L 29.59375 31.296875 
Q 39.15625 29.25 43.1875 25.515625 
Q 47.21875 21.78125 47.21875 15.09375 
Q 47.21875 7.46875 41.1875 3.015625 
Q 35.15625 -1.421875 24.609375 -1.421875 
Q 20.21875 -1.421875 15.453125 -0.5625 
Q 10.6875 0.296875 5.421875 2 
L 5.421875 11.28125 
Q 10.40625 8.6875 15.234375 7.390625 
Q 20.0625 6.109375 24.8125 6.109375 
Q 31.15625 6.109375 34.5625 8.28125 
Q 37.984375 10.453125 37.984375 14.40625 
Q 37.984375 18.0625 35.515625 20.015625 
Q 33.0625 21.96875 24.703125 23.78125 
L 21.578125 24.515625 
Q 13.234375 26.265625 9.515625 29.90625 
Q 5.8125 33.546875 5.8125 39.890625 
Q 5.8125 47.609375 11.28125 51.796875 
Q 16.75 56 26.8125 56 
Q 31.78125 56 36.171875 55.265625 
Q 40.578125 54.546875 44.28125 53.078125 
z
" id="DejaVuSans-115"/>
     <path d="M 18.109375 8.203125 
L 18.109375 -20.796875 
L 9.078125 -20.796875 
L 9.078125 54.6875 
L 18.109375 54.6875 
L 18.109375 46.390625 
Q 20.953125 51.265625 25.265625 53.625 
Q 29.59375 56 35.59375 56 
Q 45.5625 56 51.78125 48.09375 
Q 58.015625 40.1875 58.015625 27.296875 
Q 58.015625 14.40625 51.78125 6.484375 
Q 45.5625 -1.421875 35.59375 -1.421875 
Q 29.59375 -1.421875 25.265625 0.953125 
Q 20.953125 3.328125 18.109375 8.203125 
z
M 48.6875 27.296875 
Q 48.6875 37.203125 44.609375 42.84375 
Q 40.53125 48.484375 33.40625 48.484375 
Q 26.265625 48.484375 22.1875 42.84375 
Q 18.109375 37.203125 18.109375 27.296875 
Q 18.109375 17.390625 22.1875 11.75 
Q 26.265625 6.109375 33.40625 6.109375 
Q 40.53125 6.109375 44.609375 11.75 
Q 48.6875 17.390625 48.6875 27.296875 
z
" id="DejaVuSans-112"/>
     <path d="M 30.609375 48.390625 
Q 23.390625 48.390625 19.1875 42.75 
Q 14.984375 37.109375 14.984375 27.296875 
Q 14.984375 17.484375 19.15625 11.84375 
Q 23.34375 6.203125 30.609375 6.203125 
Q 37.796875 6.203125 41.984375 11.859375 
Q 46.1875 17.53125 46.1875 27.296875 
Q 46.1875 37.015625 41.984375 42.703125 
Q 37.796875 48.390625 30.609375 48.390625 
z
M 30.609375 56 
Q 42.328125 56 49.015625 48.375 
Q 55.71875 40.765625 55.71875 27.296875 
Q 55.71875 13.875 49.015625 6.21875 
Q 42.328125 -1.421875 30.609375 -1.421875 
Q 18.84375 -1.421875 12.171875 6.21875 
Q 5.515625 13.875 5.515625 27.296875 
Q 5.515625 40.765625 12.171875 48.375 
Q 18.84375 56 30.609375 56 
z
" id="DejaVuSans-111"/>
     <path d="M 9.421875 75.984375 
L 18.40625 75.984375 
L 18.40625 0 
L 9.421875 0 
z
" id="DejaVuSans-108"/>
     <path d="M 32.171875 -5.078125 
Q 28.375 -14.84375 24.75 -17.8125 
Q 21.140625 -20.796875 15.09375 -20.796875 
L 7.90625 -20.796875 
L 7.90625 -13.28125 
L 13.1875 -13.28125 
Q 16.890625 -13.28125 18.9375 -11.515625 
Q 21 -9.765625 23.484375 -3.21875 
L 25.09375 0.875 
L 2.984375 54.6875 
L 12.5 54.6875 
L 29.59375 11.921875 
L 46.6875 54.6875 
L 56.203125 54.6875 
z
" id="DejaVuSans-121"/>
     <path d="M 45.40625 27.984375 
Q 45.40625 37.75 41.375 43.109375 
Q 37.359375 48.484375 30.078125 48.484375 
Q 22.859375 48.484375 18.828125 43.109375 
Q 14.796875 37.75 14.796875 27.984375 
Q 14.796875 18.265625 18.828125 12.890625 
Q 22.859375 7.515625 30.078125 7.515625 
Q 37.359375 7.515625 41.375 12.890625 
Q 45.40625 18.265625 45.40625 27.984375 
z
M 54.390625 6.78125 
Q 54.390625 -7.171875 48.1875 -13.984375 
Q 42 -20.796875 29.203125 -20.796875 
Q 24.46875 -20.796875 20.265625 -20.09375 
Q 16.0625 -19.390625 12.109375 -17.921875 
L 12.109375 -9.1875 
Q 16.0625 -11.328125 19.921875 -12.34375 
Q 23.78125 -13.375 27.78125 -13.375 
Q 36.625 -13.375 41.015625 -8.765625 
Q 45.40625 -4.15625 45.40625 5.171875 
L 45.40625 9.625 
Q 42.625 4.78125 38.28125 2.390625 
Q 33.9375 0 27.875 0 
Q 17.828125 0 11.671875 7.65625 
Q 5.515625 15.328125 5.515625 27.984375 
Q 5.515625 40.671875 11.671875 48.328125 
Q 17.828125 56 27.875 56 
Q 33.9375 56 38.28125 53.609375 
Q 42.625 51.21875 45.40625 46.390625 
L 45.40625 54.6875 
L 54.390625 54.6875 
z
" id="DejaVuSans-103"/>
     <path d="M 11.71875 12.40625 
L 22.015625 12.40625 
L 22.015625 4 
L 14.015625 -11.625 
L 7.71875 -11.625 
L 11.71875 4 
z
" id="DejaVuSans-44"/>
     <path d="M 59.515625 10.40625 
L 59.515625 29.984375 
L 43.40625 29.984375 
L 43.40625 38.09375 
L 69.28125 38.09375 
L 69.28125 6.78125 
Q 63.578125 2.734375 56.6875 0.65625 
Q 49.8125 -1.421875 42 -1.421875 
Q 24.90625 -1.421875 15.25 8.5625 
Q 5.609375 18.5625 5.609375 36.375 
Q 5.609375 54.25 15.25 64.234375 
Q 24.90625 74.21875 42 74.21875 
Q 49.125 74.21875 55.546875 72.453125 
Q 61.96875 70.703125 67.390625 67.28125 
L 67.390625 56.78125 
Q 61.921875 61.421875 55.765625 63.765625 
Q 49.609375 66.109375 42.828125 66.109375 
Q 29.4375 66.109375 22.71875 58.640625 
Q 16.015625 51.171875 16.015625 36.375 
Q 16.015625 21.625 22.71875 14.15625 
Q 29.4375 6.6875 42.828125 6.6875 
Q 48.046875 6.6875 52.140625 7.59375 
Q 56.25 8.5 59.515625 10.40625 
z
" id="DejaVuSans-71"/>
     <path d="M 41.109375 46.296875 
Q 39.59375 47.171875 37.8125 47.578125 
Q 36.03125 48 33.890625 48 
Q 26.265625 48 22.1875 43.046875 
Q 18.109375 38.09375 18.109375 28.8125 
L 18.109375 0 
L 9.078125 0 
L 9.078125 54.6875 
L 18.109375 54.6875 
L 18.109375 46.1875 
Q 20.953125 51.171875 25.484375 53.578125 
Q 30.03125 56 36.53125 56 
Q 37.453125 56 38.578125 55.875 
Q 39.703125 55.765625 41.0625 55.515625 
z
" id="DejaVuSans-114"/>
     <path d="M 39.40625 66.21875 
Q 28.65625 66.21875 22.328125 58.203125 
Q 16.015625 50.203125 16.015625 36.375 
Q 16.015625 22.609375 22.328125 14.59375 
Q 28.65625 6.59375 39.40625 6.59375 
Q 50.140625 6.59375 56.421875 14.59375 
Q 62.703125 22.609375 62.703125 36.375 
Q 62.703125 50.203125 56.421875 58.203125 
Q 50.140625 66.21875 39.40625 66.21875 
z
M 39.40625 74.21875 
Q 54.734375 74.21875 63.90625 63.9375 
Q 73.09375 53.65625 73.09375 36.375 
Q 73.09375 19.140625 63.90625 8.859375 
Q 54.734375 -1.421875 39.40625 -1.421875 
Q 24.03125 -1.421875 14.8125 8.828125 
Q 5.609375 19.09375 5.609375 36.375 
Q 5.609375 53.65625 14.8125 63.9375 
Q 24.03125 74.21875 39.40625 74.21875 
z
" id="DejaVuSans-79"/>
     <path d="M 8.5 21.578125 
L 8.5 54.6875 
L 17.484375 54.6875 
L 17.484375 21.921875 
Q 17.484375 14.15625 20.5 10.265625 
Q 23.53125 6.390625 29.59375 6.390625 
Q 36.859375 6.390625 41.078125 11.03125 
Q 45.3125 15.671875 45.3125 23.6875 
L 45.3125 54.6875 
L 54.296875 54.6875 
L 54.296875 0 
L 45.3125 0 
L 45.3125 8.40625 
Q 42.046875 3.421875 37.71875 1 
Q 33.40625 -1.421875 27.6875 -1.421875 
Q 18.265625 -1.421875 13.375 4.4375 
Q 8.5 10.296875 8.5 21.578125 
z
M 31.109375 56 
z
" id="DejaVuSans-117"/>
     <path d="M 18.3125 70.21875 
L 18.3125 54.6875 
L 36.8125 54.6875 
L 36.8125 47.703125 
L 18.3125 47.703125 
L 18.3125 18.015625 
Q 18.3125 11.328125 20.140625 9.421875 
Q 21.96875 7.515625 27.59375 7.515625 
L 36.8125 7.515625 
L 36.8125 0 
L 27.59375 0 
Q 17.1875 0 13.234375 3.875 
Q 9.28125 7.765625 9.28125 18.015625 
L 9.28125 47.703125 
L 2.6875 47.703125 
L 2.6875 54.6875 
L 9.28125 54.6875 
L 9.28125 70.21875 
z
" id="DejaVuSans-116"/>
     <path d="M 25.390625 72.90625 
L 33.6875 72.90625 
L 8.296875 -9.28125 
L 0 -9.28125 
z
" id="DejaVuSans-47"/>
     <path d="M 9.8125 72.90625 
L 19.671875 72.90625 
L 19.671875 43.015625 
L 55.515625 43.015625 
L 55.515625 72.90625 
L 65.375 72.90625 
L 65.375 0 
L 55.515625 0 
L 55.515625 34.71875 
L 19.671875 34.71875 
L 19.671875 0 
L 9.8125 0 
z
" id="DejaVuSans-72"/>
     <path d="M 10.6875 12.40625 
L 21 12.40625 
L 21 0 
L 10.6875 0 
z
" id="DejaVuSans-46"/>
     <path d="M 48.78125 52.59375 
L 48.78125 44.1875 
Q 44.96875 46.296875 41.140625 47.34375 
Q 37.3125 48.390625 33.40625 48.390625 
Q 24.65625 48.390625 19.8125 42.84375 
Q 14.984375 37.3125 14.984375 27.296875 
Q 14.984375 17.28125 19.8125 11.734375 
Q 24.65625 6.203125 33.40625 6.203125 
Q 37.3125 6.203125 41.140625 7.25 
Q 44.96875 8.296875 48.78125 10.40625 
L 48.78125 2.09375 
Q 45.015625 0.34375 40.984375 -0.53125 
Q 36.96875 -1.421875 32.421875 -1.421875 
Q 20.0625 -1.421875 12.78125 6.34375 
Q 5.515625 14.109375 5.515625 27.296875 
Q 5.515625 40.671875 12.859375 48.328125 
Q 20.21875 56 33.015625 56 
Q 37.15625 56 41.109375 55.140625 
Q 45.0625 54.296875 48.78125 52.59375 
z
" id="DejaVuSans-99"/>
    </defs>
    <g transform="translate(-136.45875 37.2)scale(0.12 -0.12)">
     <use xlink:href="#DejaVuSans-82"/>
     <use x="64.982422" xlink:href="#DejaVuSans-101"/>
     <use x="126.505859" xlink:href="#DejaVuSans-100"/>
     <use x="189.982422" xlink:href="#DejaVuSans-32"/>
     <use x="221.769531" xlink:href="#DejaVuSans-76"/>
     <use x="277.482422" xlink:href="#DejaVuSans-105"/>
     <use x="305.265625" xlink:href="#DejaVuSans-110"/>
     <use x="368.644531" xlink:href="#DejaVuSans-101"/>
     <use x="430.167969" xlink:href="#DejaVuSans-32"/>
     <use x="461.955078" xlink:href="#DejaVuSans-45"/>
     <use x="498.039062" xlink:href="#DejaVuSans-32"/>
     <use x="529.826172" xlink:href="#DejaVuSans-73"/>
     <use x="559.318359" xlink:href="#DejaVuSans-110"/>
     <use x="622.697266" xlink:href="#DejaVuSans-115"/>
     <use x="674.796875" xlink:href="#DejaVuSans-105"/>
     <use x="702.580078" xlink:href="#DejaVuSans-100"/>
     <use x="766.056641" xlink:href="#DejaVuSans-101"/>
     <use x="827.580078" xlink:href="#DejaVuSans-32"/>
     <use x="859.367188" xlink:href="#DejaVuSans-112"/>
     <use x="922.84375" xlink:href="#DejaVuSans-111"/>
     <use x="984.025391" xlink:href="#DejaVuSans-108"/>
     <use x="1011.808594" xlink:href="#DejaVuSans-121"/>
     <use x="1070.988281" xlink:href="#DejaVuSans-103"/>
     <use x="1134.464844" xlink:href="#DejaVuSans-111"/>
     <use x="1195.646484" xlink:href="#DejaVuSans-110"/>
     <use x="1259.025391" xlink:href="#DejaVuSans-44"/>
     <use x="1290.8125" xlink:href="#DejaVuSans-32"/>
     <use x="1322.599609" xlink:href="#DejaVuSans-71"/>
     <use x="1400.089844" xlink:href="#DejaVuSans-114"/>
     <use x="1438.953125" xlink:href="#DejaVuSans-101"/>
     <use x="1500.476562" xlink:href="#DejaVuSans-101"/>
     <use x="1562" xlink:href="#DejaVuSans-110"/>
     <use x="1625.378906" xlink:href="#DejaVuSans-32"/>
     <use x="1657.166016" xlink:href="#DejaVuSans-76"/>
     <use x="1712.878906" xlink:href="#DejaVuSans-105"/>
     <use x="1740.662109" xlink:href="#DejaVuSans-110"/>
     <use x="1804.041016" xlink:href="#DejaVuSans-101"/>
     <use x="1865.564453" xlink:href="#DejaVuSans-32"/>
     <use x="1897.351562" xlink:href="#DejaVuSans-45"/>
     <use x="1933.435547" xlink:href="#DejaVuSans-45"/>
     <use x="1969.519531" xlink:href="#DejaVuSans-32"/>
     <use x="2001.306641" xlink:href="#DejaVuSans-79"/>
     <use x="2080.017578" xlink:href="#DejaVuSans-117"/>
     <use x="2143.396484" xlink:href="#DejaVuSans-116"/>
     <use x="2182.605469" xlink:href="#DejaVuSans-115"/>
     <use x="2234.705078" xlink:href="#DejaVuSans-105"/>
     <use x="2262.488281" xlink:href="#DejaVuSans-100"/>
     <use x="2325.964844" xlink:href="#DejaVuSans-101"/>
     <use x="2387.488281" xlink:href="#DejaVuSans-32"/>
     <use x="2419.275391" xlink:href="#DejaVuSans-112"/>
     <use x="2482.751953" xlink:href="#DejaVuSans-111"/>
     <use x="2543.933594" xlink:href="#DejaVuSans-108"/>
     <use x="2571.716797" xlink:href="#DejaVuSans-121"/>
     <use x="2630.896484" xlink:href="#DejaVuSans-103"/>
     <use x="2694.373047" xlink:href="#DejaVuSans-111"/>
     <use x="2755.554688" xlink:href="#DejaVuSans-110"/>
     <use x="2818.933594" xlink:href="#DejaVuSans-47"/>
     <use x="2852.625" xlink:href="#DejaVuSans-105"/>
     <use x="2880.408203" xlink:href="#DejaVuSans-110"/>
     <use x="2943.787109" xlink:href="#DejaVuSans-32"/>
     <use x="2975.574219" xlink:href="#DejaVuSans-72"/>
     <use x="3050.769531" xlink:href="#DejaVuSans-111"/>
     <use x="3111.951172" xlink:href="#DejaVuSans-108"/>
     <use x="3139.734375" xlink:href="#DejaVuSans-101"/>
     <use x="3201.257812" xlink:href="#DejaVuSans-115"/>
     <use x="3253.357422" xlink:href="#DejaVuSans-46"/>
     <use x="3285.144531" xlink:href="#DejaVuSans-32"/>
     <use x="3316.931641" xlink:href="#DejaVuSans-82"/>
     <use x="3381.914062" xlink:href="#DejaVuSans-101"/>
     <use x="3443.4375" xlink:href="#DejaVuSans-100"/>
     <use x="3506.914062" xlink:href="#DejaVuSans-32"/>
     <use x="3538.701172" xlink:href="#DejaVuSans-100"/>
     <use x="3602.177734" xlink:href="#DejaVuSans-111"/>
     <use x="3663.359375" xlink:href="#DejaVuSans-116"/>
     <use x="3702.568359" xlink:href="#DejaVuSans-115"/>
     <use x="3754.667969" xlink:href="#DejaVuSans-32"/>
     <use x="3786.455078" xlink:href="#DejaVuSans-45"/>
     <use x="3822.539062" xlink:href="#DejaVuSans-32"/>
     <use x="3854.326172" xlink:href="#DejaVuSans-105"/>
     <use x="3882.109375" xlink:href="#DejaVuSans-110"/>
     <use x="3945.488281" xlink:href="#DejaVuSans-116"/>
     <use x="3984.697266" xlink:href="#DejaVuSans-101"/>
     <use x="4046.220703" xlink:href="#DejaVuSans-114"/>
     <use x="4087.333984" xlink:href="#DejaVuSans-115"/>
     <use x="4139.433594" xlink:href="#DejaVuSans-101"/>
     <use x="4200.957031" xlink:href="#DejaVuSans-99"/>
     <use x="4255.9375" xlink:href="#DejaVuSans-116"/>
     <use x="4295.146484" xlink:href="#DejaVuSans-105"/>
     <use x="4322.929688" xlink:href="#DejaVuSans-111"/>
     <use x="4384.111328" xlink:href="#DejaVuSans-110"/>
     <use x="4447.490234" xlink:href="#DejaVuSans-32"/>
     <use x="4479.277344" xlink:href="#DejaVuSans-112"/>
     <use x="4542.753906" xlink:href="#DejaVuSans-111"/>
     <use x="4603.935547" xlink:href="#DejaVuSans-105"/>
     <use x="4631.71875" xlink:href="#DejaVuSans-110"/>
     <use x="4695.097656" xlink:href="#DejaVuSans-116"/>
    </g>
   </g>
   <g id="line2d_19">
    <defs>
     <path d="M 0 3 
C 0.795609 3 1.55874 2.683901 2.12132 2.12132 
C 2.683901 1.55874 3 0.795609 3 0 
C 3 -0.795609 2.683901 -1.55874 2.12132 -2.12132 
C 1.55874 -2.683901 0.795609 -3 0 -3 
C -0.795609 -3 -1.55874 -2.683901 -2.12132 -2.12132 
C -2.683901 -1.55874 -3 -0.795609 -3 0 
C -3 0.795609 -2.683901 1.55874 -2.12132 2.12132 
C -1.55874 2.683901 -0.795609 3 0 3 
z
" id="m452158d54d" style="stroke:#ff3333;"/>
    </defs>
    <g clip-path="url(#pb0cc339ac0)">
     <use style="fill:#ff3333;stroke:#ff3333;" x="73.050456" xlink:href="#m452158d54d" y="288.3636"/>
     <use style="fill:#ff3333;stroke:#ff3333;" x="73.349544" xlink:href="#m452158d54d" y="69.8364"/>
    </g>
   </g>
   <g id="line2d_20">
    <g clip-path="url(#pb0cc339ac0)">
     <use style="fill:#ff3333;stroke:#ff3333;" x="80.490456" xlink:href="#m452158d54d" y="288.3636"/>
     <use style="fill:#ff3333;stroke:#ff3333;" x="80.789544" xlink:href="#m452158d54d" y="69.8364"/>
     <use style="fill:#ff3333;stroke:#ff3333;" x="80.497792" xlink:href="#m452158d54d" y="283.003512"/>
     <use style="fill:#ff3333;stroke:#ff3333;" x="80.539402" xlink:href="#m452158d54d" y="252.601176"/>
     <use style="fill:#ff3333;stroke:#ff3333;" x="80.739983" xlink:href="#m452158d54d" y="106.047724"/>
     <use style="fill:#ff3333;stroke:#ff3333;" x="80.778456" xlink:href="#m452158d54d" y="77.937935"/>
    </g>
   </g>
   <g id="line2d_21">
    <g clip-path="url(#pb0cc339ac0)">
     <use style="fill:#ff3333;stroke:#ff3333;" x="87.930456" xlink:href="#m452158d54d" y="288.3636"/>
     <use style="fill:#ff3333;stroke:#ff3333;" x="88.229544" xlink:href="#m452158d54d" y="69.8364"/>
     <use style="fill:#ff3333;stroke:#ff3333;" x="87.934701" xlink:href="#m452158d54d" y="285.261716"/>
     <use style="fill:#ff3333;stroke:#ff3333;" x="88.13748" xlink:href="#m452158d54d" y="137.102283"/>
     <use style="fill:#ff3333;stroke:#ff3333;" x="88.159541" xlink:href="#m452158d54d" y="120.983608"/>
     <use style="fill:#ff3333;stroke:#ff3333;" x="88.224213" xlink:href="#m452158d54d" y="73.731296"/>
    </g>
   </g>
   <g id="line2d_22">
    <g clip-path="url(#pb0cc339ac0)">
     <use style="fill:#ff3333;stroke:#ff3333;" x="95.370456" xlink:href="#m452158d54d" y="288.3636"/>
     <use style="fill:#ff3333;stroke:#ff3333;" x="95.669544" xlink:href="#m452158d54d" y="69.8364"/>
     <use style="fill:#ff3333;stroke:#ff3333;" x="95.373215" xlink:href="#m452158d54d" y="286.34758"/>
     <use style="fill:#ff3333;stroke:#ff3333;" x="95.585024" xlink:href="#m452158d54d" y="131.590185"/>
     <use style="fill:#ff3333;stroke:#ff3333;" x="95.601272" xlink:href="#m452158d54d" y="119.719263"/>
     <use style="fill:#ff3333;stroke:#ff3333;" x="95.66375" xlink:href="#m452158d54d" y="74.069517"/>
    </g>
   </g>
   <g id="line2d_23">
    <g clip-path="url(#pb0cc339ac0)">
     <use style="fill:#ff3333;stroke:#ff3333;" x="102.810456" xlink:href="#m452158d54d" y="288.3636"/>
     <use style="fill:#ff3333;stroke:#ff3333;" x="103.109544" xlink:href="#m452158d54d" y="69.8364"/>
     <use style="fill:#ff3333;stroke:#ff3333;" x="102.815306" xlink:href="#m452158d54d" y="284.820147"/>
     <use style="fill:#ff3333;stroke:#ff3333;" x="102.870575" xlink:href="#m452158d54d" y="244.437637"/>
     <use style="fill:#ff3333;stroke:#ff3333;" x="102.87283" xlink:href="#m452158d54d" y="242.790624"/>
     <use style="fill:#ff3333;stroke:#ff3333;" x="103.013916" xlink:href="#m452158d54d" y="139.706384"/>
     <use style="fill:#ff3333;stroke:#ff3333;" x="103.051251" xlink:href="#m452158d54d" y="112.427612"/>
     <use style="fill:#ff3333;stroke:#ff3333;" x="103.102728" xlink:href="#m452158d54d" y="74.816626"/>
    </g>
   </g>
   <g id="line2d_24">
    <g clip-path="url(#pb0cc339ac0)">
     <use style="fill:#ff3333;stroke:#ff3333;" x="110.250456" xlink:href="#m452158d54d" y="288.3636"/>
     <use style="fill:#ff3333;stroke:#ff3333;" x="110.549544" xlink:href="#m452158d54d" y="69.8364"/>
     <use style="fill:#ff3333;stroke:#ff3333;" x="110.258057" xlink:href="#m452158d54d" y="282.809633"/>
     <use style="fill:#ff3333;stroke:#ff3333;" x="110.29201" xlink:href="#m452158d54d" y="258.002391"/>
     <use style="fill:#ff3333;stroke:#ff3333;" x="110.502609" xlink:href="#m452158d54d" y="104.129288"/>
     <use style="fill:#ff3333;stroke:#ff3333;" x="110.540463" xlink:href="#m452158d54d" y="76.47172"/>
    </g>
   </g>
   <g id="line2d_25">
    <g clip-path="url(#pb0cc339ac0)">
     <use style="fill:#ff3333;stroke:#ff3333;" x="117.690456" xlink:href="#m452158d54d" y="288.3636"/>
     <use style="fill:#ff3333;stroke:#ff3333;" x="117.989544" xlink:href="#m452158d54d" y="69.8364"/>
     <use style="fill:#ff3333;stroke:#ff3333;" x="117.70135" xlink:href="#m452158d54d" y="280.404015"/>
     <use style="fill:#ff3333;stroke:#ff3333;" x="117.724465" xlink:href="#m452158d54d" y="263.515069"/>
     <use style="fill:#ff3333;stroke:#ff3333;" x="117.951399" xlink:href="#m452158d54d" y="97.70705"/>
     <use style="fill:#ff3333;stroke:#ff3333;" x="117.977807" xlink:href="#m452158d54d" y="78.412318"/>
    </g>
   </g>
   <g id="line2d_26">
    <g clip-path="url(#pb0cc339ac0)">
     <use style="fill:#ff3333;stroke:#ff3333;" x="125.130456" xlink:href="#m452158d54d" y="288.3636"/>
     <use style="fill:#ff3333;stroke:#ff3333;" x="125.429544" xlink:href="#m452158d54d" y="69.8364"/>
     <use style="fill:#ff3333;stroke:#ff3333;" x="125.144824" xlink:href="#m452158d54d" y="277.865843"/>
     <use style="fill:#ff3333;stroke:#ff3333;" x="125.160785" xlink:href="#m452158d54d" y="266.203893"/>
    </g>
   </g>
   <g id="line2d_27">
    <g clip-path="url(#pb0cc339ac0)">
     <use style="fill:#ff3333;stroke:#ff3333;" x="132.570456" xlink:href="#m452158d54d" y="288.3636"/>
     <use style="fill:#ff3333;stroke:#ff3333;" x="132.869544" xlink:href="#m452158d54d" y="69.8364"/>
     <use style="fill:#ff3333;stroke:#ff3333;" x="132.588298" xlink:href="#m452158d54d" y="275.327671"/>
     <use style="fill:#ff3333;stroke:#ff3333;" x="132.597996" xlink:href="#m452158d54d" y="268.241478"/>
    </g>
   </g>
   <g id="line2d_28">
    <g clip-path="url(#pb0cc339ac0)">
     <use style="fill:#ff3333;stroke:#ff3333;" x="140.010456" xlink:href="#m452158d54d" y="288.3636"/>
     <use style="fill:#ff3333;stroke:#ff3333;" x="140.309544" xlink:href="#m452158d54d" y="69.8364"/>
    </g>
   </g>
   <g id="line2d_29">
    <g clip-path="url(#pb0cc339ac0)">
     <use style="fill:#ff3333;stroke:#ff3333;" x="147.450456" xlink:href="#m452158d54d" y="288.3636"/>
     <use style="fill:#ff3333;stroke:#ff3333;" x="147.749544" xlink:href="#m452158d54d" y="69.8364"/>
    </g>
   </g>
   <g id="line2d_30">
    <g clip-path="url(#pb0cc339ac0)">
     <use style="fill:#ff3333;stroke:#ff3333;" x="154.890456" xlink:href="#m452158d54d" y="288.3636"/>
     <use style="fill:#ff3333;stroke:#ff3333;" x="155.189544" xlink:href="#m452158d54d" y="69.8364"/>
     <use style="fill:#ff3333;stroke:#ff3333;" x="155.161661" xlink:href="#m452158d54d" y="90.208737"/>
     <use style="fill:#ff3333;stroke:#ff3333;" x="155.168513" xlink:href="#m452158d54d" y="85.20241"/>
    </g>
   </g>
   <g id="line2d_31">
    <g clip-path="url(#pb0cc339ac0)">
     <use style="fill:#ff3333;stroke:#ff3333;" x="162.330456" xlink:href="#m452158d54d" y="288.3636"/>
     <use style="fill:#ff3333;stroke:#ff3333;" x="162.629544" xlink:href="#m452158d54d" y="69.8364"/>
     <use style="fill:#ff3333;stroke:#ff3333;" x="162.598227" xlink:href="#m452158d54d" y="92.7178"/>
     <use style="fill:#ff3333;stroke:#ff3333;" x="162.618042" xlink:href="#m452158d54d" y="78.239964"/>
     <use style="fill:#ff3333;stroke:#ff3333;" x="162.347825" xlink:href="#m452158d54d" y="275.672859"/>
     <use style="fill:#ff3333;stroke:#ff3333;" x="162.360499" xlink:href="#m452158d54d" y="266.412726"/>
    </g>
   </g>
   <g id="line2d_32">
    <g clip-path="url(#pb0cc339ac0)">
     <use style="fill:#ff3333;stroke:#ff3333;" x="169.770456" xlink:href="#m452158d54d" y="288.3636"/>
     <use style="fill:#ff3333;stroke:#ff3333;" x="170.069544" xlink:href="#m452158d54d" y="69.8364"/>
     <use style="fill:#ff3333;stroke:#ff3333;" x="170.034472" xlink:href="#m452158d54d" y="95.461723"/>
     <use style="fill:#ff3333;stroke:#ff3333;" x="170.060483" xlink:href="#m452158d54d" y="76.456738"/>
     <use style="fill:#ff3333;stroke:#ff3333;" x="169.784942" xlink:href="#m452158d54d" y="277.779661"/>
     <use style="fill:#ff3333;stroke:#ff3333;" x="169.808173" xlink:href="#m452158d54d" y="260.805894"/>
    </g>
   </g>
   <g id="line2d_33">
    <g clip-path="url(#pb0cc339ac0)">
     <use style="fill:#ff3333;stroke:#ff3333;" x="177.210456" xlink:href="#m452158d54d" y="288.3636"/>
     <use style="fill:#ff3333;stroke:#ff3333;" x="177.509544" xlink:href="#m452158d54d" y="69.8364"/>
     <use style="fill:#ff3333;stroke:#ff3333;" x="177.469563" xlink:href="#m452158d54d" y="99.048073"/>
     <use style="fill:#ff3333;stroke:#ff3333;" x="177.502923" xlink:href="#m452158d54d" y="74.673782"/>
     <use style="fill:#ff3333;stroke:#ff3333;" x="177.222058" xlink:href="#m452158d54d" y="279.886463"/>
     <use style="fill:#ff3333;stroke:#ff3333;" x="177.256859" xlink:href="#m452158d54d" y="254.459587"/>
    </g>
   </g>
   <g id="line2d_34">
    <g clip-path="url(#pb0cc339ac0)">
     <use style="fill:#ff3333;stroke:#ff3333;" x="184.650456" xlink:href="#m452158d54d" y="288.3636"/>
     <use style="fill:#ff3333;stroke:#ff3333;" x="184.949544" xlink:href="#m452158d54d" y="69.8364"/>
     <use style="fill:#ff3333;stroke:#ff3333;" x="184.897882" xlink:href="#m452158d54d" y="107.583066"/>
     <use style="fill:#ff3333;stroke:#ff3333;" x="184.944479" xlink:href="#m452158d54d" y="73.537005"/>
     <use style="fill:#ff3333;stroke:#ff3333;" x="184.660466" xlink:href="#m452158d54d" y="281.049615"/>
     <use style="fill:#ff3333;stroke:#ff3333;" x="184.707365" xlink:href="#m452158d54d" y="246.783229"/>
     <use style="fill:#ff3333;stroke:#ff3333;" x="184.74098" xlink:href="#m452158d54d" y="222.22256"/>
     <use style="fill:#ff3333;stroke:#ff3333;" x="184.788505" xlink:href="#m452158d54d" y="187.49873"/>
    </g>
   </g>
   <g id="line2d_35">
    <g clip-path="url(#pb0cc339ac0)">
     <use style="fill:#ff3333;stroke:#ff3333;" x="192.090456" xlink:href="#m452158d54d" y="288.3636"/>
     <use style="fill:#ff3333;stroke:#ff3333;" x="192.389544" xlink:href="#m452158d54d" y="69.8364"/>
     <use style="fill:#ff3333;stroke:#ff3333;" x="192.331024" xlink:href="#m452158d54d" y="112.593698"/>
     <use style="fill:#ff3333;stroke:#ff3333;" x="192.385936" xlink:href="#m452158d54d" y="72.472501"/>
     <use style="fill:#ff3333;stroke:#ff3333;" x="192.099414" xlink:href="#m452158d54d" y="281.818425"/>
     <use style="fill:#ff3333;stroke:#ff3333;" x="192.166284" xlink:href="#m452158d54d" y="232.960412"/>
     <use style="fill:#ff3333;stroke:#ff3333;" x="192.170036" xlink:href="#m452158d54d" y="230.218642"/>
     <use style="fill:#ff3333;stroke:#ff3333;" x="192.304313" xlink:href="#m452158d54d" y="132.110097"/>
    </g>
   </g>
   <g id="line2d_36">
    <g clip-path="url(#pb0cc339ac0)">
     <use style="fill:#ff3333;stroke:#ff3333;" x="199.530456" xlink:href="#m452158d54d" y="288.3636"/>
     <use style="fill:#ff3333;stroke:#ff3333;" x="199.829544" xlink:href="#m452158d54d" y="69.8364"/>
     <use style="fill:#ff3333;stroke:#ff3333;" x="199.775409" xlink:href="#m452158d54d" y="109.389518"/>
     <use style="fill:#ff3333;stroke:#ff3333;" x="199.82556" xlink:href="#m452158d54d" y="72.747429"/>
     <use style="fill:#ff3333;stroke:#ff3333;" x="199.538563" xlink:href="#m452158d54d" y="282.440328"/>
     <use style="fill:#ff3333;stroke:#ff3333;" x="199.597571" xlink:href="#m452158d54d" y="239.326167"/>
     <use style="fill:#ff3333;stroke:#ff3333;" x="199.62054" xlink:href="#m452158d54d" y="222.544279"/>
     <use style="fill:#ff3333;stroke:#ff3333;" x="199.743558" xlink:href="#m452158d54d" y="132.661367"/>
    </g>
   </g>
   <g id="line2d_37">
    <g clip-path="url(#pb0cc339ac0)">
     <use style="fill:#ff3333;stroke:#ff3333;" x="206.970456" xlink:href="#m452158d54d" y="288.3636"/>
     <use style="fill:#ff3333;stroke:#ff3333;" x="207.269544" xlink:href="#m452158d54d" y="69.8364"/>
     <use style="fill:#ff3333;stroke:#ff3333;" x="207.225023" xlink:href="#m452158d54d" y="102.365635"/>
     <use style="fill:#ff3333;stroke:#ff3333;" x="207.264258" xlink:href="#m452158d54d" y="73.698646"/>
     <use style="fill:#ff3333;stroke:#ff3333;" x="206.981653" xlink:href="#m452158d54d" y="280.182285"/>
     <use style="fill:#ff3333;stroke:#ff3333;" x="207.022026" xlink:href="#m452158d54d" y="250.684026"/>
     <use style="fill:#ff3333;stroke:#ff3333;" x="207.096458" xlink:href="#m452158d54d" y="196.300857"/>
     <use style="fill:#ff3333;stroke:#ff3333;" x="207.119162" xlink:href="#m452158d54d" y="179.712177"/>
    </g>
   </g>
   <g id="line2d_38">
    <g clip-path="url(#pb0cc339ac0)">
     <use style="fill:#ff3333;stroke:#ff3333;" x="214.410456" xlink:href="#m452158d54d" y="288.3636"/>
     <use style="fill:#ff3333;stroke:#ff3333;" x="214.709544" xlink:href="#m452158d54d" y="69.8364"/>
     <use style="fill:#ff3333;stroke:#ff3333;" x="214.687902" xlink:href="#m452158d54d" y="85.649305"/>
     <use style="fill:#ff3333;stroke:#ff3333;" x="214.694863" xlink:href="#m452158d54d" y="80.562823"/>
    </g>
   </g>
   <g id="line2d_39">
    <g clip-path="url(#pb0cc339ac0)">
     <use style="fill:#ff3333;stroke:#ff3333;" x="221.850456" xlink:href="#m452158d54d" y="288.3636"/>
     <use style="fill:#ff3333;stroke:#ff3333;" x="222.149544" xlink:href="#m452158d54d" y="69.8364"/>
    </g>
   </g>
   <g id="line2d_40">
    <path clip-path="url(#pb0cc339ac0)" d="M 73.349544 69.8364 
L 73.050456 288.3636 
" style="fill:none;stroke:#ff3333;stroke-linecap:round;stroke-width:2;"/>
   </g>
   <g id="line2d_41">
    <path clip-path="url(#pb0cc339ac0)" d="M 80.789544 69.8364 
L 80.778456 77.937935 
" style="fill:none;stroke:#ff3333;stroke-linecap:round;stroke-width:2;"/>
   </g>
   <g id="line2d_42">
    <path clip-path="url(#pb0cc339ac0)" d="M 80.739983 106.047724 
L 80.539402 252.601176 
" style="fill:none;stroke:#ff3333;stroke-linecap:round;stroke-width:2;"/>
   </g>
   <g id="line2d_43">
    <path clip-path="url(#pb0cc339ac0)" d="M 80.497792 283.003512 
L 80.490456 288.3636 
" style="fill:none;stroke:#ff3333;stroke-linecap:round;stroke-width:2;"/>
   </g>
   <g id="line2d_44">
    <path clip-path="url(#pb0cc339ac0)" d="M 88.229544 69.8364 
L 88.224213 73.731296 
" style="fill:none;stroke:#ff3333;stroke-linecap:round;stroke-width:2;"/>
   </g>
   <g id="line2d_45">
    <path clip-path="url(#pb0cc339ac0)" d="M 88.159541 120.983608 
L 88.13748 137.102283 
" style="fill:none;stroke:#ff3333;stroke-linecap:round;stroke-width:2;"/>
   </g>
   <g id="line2d_46">
    <path clip-path="url(#pb0cc339ac0)" d="M 87.934701 285.261716 
L 87.930456 288.3636 
" style="fill:none;stroke:#ff3333;stroke-linecap:round;stroke-width:2;"/>
   </g>
   <g id="line2d_47">
    <path clip-path="url(#pb0cc339ac0)" d="M 95.669544 69.8364 
L 95.66375 74.069517 
" style="fill:none;stroke:#ff3333;stroke-linecap:round;stroke-width:2;"/>
   </g>
   <g id="line2d_48">
    <path clip-path="url(#pb0cc339ac0)" d="M 95.601272 119.719263 
L 95.585024 131.590185 
" style="fill:none;stroke:#ff3333;stroke-linecap:round;stroke-width:2;"/>
   </g>
   <g id="line2d_49">
    <path clip-path="url(#pb0cc339ac0)" d="M 95.373215 286.34758 
L 95.370456 288.3636 
" style="fill:none;stroke:#ff3333;stroke-linecap:round;stroke-width:2;"/>
   </g>
   <g id="line2d_50">
    <path clip-path="url(#pb0cc339ac0)" d="M 103.109544 69.8364 
L 103.102728 74.816626 
" style="fill:none;stroke:#ff3333;stroke-linecap:round;stroke-width:2;"/>
   </g>
   <g id="line2d_51">
    <path clip-path="url(#pb0cc339ac0)" d="M 103.051251 112.427612 
L 103.013916 139.706384 
" style="fill:none;stroke:#ff3333;stroke-linecap:round;stroke-width:2;"/>
   </g>
   <g id="line2d_52">
    <path clip-path="url(#pb0cc339ac0)" d="M 102.87283 242.790624 
L 102.870575 244.437637 
" style="fill:none;stroke:#ff3333;stroke-linecap:round;stroke-width:2;"/>
   </g>
   <g id="line2d_53">
    <path clip-path="url(#pb0cc339ac0)" d="M 102.815306 284.820147 
L 102.810456 288.3636 
" style="fill:none;stroke:#ff3333;stroke-linecap:round;stroke-width:2;"/>
   </g>
   <g id="line2d_54">
    <path clip-path="url(#pb0cc339ac0)" d="M 110.549544 69.8364 
L 110.540463 76.47172 
" style="fill:none;stroke:#ff3333;stroke-linecap:round;stroke-width:2;"/>
   </g>
   <g id="line2d_55">
    <path clip-path="url(#pb0cc339ac0)" d="M 110.502609 104.129288 
L 110.29201 258.002391 
" style="fill:none;stroke:#ff3333;stroke-linecap:round;stroke-width:2;"/>
   </g>
   <g id="line2d_56">
    <path clip-path="url(#pb0cc339ac0)" d="M 110.258057 282.809633 
L 110.250456 288.3636 
" style="fill:none;stroke:#ff3333;stroke-linecap:round;stroke-width:2;"/>
   </g>
   <g id="line2d_57">
    <path clip-path="url(#pb0cc339ac0)" d="M 117.989544 69.8364 
L 117.977807 78.412318 
" style="fill:none;stroke:#ff3333;stroke-linecap:round;stroke-width:2;"/>
   </g>
   <g id="line2d_58">
    <path clip-path="url(#pb0cc339ac0)" d="M 117.951399 97.70705 
L 117.724465 263.515069 
" style="fill:none;stroke:#ff3333;stroke-linecap:round;stroke-width:2;"/>
   </g>
   <g id="line2d_59">
    <path clip-path="url(#pb0cc339ac0)" d="M 117.70135 280.404015 
L 117.690456 288.3636 
" style="fill:none;stroke:#ff3333;stroke-linecap:round;stroke-width:2;"/>
   </g>
   <g id="line2d_60">
    <path clip-path="url(#pb0cc339ac0)" d="M 125.429544 69.8364 
L 125.160785 266.203893 
" style="fill:none;stroke:#ff3333;stroke-linecap:round;stroke-width:2;"/>
   </g>
   <g id="line2d_61">
    <path clip-path="url(#pb0cc339ac0)" d="M 125.144824 277.865843 
L 125.130456 288.3636 
" style="fill:none;stroke:#ff3333;stroke-linecap:round;stroke-width:2;"/>
   </g>
   <g id="line2d_62">
    <path clip-path="url(#pb0cc339ac0)" d="M 132.869544 69.8364 
L 132.597996 268.241478 
" style="fill:none;stroke:#ff3333;stroke-linecap:round;stroke-width:2;"/>
   </g>
   <g id="line2d_63">
    <path clip-path="url(#pb0cc339ac0)" d="M 132.588298 275.327671 
L 132.570456 288.3636 
" style="fill:none;stroke:#ff3333;stroke-linecap:round;stroke-width:2;"/>
   </g>
   <g id="line2d_64">
    <path clip-path="url(#pb0cc339ac0)" d="M 140.309544 69.8364 
L 140.010456 288.3636 
" style="fill:none;stroke:#ff3333;stroke-linecap:round;stroke-width:2;"/>
   </g>
   <g id="line2d_65">
    <path clip-path="url(#pb0cc339ac0)" d="M 147.749544 69.8364 
L 147.450456 288.3636 
" style="fill:none;stroke:#ff3333;stroke-linecap:round;stroke-width:2;"/>
   </g>
   <g id="line2d_66">
    <path clip-path="url(#pb0cc339ac0)" d="M 155.189544 69.8364 
L 155.168513 85.20241 
" style="fill:none;stroke:#ff3333;stroke-linecap:round;stroke-width:2;"/>
   </g>
   <g id="line2d_67">
    <path clip-path="url(#pb0cc339ac0)" d="M 155.161661 90.208737 
L 154.890456 288.3636 
" style="fill:none;stroke:#ff3333;stroke-linecap:round;stroke-width:2;"/>
   </g>
   <g id="line2d_68">
    <path clip-path="url(#pb0cc339ac0)" d="M 162.629544 69.8364 
L 162.618042 78.239964 
" style="fill:none;stroke:#ff3333;stroke-linecap:round;stroke-width:2;"/>
   </g>
   <g id="line2d_69">
    <path clip-path="url(#pb0cc339ac0)" d="M 162.598227 92.7178 
L 162.360499 266.412726 
" style="fill:none;stroke:#ff3333;stroke-linecap:round;stroke-width:2;"/>
   </g>
   <g id="line2d_70">
    <path clip-path="url(#pb0cc339ac0)" d="M 162.347825 275.672859 
L 162.330456 288.3636 
" style="fill:none;stroke:#ff3333;stroke-linecap:round;stroke-width:2;"/>
   </g>
   <g id="line2d_71">
    <path clip-path="url(#pb0cc339ac0)" d="M 170.069544 69.8364 
L 170.060483 76.456738 
" style="fill:none;stroke:#ff3333;stroke-linecap:round;stroke-width:2;"/>
   </g>
   <g id="line2d_72">
    <path clip-path="url(#pb0cc339ac0)" d="M 170.034472 95.461723 
L 169.808173 260.805894 
" style="fill:none;stroke:#ff3333;stroke-linecap:round;stroke-width:2;"/>
   </g>
   <g id="line2d_73">
    <path clip-path="url(#pb0cc339ac0)" d="M 169.784942 277.779661 
L 169.770456 288.3636 
" style="fill:none;stroke:#ff3333;stroke-linecap:round;stroke-width:2;"/>
   </g>
   <g id="line2d_74">
    <path clip-path="url(#pb0cc339ac0)" d="M 177.509544 69.8364 
L 177.502923 74.673782 
" style="fill:none;stroke:#ff3333;stroke-linecap:round;stroke-width:2;"/>
   </g>
   <g id="line2d_75">
    <path clip-path="url(#pb0cc339ac0)" d="M 177.469563 99.048073 
L 177.256859 254.459587 
" style="fill:none;stroke:#ff3333;stroke-linecap:round;stroke-width:2;"/>
   </g>
   <g id="line2d_76">
    <path clip-path="url(#pb0cc339ac0)" d="M 177.222058 279.886463 
L 177.210456 288.3636 
" style="fill:none;stroke:#ff3333;stroke-linecap:round;stroke-width:2;"/>
   </g>
   <g id="line2d_77">
    <path clip-path="url(#pb0cc339ac0)" d="M 184.949544 69.8364 
L 184.944479 73.537005 
" style="fill:none;stroke:#ff3333;stroke-linecap:round;stroke-width:2;"/>
   </g>
   <g id="line2d_78">
    <path clip-path="url(#pb0cc339ac0)" d="M 184.897882 107.583066 
L 184.788505 187.49873 
" style="fill:none;stroke:#ff3333;stroke-linecap:round;stroke-width:2;"/>
   </g>
   <g id="line2d_79">
    <path clip-path="url(#pb0cc339ac0)" d="M 184.74098 222.22256 
L 184.707365 246.783229 
" style="fill:none;stroke:#ff3333;stroke-linecap:round;stroke-width:2;"/>
   </g>
   <g id="line2d_80">
    <path clip-path="url(#pb0cc339ac0)" d="M 184.660466 281.049615 
L 184.650456 288.3636 
" style="fill:none;stroke:#ff3333;stroke-linecap:round;stroke-width:2;"/>
   </g>
   <g id="line2d_81">
    <path clip-path="url(#pb0cc339ac0)" d="M 192.389544 69.8364 
L 192.385936 72.472501 
" style="fill:none;stroke:#ff3333;stroke-linecap:round;stroke-width:2;"/>
   </g>
   <g id="line2d_82">
    <path clip-path="url(#pb0cc339ac0)" d="M 192.331024 112.593698 
L 192.304313 132.110097 
" style="fill:none;stroke:#ff3333;stroke-linecap:round;stroke-width:2;"/>
   </g>
   <g id="line2d_83">
    <path clip-path="url(#pb0cc339ac0)" d="M 192.170036 230.218642 
L 192.166284 232.960412 
" style="fill:none;stroke:#ff3333;stroke-linecap:round;stroke-width:2;"/>
   </g>
   <g id="line2d_84">
    <path clip-path="url(#pb0cc339ac0)" d="M 192.099414 281.818425 
L 192.090456 288.3636 
" style="fill:none;stroke:#ff3333;stroke-linecap:round;stroke-width:2;"/>
   </g>
   <g id="line2d_85">
    <path clip-path="url(#pb0cc339ac0)" d="M 199.829544 69.8364 
L 199.82556 72.747429 
" style="fill:none;stroke:#ff3333;stroke-linecap:round;stroke-width:2;"/>
   </g>
   <g id="line2d_86">
    <path clip-path="url(#pb0cc339ac0)" d="M 199.775409 109.389518 
L 199.743558 132.661367 
" style="fill:none;stroke:#ff3333;stroke-linecap:round;stroke-width:2;"/>
   </g>
   <g id="line2d_87">
    <path clip-path="url(#pb0cc339ac0)" d="M 199.62054 222.544279 
L 199.597571 239.326167 
" style="fill:none;stroke:#ff3333;stroke-linecap:round;stroke-width:2;"/>
   </g>
   <g id="line2d_88">
    <path clip-path="url(#pb0cc339ac0)" d="M 199.538563 282.440328 
L 199.530456 288.3636 
" style="fill:none;stroke:#ff3333;stroke-linecap:round;stroke-width:2;"/>
   </g>
   <g id="line2d_89">
    <path clip-path="url(#pb0cc339ac0)" d="M 207.269544 69.8364 
L 207.264258 73.698646 
" style="fill:none;stroke:#ff3333;stroke-linecap:round;stroke-width:2;"/>
   </g>
   <g id="line2d_90">
    <path clip-path="url(#pb0cc339ac0)" d="M 207.225023 102.365635 
L 207.119162 179.712177 
" style="fill:none;stroke:#ff3333;stroke-linecap:round;stroke-width:2;"/>
   </g>
   <g id="line2d_91">
    <path clip-path="url(#pb0cc339ac0)" d="M 207.096458 196.300857 
L 207.022026 250.684026 
" style="fill:none;stroke:#ff3333;stroke-linecap:round;stroke-width:2;"/>
   </g>
   <g id="line2d_92">
    <path clip-path="url(#pb0cc339ac0)" d="M 206.981653 280.182285 
L 206.970456 288.3636 
" style="fill:none;stroke:#ff3333;stroke-linecap:round;stroke-width:2;"/>
   </g>
   <g id="line2d_93">
    <path clip-path="url(#pb0cc339ac0)" d="M 214.709544 69.8364 
L 214.694863 80.562823 
" style="fill:none;stroke:#ff3333;stroke-linecap:round;stroke-width:2;"/>
   </g>
   <g id="line2d_94">
    <path clip-path="url(#pb0cc339ac0)" d="M 214.687902 85.649305 
L 214.410456 288.3636 
" style="fill:none;stroke:#ff3333;stroke-linecap:round;stroke-width:2;"/>
   </g>
   <g id="line2d_95">
    <path clip-path="url(#pb0cc339ac0)" d="M 222.149544 69.8364 
L 221.850456 288.3636 
" style="fill:none;stroke:#ff3333;stroke-linecap:round;stroke-width:2;"/>
   </g>
   <g id="line2d_96">
    <path clip-path="url(#pb0cc339ac0)" d="M 80.778456 77.937935 
L 80.739983 106.047724 
" style="fill:none;stroke:#339933;stroke-linecap:round;stroke-width:2;"/>
   </g>
   <g id="line2d_97">
    <path clip-path="url(#pb0cc339ac0)" d="M 80.539402 252.601176 
L 80.497792 283.003512 
" style="fill:none;stroke:#339933;stroke-linecap:round;stroke-width:2;"/>
   </g>
   <g id="line2d_98">
    <path clip-path="url(#pb0cc339ac0)" d="M 88.224213 73.731296 
L 88.159541 120.983608 
" style="fill:none;stroke:#339933;stroke-linecap:round;stroke-width:2;"/>
   </g>
   <g id="line2d_99">
    <path clip-path="url(#pb0cc339ac0)" d="M 88.13748 137.102283 
L 87.934701 285.261716 
" style="fill:none;stroke:#339933;stroke-linecap:round;stroke-width:2;"/>
   </g>
   <g id="line2d_100">
    <path clip-path="url(#pb0cc339ac0)" d="M 95.66375 74.069517 
L 95.601272 119.719263 
" style="fill:none;stroke:#339933;stroke-linecap:round;stroke-width:2;"/>
   </g>
   <g id="line2d_101">
    <path clip-path="url(#pb0cc339ac0)" d="M 95.585024 131.590185 
L 95.373215 286.34758 
" style="fill:none;stroke:#339933;stroke-linecap:round;stroke-width:2;"/>
   </g>
   <g id="line2d_102">
    <path clip-path="url(#pb0cc339ac0)" d="M 103.102728 74.816626 
L 103.051251 112.427612 
" style="fill:none;stroke:#339933;stroke-linecap:round;stroke-width:2;"/>
   </g>
   <g id="line2d_103">
    <path clip-path="url(#pb0cc339ac0)" d="M 103.013916 139.706384 
L 102.87283 242.790624 
" style="fill:none;stroke:#339933;stroke-linecap:round;stroke-width:2;"/>
   </g>
   <g id="line2d_104">
    <path clip-path="url(#pb0cc339ac0)" d="M 102.870575 244.437637 
L 102.815306 284.820147 
" style="fill:none;stroke:#339933;stroke-linecap:round;stroke-width:2;"/>
   </g>
   <g id="line2d_105">
    <path clip-path="url(#pb0cc339ac0)" d="M 110.540463 76.47172 
L 110.502609 104.129288 
" style="fill:none;stroke:#339933;stroke-linecap:round;stroke-width:2;"/>
   </g>
   <g id="line2d_106">
    <path clip-path="url(#pb0cc339ac0)" d="M 110.29201 258.002391 
L 110.258057 282.809633 
" style="fill:none;stroke:#339933;stroke-linecap:round;stroke-width:2;"/>
   </g>
   <g id="line2d_107">
    <path clip-path="url(#pb0cc339ac0)" d="M 117.977807 78.412318 
L 117.951399 97.70705 
" style="fill:none;stroke:#339933;stroke-linecap:round;stroke-width:2;"/>
   </g>
   <g id="line2d_108">
    <path clip-path="url(#pb0cc339ac0)" d="M 117.724465 263.515069 
L 117.70135 280.404015 
" style="fill:none;stroke:#339933;stroke-linecap:round;stroke-width:2;"/>
   </g>
   <g id="line2d_109">
    <path clip-path="url(#pb0cc339ac0)" d="M 125.160785 266.203893 
L 125.144824 277.865843 
" style="fill:none;stroke:#339933;stroke-linecap:round;stroke-width:2;"/>
   </g>
   <g id="line2d_110">
    <path clip-path="url(#pb0cc339ac0)" d="M 132.597996 268.241478 
L 132.588298 275.327671 
" style="fill:none;stroke:#339933;stroke-linecap:round;stroke-width:2;"/>
   </g>
   <g id="line2d_111">
    <path clip-path="url(#pb0cc339ac0)" d="M 155.168513 85.20241 
L 155.161661 90.208737 
" style="fill:none;stroke:#339933;stroke-linecap:round;stroke-width:2;"/>
   </g>
   <g id="line2d_112">
    <path clip-path="url(#pb0cc339ac0)" d="M 162.618042 78.239964 
L 162.598227 92.7178 
" style="fill:none;stroke:#339933;stroke-linecap:round;stroke-width:2;"/>
   </g>
   <g id="line2d_113">
    <path clip-path="url(#pb0cc339ac0)" d="M 162.360499 266.412726 
L 162.347825 275.672859 
" style="fill:none;stroke:#339933;stroke-linecap:round;stroke-width:2;"/>
   </g>
   <g id="line2d_114">
    <path clip-path="url(#pb0cc339ac0)" d="M 170.060483 76.456738 
L 170.034472 95.461723 
" style="fill:none;stroke:#339933;stroke-linecap:round;stroke-width:2;"/>
   </g>
   <g id="line2d_115">
    <path clip-path="url(#pb0cc339ac0)" d="M 169.808173 260.805894 
L 169.784942 277.779661 
" style="fill:none;stroke:#339933;stroke-linecap:round;stroke-width:2;"/>
   </g>
   <g id="line2d_116">
    <path clip-path="url(#pb0cc339ac0)" d="M 177.502923 74.673782 
L 177.469563 99.048073 
" style="fill:none;stroke:#339933;stroke-linecap:round;stroke-width:2;"/>
   </g>
   <g id="line2d_117">
    <path clip-path="url(#pb0cc339ac0)" d="M 177.256859 254.459587 
L 177.222058 279.886463 
" style="fill:none;stroke:#339933;stroke-linecap:round;stroke-width:2;"/>
   </g>
   <g id="line2d_118">
    <path clip-path="url(#pb0cc339ac0)" d="M 184.944479 73.537005 
L 184.897882 107.583066 
" style="fill:none;stroke:#339933;stroke-linecap:round;stroke-width:2;"/>
   </g>
   <g id="line2d_119">
    <path clip-path="url(#pb0cc339ac0)" d="M 184.788505 187.49873 
L 184.74098 222.22256 
" style="fill:none;stroke:#339933;stroke-linecap:round;stroke-width:2;"/>
   </g>
   <g id="line2d_120">
    <path clip-path="url(#pb0cc339ac0)" d="M 184.707365 246.783229 
L 184.660466 281.049615 
" style="fill:none;stroke:#339933;stroke-linecap:round;stroke-width:2;"/>
   </g>
   <g id="line2d_121">
    <path clip-path="url(#pb0cc339ac0)" d="M 192.385936 72.472501 
L 192.331024 112.593698 
" style="fill:none;stroke:#339933;stroke-linecap:round;stroke-width:2;"/>
   </g>
   <g id="line2d_122">
    <path clip-path="url(#pb0cc339ac0)" d="M 192.304313 132.110097 
L 192.170036 230.218642 
" style="fill:none;stroke:#339933;stroke-linecap:round;stroke-width:2;"/>
   </g>
   <g id="line2d_123">
    <path clip-path="url(#pb0cc339ac0)" d="M 192.166284 232.960412 
L 192.099414 281.818425 
" style="fill:none;stroke:#339933;stroke-linecap:round;stroke-width:2;"/>
   </g>
   <g id="line2d_124">
    <path clip-path="url(#pb0cc339ac0)" d="M 199.82556 72.747429 
L 199.775409 109.389518 
" style="fill:none;stroke:#339933;stroke-linecap:round;stroke-width:2;"/>
   </g>
   <g id="line2d_125">
    <path clip-path="url(#pb0cc339ac0)" d="M 199.743558 132.661367 
L 199.62054 222.544279 
" style="fill:none;stroke:#339933;stroke-linecap:round;stroke-width:2;"/>
   </g>
   <g id="line2d_126">
    <path clip-path="url(#pb0cc339ac0)" d="M 199.597571 239.326167 
L 199.538563 282.440328 
" style="fill:none;stroke:#339933;stroke-linecap:round;stroke-width:2;"/>
   </g>
   <g id="line2d_127">
    <path clip-path="url(#pb0cc339ac0)" d="M 207.264258 73.698646 
L 207.225023 102.365635 
" style="fill:none;stroke:#339933;stroke-linecap:round;stroke-width:2;"/>
   </g>
   <g id="line2d_128">
    <path clip-path="url(#pb0cc339ac0)" d="M 207.119162 179.712177 
L 207.096458 196.300857 
" style="fill:none;stroke:#339933;stroke-linecap:round;stroke-width:2;"/>
   </g>
   <g id="line2d_129">
    <path clip-path="url(#pb0cc339ac0)" d="M 207.022026 250.684026 
L 206.981653 280.182285 
" style="fill:none;stroke:#339933;stroke-linecap:round;stroke-width:2;"/>
   </g>
   <g id="line2d_130">
    <path clip-path="url(#pb0cc339ac0)" d="M 214.694863 80.562823 
L 214.687902 85.649305 
" style="fill:none;stroke:#339933;stroke-linecap:round;stroke-width:2;"/>
   </g>
  </g>
 </g>
 <defs>
  <clipPath id="pb0cc339ac0">
   <rect height="271.8" width="223.2" x="36" y="43.2"/>
  </clipPath>
 </defs>
</svg>
